<svg width="154" height="40" viewBox="0 0 154 40" fill="none" xmlns="http://www.w3.org/2000/svg">
<path fill-rule="evenodd" clip-rule="evenodd" d="M78.0296 29.5016C78.0296 29.7128 77.8584 29.884 77.6472 29.884H75.4314C75.2202 29.884 75.049 29.7128 75.049 29.5016V28.3091C74.625 28.7929 74.1166 29.1968 73.5206 29.5156C72.6789 29.9565 71.7101 30.175 70.6212 30.175C69.3323 30.175 68.158 29.8577 67.1032 29.2208C66.051 28.5656 65.2156 27.6797 64.6012 26.5699C64.0054 25.4576 63.7079 24.2063 63.7079 22.8246C63.7079 21.4432 64.0036 20.1944 64.5992 19.0823C65.2133 17.9734 66.0388 17.0867 67.0713 16.4314C68.1269 15.7742 69.3124 15.4463 70.6212 15.4463C71.6903 15.4463 72.6471 15.6736 73.4877 16.1327C74.0917 16.4417 74.6122 16.8421 75.049 17.3295V16.1186C75.049 15.9075 75.2202 15.7363 75.4314 15.7363H77.6472C77.8584 15.7363 78.0296 15.9075 78.0296 16.1186V29.5016ZM71.0573 27.3685C72.3144 27.3685 73.3148 26.9485 74.0745 26.1146C74.8371 25.2582 75.2231 24.166 75.2231 22.8246C75.2231 21.8965 75.0436 21.1003 74.6904 20.4309C74.3551 19.742 73.8706 19.2099 73.2412 18.8396C72.6116 18.4508 71.8737 18.2518 71.0283 18.2518C70.1838 18.2518 69.4386 18.4475 68.7892 18.8367C68.1562 19.2277 67.6528 19.7689 67.2782 20.4619C66.925 21.1318 66.7464 21.9083 66.7464 22.7956C66.7464 23.7017 66.9253 24.4972 67.2782 25.1865L67.4241 25.432C67.7815 25.9896 68.2457 26.4387 68.8173 26.7816C69.4672 27.1716 70.2121 27.3684 71.0573 27.3685Z" fill="white"/>
<path fill-rule="evenodd" clip-rule="evenodd" d="M90.1689 29.5014C90.1689 29.7125 89.9977 29.8837 89.7865 29.8837H87.5997C87.3885 29.8837 87.2173 29.7125 87.2173 29.5014V10.4957C87.2173 10.2845 87.3885 10.1133 87.5997 10.1133L89.7865 10.1134C89.9977 10.1134 90.1689 10.2846 90.1689 10.4957V29.5014Z" fill="white"/>
<path fill-rule="evenodd" clip-rule="evenodd" d="M81.1392 29.5012C81.1392 29.7123 81.3103 29.8835 81.5215 29.8835H83.7083C83.9195 29.8835 84.0907 29.7123 84.0907 29.5012V16.1182C84.0907 15.907 83.9195 15.7358 83.7083 15.7358H81.5215C81.3103 15.7358 81.1392 15.907 81.1392 16.1182V29.5012Z" fill="white"/>
<path fill-rule="evenodd" clip-rule="evenodd" d="M83.9293 12.7901C84.2708 12.4272 84.4397 11.978 84.4397 11.454C84.4397 10.9474 84.269 10.5157 83.9254 10.1721C83.5819 9.80915 83.1405 9.62887 82.6154 9.62878C82.0903 9.62878 81.6482 9.809 81.3045 10.1721C80.9609 10.5157 80.7902 10.9474 80.7902 11.454C80.7902 11.9779 80.963 12.4311 81.3045 12.794C81.6494 13.1388 82.0917 13.3073 82.6154 13.3073C83.1391 13.3072 83.5844 13.1348 83.9293 12.7901Z" fill="white"/>
<path fill-rule="evenodd" clip-rule="evenodd" d="M102.452 32.0367C101.677 32.7568 100.607 33.1262 99.2223 33.1262C98.1763 33.1262 97.2783 32.9343 96.5308 32.5607C95.7804 32.2041 95.1319 31.6781 94.5847 30.98C94.5221 30.9009 94.4042 30.8946 94.3334 30.9665L92.6473 32.6825C92.5911 32.7393 92.5831 32.8287 92.629 32.8942C93.3053 33.8689 94.2012 34.6249 95.3118 35.1603C96.4424 35.6959 97.7282 35.9618 99.1643 35.9618C100.621 35.9618 101.908 35.6749 103.021 35.0985C104.15 34.5236 105.028 33.7295 105.646 32.7134C106.285 31.6948 106.602 30.5097 106.602 29.1643V15.7352C106.602 15.524 106.431 15.3529 106.219 15.3528L104.032 15.3527C103.821 15.3527 103.65 15.5239 103.65 15.7351V17.2836C103.226 16.8035 102.716 16.4086 102.119 16.1032C101.258 15.663 100.272 15.4458 99.1643 15.4458C97.8755 15.4458 96.7103 15.7625 95.6743 16.4C94.6603 17.0164 93.8553 17.8621 93.2603 18.9329L93.152 19.1321C92.6272 20.1388 92.366 21.2744 92.366 22.5342C92.3661 23.8778 92.6643 25.0987 93.2603 26.1915C93.8554 27.2627 94.662 28.1098 95.6762 28.7264C96.7121 29.3438 97.8765 29.6516 99.1643 29.6516C100.253 29.6516 101.23 29.4333 102.09 28.9932C102.7 28.6809 103.22 28.28 103.65 27.7944V29.1643C103.65 30.3836 103.245 31.3361 102.452 32.0367ZM101.843 26.3153C101.233 26.6668 100.516 26.845 99.6873 26.845C98.8391 26.845 98.0916 26.6658 97.4406 26.3124C96.8105 25.9405 96.3097 25.4307 95.9373 24.78C95.584 24.1292 95.4057 23.382 95.4055 22.5342C95.4055 21.686 95.5831 20.9479 95.9353 20.3174C96.3085 19.6649 96.8142 19.1629 97.4454 18.8102C98.0754 18.4396 98.8115 18.2514 99.6583 18.2514C100.505 18.2514 101.234 18.4417 101.843 18.8111C102.454 19.1629 102.929 19.6674 103.263 20.3183C103.615 20.9484 103.795 21.6948 103.795 22.5632C103.795 23.4318 103.626 24.1893 103.291 24.8399C102.958 25.4702 102.475 25.9624 101.843 26.3153Z" fill="white"/>
<path d="M112.664 16.9999C113.512 15.9606 114.714 15.4464 116.248 15.4463C116.964 15.4463 117.617 15.5754 118.202 15.8368C118.793 16.0815 119.338 16.4967 119.836 17.0743C119.892 17.1394 119.889 17.2376 119.829 17.2996L118.113 19.0734C118.047 19.1419 117.936 19.1411 117.871 19.0716C117.595 18.7772 117.296 18.5697 116.973 18.4442C116.648 18.3176 116.261 18.2518 115.812 18.2518C114.882 18.2519 114.131 18.548 113.546 19.1335C112.968 19.7111 112.664 20.6013 112.664 21.8366V29.5015C112.664 29.7127 112.493 29.8839 112.282 29.8839H110.095C109.884 29.8839 109.713 29.7127 109.713 29.5015V15.7383C109.713 15.5272 109.884 15.356 110.095 15.356L112.282 15.3558C112.493 15.3557 112.664 15.5269 112.664 15.7381V16.9999Z" fill="white"/>
<path fill-rule="evenodd" clip-rule="evenodd" d="M121.019 29.502C121.019 29.7132 121.19 29.8844 121.401 29.8844H123.588C123.799 29.8844 123.97 29.7132 123.97 29.502V16.1191C123.97 15.9079 123.799 15.7367 123.588 15.7367H121.401C121.19 15.7367 121.019 15.9079 121.019 16.1191V29.502Z" fill="white"/>
<path fill-rule="evenodd" clip-rule="evenodd" d="M123.808 12.7907C124.149 12.4278 124.319 11.9786 124.319 11.4547C124.319 10.948 124.147 10.5163 123.804 10.1727C123.46 9.80985 123.019 9.6294 122.494 9.6294C121.969 9.62943 121.527 9.80979 121.184 10.1727C120.84 10.5163 120.67 10.948 120.67 11.4547C120.67 11.9786 120.842 12.4317 121.184 12.7946C121.529 13.1393 121.97 13.3079 122.494 13.308C123.018 13.308 123.463 13.1356 123.808 12.7907Z" fill="white"/>
<path fill-rule="evenodd" clip-rule="evenodd" d="M137.565 29.5014C137.565 29.7126 137.736 29.8838 137.947 29.8838H140.163C140.374 29.8838 140.545 29.7126 140.545 29.5014V10.4967C140.545 10.2856 140.374 10.1144 140.163 10.1144L137.947 10.1143C137.736 10.1143 137.565 10.2855 137.565 10.4967V17.3612C137.122 16.8591 136.592 16.4483 135.975 16.1325C135.116 15.6739 134.159 15.4461 133.108 15.4461C131.799 15.4461 130.624 15.7733 129.587 16.4312C128.555 17.0865 127.729 17.9732 127.115 19.0821C126.519 20.1942 126.224 21.443 126.224 22.8244C126.224 24.2061 126.521 25.4574 127.117 26.5697C127.731 27.6788 128.556 28.5643 129.589 29.2196C130.626 29.8574 131.8 30.1748 133.108 30.1748C134.178 30.1748 135.148 29.9553 136.007 29.5154C136.61 29.1929 137.128 28.7836 137.565 28.2925V29.5014ZM135.723 26.7843C135.114 27.1719 134.39 27.3683 133.544 27.3683C132.699 27.3682 131.953 27.1714 131.303 26.7814C130.75 26.439 130.295 25.9902 129.94 25.4328L129.794 25.1863C129.441 24.497 129.262 23.7015 129.262 22.7954C129.262 21.9081 129.441 21.1316 129.794 20.4617C130.169 19.7687 130.673 19.2284 131.306 18.8375C131.935 18.4488 132.67 18.2516 133.515 18.2516C134.361 18.2516 135.086 18.4499 135.695 18.8375C136.328 19.2286 136.823 19.7615 137.178 20.4336C137.55 21.1023 137.739 21.8976 137.739 22.8244C137.739 23.7117 137.56 24.4989 137.206 25.1892C136.852 25.8612 136.356 26.3932 135.723 26.7843Z" fill="white"/>
<path fill-rule="evenodd" clip-rule="evenodd" d="M150.267 18.6588C150.593 18.8341 150.883 19.0508 151.139 19.3088L151.174 19.3446C151.23 19.4046 151.321 19.4143 151.388 19.3673L153.377 17.9746C153.439 17.9311 153.454 17.8454 153.41 17.7838L153.379 17.7405C152.823 16.9816 152.11 16.4141 151.245 16.0407C150.387 15.6426 149.404 15.4462 148.301 15.4462C147.256 15.4462 146.348 15.6143 145.585 15.9557C144.842 16.2972 144.255 16.7912 143.829 17.4387C143.401 18.0713 143.19 18.8227 143.19 19.6845C143.19 20.54 143.372 21.2487 143.746 21.7892C144.13 22.3144 144.615 22.7289 145.2 23.0314C145.32 23.0936 145.442 23.1536 145.565 23.2115C145.632 23.2428 145.699 23.2736 145.767 23.3037C146.167 23.482 146.581 23.6382 147.006 23.771C147.157 23.8121 147.306 23.8538 147.453 23.8962C147.527 23.9177 147.601 23.9393 147.675 23.9611L147.687 23.9649C148.076 24.0802 148.449 24.1997 148.804 24.3221C149.351 24.4919 149.793 24.7218 150.121 24.995C150.442 25.2313 150.606 25.5665 150.606 26.0236C150.606 26.466 150.416 26.8118 150.017 27.0735C149.608 27.3223 149.013 27.4563 148.214 27.4563C147.519 27.4563 146.886 27.3474 146.313 27.1325L146.071 27.0339C145.573 26.799 145.12 26.4713 144.711 26.0492C144.634 25.9701 144.511 25.9556 144.421 26.0187L142.471 27.3798C142.404 27.4264 142.391 27.5198 142.442 27.583L142.471 27.6178C142.902 28.1401 143.413 28.5977 143.995 28.9858C144.589 29.3621 145.238 29.6606 145.93 29.8781C146.644 30.0762 147.395 30.1749 148.185 30.1749C149.762 30.1749 151.035 29.7891 151.984 29.0013C152.956 28.2107 153.441 27.1351 153.441 25.7916C153.441 24.9154 153.251 24.1895 152.857 23.6299C152.493 23.0856 152.019 22.6516 151.435 22.3296C151.163 22.1795 150.884 22.0449 150.599 21.926C150.529 21.8968 150.458 21.8684 150.387 21.841C150.258 21.7911 150.127 21.7443 149.995 21.7006C149.939 21.6821 149.883 21.6641 149.826 21.6467C149.761 21.6267 149.696 21.6075 149.63 21.589C149.297 21.4851 148.97 21.384 148.649 21.2856L148.417 21.2148C148.217 21.1542 148.02 21.0945 147.825 21.036C147.275 20.8652 146.838 20.6592 146.508 20.4212C146.207 20.2034 146.055 19.8971 146.055 19.4805C146.055 19.0715 146.22 18.7656 146.56 18.5447C146.928 18.2991 147.474 18.1648 148.214 18.1647C148.91 18.1647 149.524 18.2964 150.06 18.5553L150.267 18.6588Z" fill="white"/>
<path fill-rule="evenodd" clip-rule="evenodd" d="M66.3733 12.4602C66.3733 12.6714 66.2021 12.8426 65.9909 12.8426H59.7864V29.502C59.7864 29.7132 59.6152 29.8844 59.404 29.8844H57.2121C57.0009 29.8844 56.8297 29.7132 56.8297 29.502V12.8426H50.5972C50.386 12.8426 50.2148 12.6714 50.2148 12.4602V10.4919C50.2148 10.2808 50.386 10.1096 50.5972 10.1096H65.9909C66.2021 10.1096 66.3733 10.2808 66.3733 10.4919V12.4602Z" fill="white"/>
<path d="M0 3C0 1.34315 1.34315 0 3 0H37C38.6569 0 40 1.34315 40 3V37C40 38.6569 38.6569 40 37 40H3C1.34315 40 0 38.6569 0 37V3Z" fill="url(#paint0_linear_14626_25947)"/>
<path d="M30.9805 13.8444C30.9805 14.212 30.6825 14.5099 30.315 14.5099L20.4135 14.5099C20.1487 14.5099 19.8948 14.6151 19.7076 14.8023L14.8021 19.7076C14.6149 19.8948 14.5098 20.1487 14.5098 20.4135L14.5098 30.3148C14.5098 30.6823 14.2118 30.9802 13.8443 30.9802L9.68501 30.9802C9.31748 30.9802 9.01953 30.6823 9.01953 30.3148L9.01953 18.1393C9.01953 17.8746 9.1247 17.6207 9.31191 17.4335L17.4336 9.31214C17.6208 9.12494 17.8747 9.01978 18.1395 9.01978L30.315 9.01978C30.6825 9.01978 30.9805 9.31772 30.9805 9.68524L30.9805 13.8444Z" fill="white"/>
<path d="M30.9805 20L30.9805 28.6171C30.9805 28.8984 30.8619 29.1666 30.6537 29.3557L29.974 29.9737L29.1621 30.7179C28.978 30.8866 28.7374 30.9802 28.4876 30.9802L26.1557 30.9802C25.7882 30.9802 25.4903 30.6823 25.4903 30.3148L25.4903 25.4901L20.6655 25.4901C20.298 25.4901 20 25.1922 20 24.8247L20 22.3421C20 22.0791 20.1038 21.8267 20.2889 21.6398L21.0066 20.915L21.6292 20.2924C21.8164 20.1052 22.0703 20 22.3351 20L30.9805 20Z" fill="white"/>
<defs>
<linearGradient id="paint0_linear_14626_25947" x1="-9.42229" y1="-7.31359" x2="35.3759" y2="35.6419" gradientUnits="userSpaceOnUse">
<stop stop-color="#3758F9"/>
<stop offset="1" stop-color="#8AA7FF"/>
</linearGradient>
</defs>
</svg>
