<svg width="32" height="32" viewBox="0 0 32 32" fill="none" xmlns="http://www.w3.org/2000/svg">
<path d="M0 2.4C0 1.07452 1.07452 0 2.4 0H29.6C30.9255 0 32 1.07452 32 2.4V29.6C32 30.9255 30.9255 32 29.6 32H2.4C1.07452 32 0 30.9255 0 29.6V2.4Z" fill="url(#paint0_linear_18154_830)"/>
<path d="M24.7846 11.0755C24.7846 11.3696 24.5462 11.6079 24.2522 11.6079L16.331 11.6079C16.1192 11.6079 15.9161 11.692 15.7663 11.8418L11.8419 15.7661C11.6921 15.9159 11.608 16.119 11.608 16.3308L11.608 24.2518C11.608 24.5458 11.3697 24.7842 11.0756 24.7842L7.74821 24.7842C7.45418 24.7842 7.21582 24.5458 7.21582 24.2518L7.21582 14.5115C7.21582 14.2997 7.29996 14.0966 7.44972 13.9468L13.9471 7.44971C14.0969 7.29995 14.3 7.21582 14.5118 7.21582L24.2522 7.21582C24.5462 7.21582 24.7846 7.45417 24.7846 7.7482L24.7846 11.0755Z" fill="white"/>
<path d="M24.7846 16L24.7846 22.8937C24.7846 23.1187 24.6897 23.3332 24.5232 23.4846L23.9794 23.979L23.3299 24.5743C23.1826 24.7093 22.9901 24.7842 22.7903 24.7842L20.9248 24.7842C20.6308 24.7842 20.3924 24.5458 20.3924 24.2518L20.3924 20.3921L16.5326 20.3921C16.2386 20.3921 16.0002 20.1537 16.0002 19.8597L16.0002 17.8737C16.0002 17.6633 16.0833 17.4614 16.2313 17.3118L16.8054 16.732L17.3036 16.2339C17.4533 16.0841 17.6565 16 17.8683 16L24.7846 16Z" fill="white"/>
<defs>
<linearGradient id="paint0_linear_18154_830" x1="-7.53783" y1="-5.85087" x2="28.3007" y2="28.5135" gradientUnits="userSpaceOnUse">
<stop stop-color="#3758F9"/>
<stop offset="1" stop-color="#8AA7FF"/>
</linearGradient>
</defs>
</svg>
