<svg width="95" height="22" viewBox="0 0 95 22" fill="none" xmlns="http://www.w3.org/2000/svg">
<g clip-path="url(#clip0_15608_31464)">
<path d="M9.91699 8.50977C10.5386 8.5099 11.0428 9.01417 11.043 9.63574V11.2344C11.0427 11.8559 10.5385 12.3602 9.91699 12.3604C9.29553 12.3601 8.7913 11.8559 8.79102 11.2344V9.63574C8.79122 9.01427 9.29551 8.51003 9.91699 8.50977Z" fill="#9CA3AF"/>
<path d="M17 8.50977C17.6216 8.50986 18.1258 9.01419 18.126 9.63574V11.2344C18.1257 11.8559 17.6215 12.3602 17 12.3604C16.3783 12.3604 15.8743 11.856 15.874 11.2344V9.63574C15.8742 9.0141 16.3783 8.50977 17 8.50977Z" fill="#9CA3AF"/>
<path fill-rule="evenodd" clip-rule="evenodd" d="M13.3965 0C20.7953 0 26.793 5.31006 26.793 11.8604C26.793 18.4106 20.7953 22 13.3965 22C5.99782 22 8.58723e-06 18.4106 0 11.8604C0 5.31011 5.9978 6.73057e-05 13.3965 0ZM13.458 2.20801C8.12998 2.2083 3.81084 6.03468 3.81055 10.7549C3.81061 15.4752 8.12988 18.0623 13.458 18.0625C16.4587 18.0624 19.1397 17.2416 20.9092 15.6816L22.5752 16.8164C22.7991 16.9689 23.1025 16.809 23.1025 16.5381V10.9863C23.1048 10.9099 23.1064 10.8325 23.1064 10.7549C23.1064 9.19061 22.631 7.72405 21.8027 6.46289C21.427 6.74704 21.1357 7.13578 20.9688 7.58691C20.5273 8.77902 18.841 8.77896 18.3994 7.58691C18.1469 6.90462 17.608 6.36682 16.9258 6.11426C15.7335 5.67283 15.7337 3.98546 16.9258 3.54395C17.2148 3.43693 17.4776 3.27783 17.7041 3.0791C16.4228 2.52184 14.9816 2.20806 13.458 2.20801ZM19.9307 2.45508C19.8456 2.22594 19.5216 2.22595 19.4365 2.45508C19.0719 3.44031 18.2948 4.21746 17.3096 4.58203C17.0803 4.66704 17.0803 4.99111 17.3096 5.07617C18.2948 5.44074 19.0719 6.2179 19.4365 7.20312C19.5215 7.43254 19.8457 7.43255 19.9307 7.20312C20.2952 6.2179 21.0724 5.44074 22.0576 5.07617C22.2868 4.99113 22.2869 4.66702 22.0576 4.58203C21.0724 4.21746 20.2952 3.44031 19.9307 2.45508Z" fill="#9CA3AF"/>
<path d="M38.1527 5.74471C38.2438 5.52873 38.3578 5.33547 38.4946 5.16496C38.6428 4.99444 38.8594 4.90918 39.1443 4.90918C39.4293 4.90918 39.6402 4.99444 39.777 5.16496C39.9138 5.33547 40.0278 5.52873 40.1189 5.74471L44.9748 16.9817H43.1282L41.9656 14.1341H36.3061L35.1434 16.9817H33.2969L38.1527 5.74471ZM41.35 12.5995L39.1443 7.21112L36.9387 12.5995H41.35Z" fill="#9CA3AF"/>
<path d="M58.9779 12.0197C58.9779 11.6446 58.9209 11.3092 58.8069 11.0137C58.6929 10.7181 58.5391 10.468 58.3453 10.2634C58.1629 10.0587 57.9407 9.90529 57.6784 9.80299C57.4277 9.68935 57.1542 9.63249 56.8578 9.63249C56.5386 9.63249 56.2423 9.69499 55.9687 9.82004C55.6951 9.9451 55.4558 10.1156 55.2505 10.3316C55.0454 10.5476 54.8858 10.8034 54.7718 11.0989C54.6578 11.3831 54.6009 11.69 54.6009 12.0197V16.9817H52.9766V8.45591H54.6009V9.47904C54.9314 9.08112 55.3075 8.76851 55.7293 8.54116C56.151 8.30246 56.6298 8.18311 57.1655 8.18311C57.7811 8.18311 58.351 8.33656 58.8753 8.64346C59.3997 8.95042 59.7986 9.35962 60.0722 9.87119C60.9385 8.74582 61.9587 8.18311 63.1327 8.18311C63.6001 8.18311 64.0446 8.27406 64.4663 8.45591C64.8881 8.63782 65.2585 8.89357 65.5778 9.22322C65.8969 9.54154 66.1476 9.92805 66.33 10.3828C66.5124 10.8375 66.6036 11.3433 66.6036 11.9003V16.9817H64.9793V12.0197C64.9793 11.6446 64.9223 11.3092 64.8083 11.0137C64.6943 10.7181 64.5405 10.468 64.3466 10.2634C64.1643 10.0587 63.9421 9.90529 63.6798 9.80299C63.4291 9.68935 63.1555 9.63249 62.8592 9.63249C62.54 9.63249 62.2437 9.69499 61.97 9.82004C61.6965 9.9451 61.4572 10.1156 61.2519 10.3316C61.0468 10.5476 60.8872 10.8034 60.7732 11.0989C60.6592 11.3831 60.6022 11.69 60.6022 12.0197V16.9817H58.9779V12.0197Z" fill="#9CA3AF"/>
<path d="M67.3672 12.7528C67.3672 12.1163 67.4869 11.5195 67.7263 10.9625C67.977 10.4054 68.3133 9.91656 68.735 9.49601C69.1682 9.0754 69.67 8.74574 70.24 8.50698C70.8092 8.26828 71.4197 8.14893 72.0694 8.14893C72.7191 8.14893 73.3289 8.26828 73.8988 8.50698C74.4688 8.74574 74.9645 9.0754 75.3859 9.49601C75.819 9.91656 76.1552 10.4054 76.3952 10.9625C76.6454 11.5195 76.7712 12.1163 76.7712 12.7528C76.7712 13.3895 76.6454 13.9862 76.3952 14.5433C76.1552 15.1003 75.819 15.5891 75.3859 16.0097C74.9645 16.4303 74.4688 16.76 73.8988 16.9987C73.3289 17.2374 72.7191 17.3568 72.0694 17.3568C71.4197 17.3568 70.8092 17.2374 70.24 16.9987C69.67 16.76 69.1682 16.4303 68.735 16.0097C68.3133 15.5891 67.977 15.1003 67.7263 14.5433C67.4869 13.9862 67.3672 13.3895 67.3672 12.7528ZM68.9915 12.7358C68.9915 13.1564 69.0712 13.56 69.2307 13.9465C69.3902 14.333 69.6068 14.674 69.8804 14.9695C70.1657 15.2538 70.4964 15.4811 70.8725 15.6516C71.2595 15.8221 71.67 15.9074 72.1031 15.9074C72.5252 15.9074 72.9185 15.8221 73.2828 15.6516C73.6589 15.4811 73.9841 15.2538 74.2577 14.9695C74.5313 14.674 74.7479 14.333 74.9074 13.9465C75.0669 13.56 75.1467 13.1564 75.1467 12.7358C75.1467 12.3152 75.0669 11.9173 74.9074 11.5422C74.7479 11.1671 74.5313 10.8374 74.2577 10.5532C73.9841 10.2576 73.6589 10.0246 73.2828 9.85406C72.9185 9.68356 72.5252 9.59831 72.1031 9.59831C71.67 9.59831 71.2595 9.68356 70.8725 9.85406C70.4964 10.0246 70.1657 10.2576 69.8804 10.5532C69.6068 10.8374 69.3902 11.1671 69.2307 11.5422C69.0712 11.9173 68.9915 12.3152 68.9915 12.7358Z" fill="#9CA3AF"/>
<g opacity="0.6">
<path d="M77.3672 16.2997C77.3672 16.0155 77.4641 15.7768 77.658 15.5835C77.8636 15.3789 78.1083 15.2766 78.3929 15.2766C78.6782 15.2766 78.9175 15.3789 79.1114 15.5835C79.3162 15.7768 79.4194 16.0155 79.4194 16.2997C79.4194 16.5839 79.3162 16.8226 79.1114 17.0158C78.9175 17.2204 78.6782 17.3227 78.3929 17.3227C78.1083 17.3227 77.8636 17.2204 77.658 17.0158C77.4641 16.8226 77.3672 16.5839 77.3672 16.2997Z" fill="#9CA3AF"/>
<path d="M84.8809 5.74471C84.9716 5.52873 85.0857 5.33547 85.2226 5.16496C85.3711 4.99444 85.5876 4.90918 85.8722 4.90918C86.1576 4.90918 86.3679 4.99444 86.5047 5.16496C86.6416 5.33547 86.7557 5.52873 86.8471 5.74471L91.7029 16.9817H89.8563L88.6937 14.1341H83.0342L81.8717 16.9817H80.0251L84.8809 5.74471ZM88.0777 12.5995L85.8722 7.21112L83.6667 12.5995H88.0777Z" fill="#9CA3AF"/>
<path d="M94.4323 5.04559V16.9817H92.7225V5.04559H94.4323Z" fill="#9CA3AF"/>
</g>
<path fill-rule="evenodd" clip-rule="evenodd" d="M48.1006 14.8612L47.3182 16.7942L43.5195 8.4563H45.2293L48.1006 14.8612Z" fill="#9CA3AF"/>
<path fill-rule="evenodd" clip-rule="evenodd" d="M48.1016 14.861L48.1198 14.9016L49.5613 11.2546L48.1016 14.861Z" fill="#9CA3AF"/>
<path fill-rule="evenodd" clip-rule="evenodd" d="M48.1031 14.8612L47.3207 16.7942L46.7422 18.1745L45.9727 19.9283H46.0521H47.6104L52.2853 8.68125L52.3763 8.4563H50.6956H50.669L49.5628 11.2548L48.1214 14.9018L48.1031 14.8612Z" fill="#9CA3AF"/>
</g>
<defs>
<clipPath id="clip0_15608_31464">
<rect width="94.875" height="22" fill="white"/>
</clipPath>
</defs>
</svg>
