<svg width="80" height="22" viewBox="0 0 80 22" fill="none" xmlns="http://www.w3.org/2000/svg">
<g clip-path="url(#clip0_15597_30859)">
<path d="M31.1184 13.1431C32.0059 13.1431 32.7323 13.4889 33.2163 14.0651C33.2854 14.1688 33.3083 14.2264 33.2392 14.2955L33.0202 14.5029C32.9165 14.6182 32.8242 14.5608 32.7665 14.4917C32.3977 14.0998 31.9254 13.7887 31.1418 13.7886C29.8394 13.7886 28.8598 14.7337 28.8598 16.1051C28.8599 17.4765 29.8393 18.4099 31.153 18.41C31.9367 18.41 32.4095 18.1102 32.7553 17.7299C32.8359 17.6493 32.9282 17.5917 33.0318 17.6953L33.2509 17.9144C33.32 17.9835 33.2967 18.0413 33.2276 18.1334C32.7435 18.7212 32.0176 19.0668 31.1072 19.0668C29.4477 19.0668 28.1797 17.7993 28.1797 16.1051C28.1797 14.411 29.4474 13.1431 31.1184 13.1431Z" fill="currentColor"/>
<path fill-rule="evenodd" clip-rule="evenodd" d="M36.7719 13.1431C38.4085 13.1431 39.6415 14.4225 39.6415 16.1051C39.6415 17.7878 38.4084 19.0668 36.7719 19.0668C35.1354 19.0668 33.8907 17.7878 33.8906 16.1051C33.8906 14.4225 35.1353 13.1431 36.7719 13.1431ZM36.7719 13.7886C35.5042 13.7886 34.5708 14.7567 34.5708 16.1051C34.5708 17.4535 35.5042 18.41 36.7719 18.41C38.0281 18.41 38.973 17.4535 38.9731 16.1051C38.9731 14.7567 38.0282 13.7886 36.7719 13.7886Z" fill="currentColor"/>
<path fill-rule="evenodd" clip-rule="evenodd" d="M61.312 13.1431C62.9829 13.1431 63.9393 14.4338 63.9393 15.8053C63.9393 16.2087 63.8706 16.3471 63.5593 16.3471H59.1571C59.2605 17.5457 60.0673 18.4675 61.5193 18.4675C62.2569 18.4675 62.764 18.2257 63.2018 17.8915C63.248 17.8454 63.3288 17.8454 63.3635 17.8915L63.5246 18.0989C63.6055 18.2026 63.5593 18.2603 63.479 18.3409C62.9719 18.825 62.2453 19.0668 61.4616 19.0668C59.618 19.0668 58.4883 17.7184 58.4883 16.0818C58.4883 14.4223 59.6411 13.1431 61.312 13.1431ZM61.3004 13.7653C60.102 13.7653 59.272 14.5607 59.1681 15.7824H63.3288C63.2942 14.6068 62.522 13.7654 61.3004 13.7653Z" fill="currentColor"/>
<path d="M70.9816 13.1431C71.8693 13.1431 72.5953 13.4889 73.0793 14.0651C73.1486 14.1688 73.1717 14.2264 73.1024 14.2955L72.8835 14.5029C72.7796 14.6181 72.6877 14.5607 72.63 14.4917C72.2609 14.0998 71.7885 13.7886 71.0047 13.7886C69.7023 13.7887 68.7228 14.7337 68.7228 16.1051C68.7228 17.4766 69.7023 18.41 71.0163 18.41C71.8 18.41 72.2725 18.1102 72.6184 17.7299C72.6987 17.6493 72.7911 17.5919 72.8945 17.6953L73.114 17.9144C73.1827 17.9836 73.1602 18.0413 73.0909 18.1334C72.6069 18.7212 71.8809 19.0668 70.9701 19.0668C69.3107 19.0668 68.043 17.7993 68.043 16.1051C68.043 14.4109 69.3107 13.1431 70.9816 13.1431Z" fill="currentColor"/>
<path fill-rule="evenodd" clip-rule="evenodd" d="M76.5771 13.1431C78.2485 13.1431 79.205 14.4338 79.205 15.8053C79.205 16.2087 79.1357 16.3471 78.8249 16.3471H74.4222C74.5261 17.5457 75.3324 18.4675 76.785 18.4675C77.5225 18.4675 78.0296 18.2257 78.4674 17.8915C78.5136 17.8454 78.5945 17.8454 78.6291 17.8915L78.7903 18.0989C78.8706 18.2026 78.8249 18.2603 78.7441 18.3409C78.237 18.825 77.511 19.0668 76.7272 19.0668C74.8831 19.0668 73.7539 17.7184 73.7539 16.0818C73.7539 14.4223 74.9062 13.1431 76.5771 13.1431ZM76.5661 13.7653C75.3676 13.7653 74.5371 14.5607 74.4337 15.7824H78.5945C78.5598 14.6068 77.7876 13.7654 76.5661 13.7653Z" fill="currentColor"/>
<path d="M46.5209 13.1431C47.6734 13.1431 48.3651 13.8806 48.3651 15.3788V18.7674C48.3651 18.871 48.3304 18.9285 48.2268 18.9286H47.8233C47.7196 18.9286 47.6734 18.8711 47.6734 18.7674V15.425C47.6734 14.3878 47.2585 13.7887 46.3943 13.7886C45.5183 13.7886 44.9191 14.4108 44.9191 15.425V18.7674C44.9191 18.871 44.8844 18.9285 44.7808 18.9286H44.3655C44.2735 18.9285 44.2273 18.871 44.2273 18.7674V15.425C44.2273 14.3878 43.7432 13.7886 42.8903 13.7886C42.003 13.7887 41.473 14.4109 41.473 15.425V18.7674C41.473 18.871 41.4268 18.9285 41.3231 18.9286H40.9195C40.8159 18.9285 40.7812 18.871 40.7812 18.7674V13.4425C40.7812 13.339 40.816 13.2814 40.9195 13.2813H41.2769C41.4036 13.2813 41.4384 13.3274 41.4384 13.4541L41.4613 14.111C41.7264 13.5809 42.222 13.1431 43.0632 13.1431C43.8584 13.1431 44.4579 13.5119 44.7345 14.2726C45.0227 13.6502 45.5413 13.1431 46.5209 13.1431Z" fill="currentColor"/>
<path d="M55.517 13.1431C56.6698 13.1431 57.3611 13.8806 57.3611 15.3788V18.7674C57.3611 18.8711 57.3265 18.9286 57.2225 18.9286H56.8194C56.7154 18.9286 56.6692 18.8711 56.6692 18.7674V15.425C56.6692 14.3878 56.2545 13.7887 55.3905 13.7886C54.5145 13.7886 53.9152 14.4108 53.9152 15.425V18.7674C53.9152 18.871 53.8805 18.9285 53.7769 18.9286H53.3617C53.2696 18.9285 53.2234 18.871 53.2234 18.7674V15.425C53.2234 14.3878 52.7393 13.7886 51.8865 13.7886C50.9991 13.7887 50.4691 14.4109 50.4691 15.425V18.7674C50.4691 18.871 50.4229 18.9286 50.3192 18.9286H49.9156C49.812 18.9285 49.7773 18.871 49.7773 18.7674V13.4425C49.7774 13.339 49.8121 13.2814 49.9156 13.2813H50.273C50.3997 13.2813 50.4346 13.3274 50.4346 13.4541L50.4575 14.111C50.7226 13.5809 51.2182 13.1431 52.0593 13.1431C52.8545 13.1431 53.4541 13.5119 53.7307 14.2726C54.0188 13.6502 54.5374 13.1431 55.517 13.1431Z" fill="currentColor"/>
<path d="M67.0568 13.1431C67.2872 13.1431 67.4715 13.1776 67.5755 13.2467C67.6442 13.2928 67.6673 13.3389 67.6673 13.4425V13.7424C67.6673 13.8691 67.587 13.8806 67.4715 13.8461C67.3103 13.8 67.1718 13.7886 67.0678 13.7886C66.008 13.7887 65.7544 14.7566 65.7544 15.3559V18.7674C65.7544 18.871 65.7082 18.9285 65.6043 18.9286H65.2011C65.0971 18.9285 65.0625 18.871 65.0625 18.7674V13.4425C65.0625 13.339 65.0971 13.2814 65.2011 13.2813H65.5581C65.6851 13.2813 65.7197 13.3274 65.7197 13.4541L65.7428 14.0764C65.9617 13.5579 66.3539 13.1431 67.0568 13.1431Z" fill="currentColor"/>
<path d="M32.2861 11.2428C29.9466 11.2428 28.1602 9.44481 28.1602 7.09367C28.1602 4.74256 29.9466 2.93311 32.2861 2.93311C33.4272 2.93311 34.3492 3.35954 35.0638 4.03952C35.1444 4.1202 35.1559 4.20088 35.0753 4.29307L34.4875 4.92696C34.4183 5.00764 34.3376 5.00764 34.2455 4.93849C33.7153 4.47748 33.0814 4.20088 32.2977 4.20088C30.6842 4.20088 29.4625 5.42254 29.4625 7.09367C29.4625 8.76485 30.6842 9.97496 32.2977 9.97496C33.0814 9.97496 33.7153 9.69836 34.2455 9.23735C34.3376 9.15672 34.4183 9.16822 34.4875 9.23735L35.0753 9.88278C35.1674 9.96346 35.1444 10.0441 35.0638 10.1248C34.3492 10.8163 33.4272 11.2428 32.2861 11.2428Z" fill="currentColor"/>
<path d="M38.3805 11.2315C36.6978 11.2315 35.4531 9.94075 35.4531 8.26957C35.4531 6.59845 36.6978 5.30762 38.3805 5.30762C40.0517 5.30762 41.2964 6.59845 41.2964 8.26957C41.2964 9.94075 40.0517 11.2315 38.3805 11.2315ZM36.6517 8.26957C36.6517 9.35296 37.4009 10.079 38.3805 10.079C39.3486 10.079 40.0978 9.35296 40.0978 8.26957C40.0978 7.18624 39.3486 6.46013 38.3805 6.46013C37.4009 6.46013 36.6517 7.18624 36.6517 8.26957Z" fill="currentColor"/>
<path d="M41.9582 11.0932C41.8545 11.0932 41.7969 11.024 41.7969 10.9202V10.1826C41.7969 10.102 41.8199 10.0328 41.8776 9.97517L44.7819 6.47156H41.9928C41.8891 6.47156 41.8315 6.41392 41.8315 6.31019V5.61867C41.8315 5.51494 41.8891 5.4458 41.9928 5.4458H46.0035C46.1073 5.4458 46.1764 5.51494 46.1764 5.61867V6.35628C46.1764 6.43696 46.1419 6.5061 46.0958 6.56374L43.1799 10.0674H46.0151C46.1188 10.0674 46.188 10.125 46.188 10.2288V10.9202C46.188 11.024 46.1188 11.0932 46.0151 11.0932H41.9582Z" fill="currentColor"/>
<path d="M48.2484 13.2829C48.1216 13.2829 48.064 13.2138 48.1216 13.0985L48.9284 11.1046L46.7501 5.64172C46.7041 5.51494 46.7616 5.4458 46.8884 5.4458H47.822C47.9142 5.4458 47.9834 5.4919 48.0179 5.58408L49.5392 9.66403L51.0721 5.58408C51.1066 5.4919 51.1758 5.4458 51.268 5.4458H52.2015C52.3283 5.4458 52.3744 5.51494 52.3283 5.64172L49.3548 13.1446C49.3202 13.2368 49.2396 13.2829 49.1474 13.2829H48.2484Z" fill="currentColor"/>
<path fill-rule="evenodd" clip-rule="evenodd" d="M0.6897 3.97636C0 5.41376 0 7.27584 0 11C0 14.7242 0 16.5862 0.6897 18.0237C1.37947 19.4612 2.53882 20.6205 3.97636 21.3103C5.41376 22 7.27584 22 11 22C14.7242 22 16.5862 22 18.0237 21.3103C19.4612 20.6205 20.6205 19.4612 21.3103 18.0237C22 16.5862 22 14.7242 22 11C22 7.27584 22 5.41376 21.3103 3.97636C20.6205 2.53882 19.4612 1.37947 18.0237 0.6897C16.5862 0 14.7242 0 11 0C7.27584 0 5.41376 0 3.97636 0.6897C2.53882 1.37947 1.37947 2.53882 0.6897 3.97636ZM15.0731 9.7284H8.44476V7.35064C8.44476 7.08802 8.23185 6.87511 7.96923 6.87511H4.29C4.20706 6.87511 4.13982 6.94232 4.13982 7.02526V7.67602C4.13982 7.75896 4.20706 7.82623 4.29 7.82623H7.4937V13.0572C7.4937 13.3198 7.7066 13.5328 7.96923 13.5328H14.7311C14.9494 13.5328 15.1396 13.3843 15.1925 13.1726L16.3814 8.41709C16.3908 8.37936 16.3956 8.34064 16.3956 8.30175C16.3956 8.03913 16.1826 7.82623 15.92 7.82623H9.71355C9.63061 7.82623 9.56334 7.89344 9.56334 7.97638V8.62714C9.56334 8.71008 9.63061 8.77729 9.71355 8.77729H15.311L15.0731 9.7284ZM7.4937 15.435C7.4937 15.9602 7.91951 16.386 8.44476 16.386C8.97006 16.386 9.39587 15.9602 9.39587 15.435C9.39587 14.9097 8.97006 14.4839 8.44476 14.4839C7.91951 14.4839 7.4937 14.9097 7.4937 15.435ZM13.2003 15.435C13.2003 15.9602 13.6261 16.386 14.1513 16.386C14.6766 16.386 15.1025 15.9602 15.1025 15.435C15.1025 14.9097 14.6766 14.4839 14.1513 14.4839C13.6261 14.4839 13.2003 14.9097 13.2003 15.435Z" fill="currentColor"/>
</g>
<defs>
<clipPath id="clip0_15597_30859">
<rect width="79.2" height="22" fill="white"/>
</clipPath>
</defs>
</svg>
