<svg width="113" height="22" viewBox="0 0 113 22" fill="none" xmlns="http://www.w3.org/2000/svg">
<g clip-path="url(#clip0_15398_26497)">
<path d="M31.457 17.9868C31.457 18.6269 31.975 19.1458 32.614 19.1458C33.253 19.1458 33.771 18.6269 33.771 17.9868V5.92552C33.771 5.28547 33.253 4.7666 32.614 4.7666C31.975 4.7666 31.457 5.28547 31.457 5.92552V17.9868Z" fill="#F3F4F6"/>
<path d="M38.2281 17.9858C38.2281 18.6259 37.7101 19.1448 37.0712 19.1448C36.4322 19.1448 35.9141 18.6259 35.9141 17.9858V9.57298C35.9141 8.93293 36.4322 8.41406 37.0712 8.41406C37.7101 8.41406 38.2281 8.93293 38.2281 9.57298V17.9858Z" fill="#F3F4F6"/>
<path d="M63.7617 17.9858C63.7617 18.6259 64.2797 19.1448 64.9187 19.1448C65.5577 19.1448 66.0758 18.6259 66.0758 17.9858V9.57298C66.0758 8.93293 65.5577 8.41406 64.9187 8.41406C64.2797 8.41406 63.7617 8.93293 63.7617 9.57298V17.9858Z" fill="#F3F4F6"/>
<path d="M72.8745 19.3807C71.7603 19.3807 70.8176 19.1446 70.0462 18.6725C69.2748 18.2003 68.6821 17.5493 68.2679 16.7195C67.8679 15.8896 67.668 14.9238 67.668 13.8222C67.668 12.7205 67.8751 11.7547 68.2892 10.9249C68.7178 10.0807 69.3249 9.42974 70.1105 8.9719C70.8961 8.49974 71.846 8.26367 72.9602 8.26367C73.9029 8.26367 74.7314 8.44251 75.4455 8.80021C76.1598 9.1579 76.7096 9.65866 77.0954 10.3025C77.3499 10.7123 77.506 11.1514 77.595 11.6071C77.7164 12.2295 77.1821 12.7491 76.549 12.7491C75.9159 12.7491 75.4576 12.2146 75.2444 11.6176C75.1478 11.3469 74.9957 11.1002 74.7599 10.9034C74.3457 10.5314 73.6957 10.3454 72.8101 10.3454C71.7817 10.3454 71.0461 10.6387 70.6033 11.2253C70.1748 11.7976 69.9605 12.6561 69.9605 13.8007C69.9605 14.9597 70.1748 15.8324 70.6033 16.4191C71.0461 16.9913 71.7817 17.2775 72.8101 17.2775C73.6957 17.2775 74.3457 17.0986 74.7599 16.7409C74.991 16.5404 75.1424 16.2945 75.2397 16.0259C75.4557 15.4299 75.9159 14.8952 76.549 14.8952C77.1821 14.8952 77.7157 15.4152 77.5893 16.0366C77.4982 16.4837 77.342 16.9145 77.0954 17.3204C76.6954 17.9642 76.1312 18.4722 75.4027 18.8441C74.6885 19.2018 73.8458 19.3807 72.8745 19.3807Z" fill="#F3F4F6"/>
<path fill-rule="evenodd" clip-rule="evenodd" d="M81.5987 18.6725C82.3985 19.1303 83.3413 19.3593 84.4269 19.3593C85.5125 19.3593 86.4409 19.1303 87.2123 18.6725C87.9979 18.2003 88.5978 17.5493 89.0121 16.7195C89.4406 15.8753 89.6548 14.9024 89.6548 13.8007C89.6548 12.6991 89.4406 11.7333 89.0121 10.9034C88.5978 10.0736 87.9979 9.42974 87.2123 8.9719C86.4409 8.49974 85.5125 8.26367 84.4269 8.26367C83.3413 8.26367 82.3985 8.49974 81.5987 8.9719C80.7988 9.42974 80.1846 10.0736 79.756 10.9034C79.3276 11.7333 79.1133 12.6991 79.1133 13.8007C79.1133 14.9024 79.3276 15.8753 79.756 16.7195C80.1846 17.5493 80.7988 18.2003 81.5987 18.6725ZM86.7623 16.462C86.3195 17.02 85.541 17.299 84.4269 17.299C83.2984 17.299 82.5128 17.02 82.0701 16.462C81.6272 15.8896 81.4059 15.0026 81.4059 13.8007C81.4059 12.5989 81.6272 11.719 82.0701 11.161C82.5128 10.603 83.2984 10.324 84.4269 10.324C85.541 10.324 86.3195 10.603 86.7623 11.161C87.2051 11.719 87.4265 12.5989 87.4265 13.8007C87.4265 15.0026 87.2051 15.8896 86.7623 16.462Z" fill="#F3F4F6"/>
<path d="M101.307 17.9857C101.307 18.6258 100.789 19.1446 100.15 19.1446C99.511 19.1446 98.993 18.6258 98.993 17.9857V12.9423C98.993 11.9979 98.8144 11.3184 98.4573 10.9034C98.1002 10.4742 97.4289 10.2596 96.4433 10.2596C95.8148 10.2596 95.3005 10.3526 94.9006 10.5386C94.5006 10.7103 94.2007 10.9964 94.0008 11.397C93.8008 11.7833 93.7008 12.3128 93.7008 12.9852V17.9857C93.7008 18.6258 93.1828 19.1446 92.5437 19.1446C91.9047 19.1446 91.3867 18.6258 91.3867 17.9857V9.54063C91.3867 8.95391 91.8616 8.47828 92.4473 8.47828C93.0331 8.47828 93.508 8.95391 93.508 9.54063V10.4742H93.6151C93.7722 10.0879 94.0078 9.7302 94.3221 9.40113C94.6363 9.07205 95.0363 8.80021 95.5219 8.58559C96.0219 8.37098 96.6147 8.26367 97.3003 8.26367C98.2287 8.26367 98.9858 8.44251 99.5715 8.80021C100.157 9.1579 100.593 9.65151 100.878 10.281C101.164 10.9106 101.307 11.6331 101.307 12.4486V17.9857Z" fill="#F3F4F6"/>
<path d="M107.934 19.3593C106.377 19.3593 105.199 19.0516 104.399 18.4364C103.8 17.9651 103.468 17.3129 103.312 16.6043C103.18 16.0024 103.698 15.4962 104.313 15.4962C104.929 15.4962 105.328 16.0224 105.544 16.5995C105.57 16.6696 105.602 16.7384 105.642 16.8053C105.799 17.0343 106.056 17.2059 106.413 17.3204C106.784 17.4205 107.306 17.4707 107.977 17.4707C108.549 17.4707 108.977 17.4278 109.263 17.3419C109.563 17.2418 109.763 17.1058 109.863 16.9341C109.963 16.7624 110.012 16.5478 110.012 16.2903C110.012 15.861 109.863 15.5605 109.563 15.3889C109.263 15.2029 108.727 15.0383 107.956 14.8952L106.285 14.6163C105.656 14.4875 105.106 14.3086 104.635 14.0797C104.178 13.8365 103.82 13.5074 103.563 13.0924C103.321 12.6632 103.199 12.1268 103.199 11.4829C103.199 10.5243 103.578 9.75166 104.335 9.16505C105.092 8.56413 106.163 8.26367 107.549 8.26367C108.391 8.26367 109.141 8.39959 109.798 8.67143C110.456 8.94329 110.977 9.35104 111.362 9.89474C111.61 10.2435 111.757 10.6272 111.842 11.028C111.967 11.6253 111.447 12.1268 110.837 12.1268C110.228 12.1268 109.824 11.6014 109.585 11.0396C109.578 11.0228 109.571 11.006 109.563 10.9893C109.448 10.7317 109.234 10.5314 108.92 10.3884C108.606 10.2453 108.127 10.1737 107.484 10.1737C106.642 10.1737 106.085 10.281 105.813 10.4957C105.542 10.7103 105.406 11.025 105.406 11.4399C105.406 11.8548 105.527 12.1482 105.77 12.3199C106.027 12.4772 106.527 12.6346 107.27 12.792L109.091 13.1355C109.777 13.2642 110.348 13.4573 110.806 13.7149C111.262 13.9724 111.605 14.3086 111.834 14.7235C112.077 15.1384 112.198 15.6321 112.198 16.2045C112.198 17.2059 111.82 17.9857 111.063 18.5437C110.319 19.0874 109.277 19.3593 107.934 19.3593Z" fill="#F3F4F6"/>
<path fill-rule="evenodd" clip-rule="evenodd" d="M57.1831 19.3593C56.0262 19.3593 55.062 19.1303 54.2907 18.6725C53.5194 18.2003 52.9479 17.5493 52.5766 16.7195C52.2052 15.8753 52.0195 14.9024 52.0195 13.8007C52.0195 12.6991 52.2267 11.7333 52.6409 10.9034C53.0694 10.0736 53.6693 9.42974 54.4406 8.9719C55.212 8.49974 56.1262 8.26367 57.1831 8.26367C58.1401 8.26367 58.983 8.44967 59.7114 8.82167C60.4542 9.17936 61.0256 9.70158 61.4255 10.3884C61.8398 11.0752 62.0469 11.905 62.0469 12.8778C62.0469 13.0684 62.0428 13.2615 62.0332 13.455C62.007 13.9789 61.5559 14.3588 61.0322 14.3588H54.1905C54.2139 14.9274 54.2974 15.4209 54.4406 15.8396C54.6263 16.326 54.9406 16.6909 55.3834 16.9341C55.8262 17.1773 56.4333 17.299 57.2046 17.299C58.1045 17.299 58.7401 17.1558 59.1116 16.8697C59.2041 16.7985 59.2825 16.7213 59.3486 16.6392C59.7462 16.1456 60.1818 15.5605 60.8149 15.5605C61.448 15.5605 61.9915 16.0855 61.8239 16.697C61.7307 17.0376 61.583 17.3622 61.3613 17.6638C60.9613 18.1931 60.4042 18.6081 59.69 18.9086C58.9901 19.209 58.1544 19.3593 57.1831 19.3593ZM54.805 11.0537C54.4722 11.5018 54.2731 12.0885 54.2077 12.8135H59.8328C59.8582 12.2524 59.7821 11.7874 59.6044 11.4185C59.4186 11.0035 59.1116 10.696 58.683 10.4957C58.2687 10.2954 57.7473 10.1952 57.1189 10.1952C55.9904 10.1952 55.2191 10.4813 54.805 11.0537Z" fill="#F3F4F6"/>
<path d="M47.9577 17.9867C47.9577 18.6267 48.4757 19.1456 49.1147 19.1456C49.7537 19.1456 50.2718 18.6267 50.2718 17.9867V12.4496C50.2718 11.634 50.1289 10.9116 49.8432 10.282C49.5576 9.65249 49.1219 9.15887 48.5362 8.80119C47.9506 8.44349 47.1936 8.26465 46.2651 8.26465C45.5794 8.26465 44.9867 8.37195 44.4868 8.58656C44.0011 8.80118 43.6012 9.07303 43.2869 9.4021C42.9726 9.73118 42.7369 10.0889 42.5798 10.4752H42.4727V9.54161C42.4727 8.95489 41.9978 8.47926 41.4121 8.47926C40.8264 8.47926 40.3516 8.95489 40.3516 9.54159V17.9867C40.3516 18.6267 40.8696 19.1456 41.5085 19.1456C42.1475 19.1456 42.6655 18.6267 42.6655 17.9867V12.9862C42.6655 12.3137 42.7655 11.7843 42.9655 11.398C43.1655 10.9974 43.4654 10.7112 43.8654 10.5396C44.2654 10.3536 44.7796 10.2606 45.408 10.2606C46.3936 10.2606 47.065 10.4752 47.4221 10.9044C47.7792 11.3193 47.9577 11.9989 47.9577 12.9433V17.9867Z" fill="#F3F4F6"/>
<path d="M38.401 5.97837C38.401 6.72333 37.798 7.32724 37.0543 7.32724C36.3154 7.32724 35.7145 6.73078 35.7077 5.99063L35.7071 5.92782C35.7004 5.17794 36.3054 4.56641 37.054 4.56641C37.7979 4.56641 38.401 5.17044 38.401 5.91556V5.97837Z" fill="#F3F4F6"/>
<path d="M66.2407 5.97837C66.2407 6.72333 65.6378 7.32724 64.8941 7.32724C64.1551 7.32724 63.5542 6.73078 63.5475 5.99063L63.5469 5.92782C63.5401 5.17794 64.1451 4.56641 64.8938 4.56641C65.6377 4.56641 66.2407 5.17044 66.2407 5.91556V5.97837Z" fill="#F3F4F6"/>
<path d="M6.49223 5.74205C6.2244 5.47377 5.82803 5.35574 5.45307 5.45231C5.07812 5.53816 4.77816 5.81716 4.66031 6.19273L0.0537315 20.5612C-0.0748243 20.9582 0.0323055 21.3875 0.321556 21.6771C0.535815 21.8917 0.814353 21.9991 1.10361 21.9991C1.21074 21.9991 1.32858 21.9776 1.43571 21.9454L15.791 17.3312C16.1554 17.2132 16.4339 16.9127 16.5302 16.5372C16.6267 16.1616 16.5089 15.7645 16.2411 15.4962L6.49223 5.74205ZM2.80697 19.1984L6.20298 8.58568L13.4021 15.7967L2.80697 19.1984Z" fill="#F3F4F6"/>
<path d="M12.4031 8.12541C12.478 8.6834 12.9494 9.09116 13.4957 9.09116C13.9763 9.09116 14.4661 8.982 14.942 8.91947C16.324 8.73705 17.3738 7.54594 17.3631 6.15095V5.80756C17.3631 5.6466 17.4274 5.50711 17.5346 5.39979C17.6417 5.29249 17.7916 5.22811 17.9417 5.22811H19.7628C20.3734 5.22811 20.8662 4.73449 20.8662 4.12284C20.8662 3.51119 20.3734 3.01758 19.7628 3.01758H17.9417C17.2025 3.01758 16.5061 3.30731 15.9811 3.83311C15.4562 4.35892 15.1669 5.06714 15.1669 5.80756V6.15095C15.1669 6.44068 14.9527 6.68749 14.6634 6.71967L13.3564 6.89137C12.7565 6.96648 12.328 7.52448 12.4031 8.12541Z" fill="#F3F4F6"/>
<path d="M23.1962 9.6704C20.4108 7.535 17.4005 9.4236 16.1899 10.722C15.7721 11.162 15.8043 11.8595 16.2435 12.278C16.6891 12.702 17.3842 12.669 17.7968 12.2351C17.8826 12.1385 19.9716 9.97087 21.8571 11.4195C22.3391 11.7951 23.0354 11.6985 23.3998 11.2156C23.7746 10.7328 23.6783 10.0353 23.1962 9.6704Z" fill="#F3F4F6"/>
<path d="M11.1298 5.80738C12.3617 4.86308 13.6045 2.65255 11.9868 0.452752C11.6225 -0.0408612 10.9369 -0.148169 10.4441 0.216676C9.95134 0.581521 9.84422 1.26829 10.2085 1.7619C11.0548 2.91008 10.0906 3.8222 9.77994 4.06901C9.29786 4.44458 9.21216 5.13135 9.5764 5.61423C9.95328 6.10499 10.646 6.16447 11.1298 5.80738Z" fill="#F3F4F6"/>
</g>
<defs>
<clipPath id="clip0_15398_26497">
<rect width="112.2" height="22" fill="white"/>
</clipPath>
</defs>
</svg>
