<svg width="77" height="22" viewBox="0 0 77 22" fill="none" xmlns="http://www.w3.org/2000/svg">
<path fill-rule="evenodd" clip-rule="evenodd" d="M51.7984 7.06253C52.7017 7.06253 53.4972 7.27139 54.1847 7.68931C54.8857 8.1072 55.4316 8.68023 55.8226 9.40816C56.227 10.1361 56.4292 10.9654 56.4292 11.8956C56.4291 12.0574 56.4157 12.2258 56.3888 12.401C56.3753 12.5628 56.3482 12.7449 56.3078 12.9471H49.0672C49.1277 13.1999 49.2155 13.4359 49.3314 13.6548C49.5741 14.1132 49.9179 14.4704 50.3627 14.7265C50.8076 14.9691 51.3199 15.0906 51.8996 15.0906C52.3984 15.0906 52.8567 15.0029 53.2746 14.8277C53.7059 14.6524 54.0701 14.3961 54.3666 14.0591L55.7822 15.4948C55.3104 16.0475 54.7374 16.4655 54.0633 16.7486C53.3893 17.0317 52.6747 17.1733 51.9198 17.1733C50.9492 17.1733 50.0729 16.9577 49.2911 16.5263C48.5227 16.0815 47.9092 15.4747 47.4508 14.7063C47.006 13.9379 46.7837 13.0751 46.7837 12.1179C46.7837 11.1608 47.006 10.3047 47.4508 9.54972C47.8957 8.78132 48.4958 8.1748 49.2507 7.72994C50.0191 7.28509 50.8683 7.06253 51.7984 7.06253ZM51.7581 9.10487C51.1919 9.10487 50.6999 9.22633 50.282 9.46898C49.864 9.71164 49.5404 10.0554 49.3113 10.5002C49.2095 10.6919 49.1306 10.9008 49.074 11.127H54.2398C54.1815 10.8413 54.0956 10.5852 53.9823 10.3587C53.7801 9.95426 53.4903 9.64404 53.1128 9.42835C52.7489 9.2127 52.2972 9.10487 51.7581 9.10487Z" fill="#9CA3AF"/>
<path d="M70.1666 12.8055C70.1666 13.2773 70.2407 13.6817 70.3889 14.0187C70.5507 14.3422 70.7799 14.5916 71.0765 14.7668C71.3866 14.9421 71.7505 15.0298 72.1683 15.0298C72.8154 15.0298 73.3077 14.841 73.6447 14.4636C73.9952 14.0726 74.1703 13.5199 74.1703 12.8055V7.2649H76.3948V12.9067C76.3948 13.7559 76.2128 14.5041 75.8488 15.1511C75.4983 15.7847 75.0062 16.2835 74.3727 16.6474C73.7391 16.998 73.0042 17.1733 72.1683 17.1733C71.346 17.1733 70.6113 16.9912 69.9643 16.6273C69.3307 16.2633 68.8319 15.7645 68.468 15.131C68.1175 14.4839 67.9421 13.7425 67.9421 12.9067V7.2649H70.1666V12.8055Z" fill="#9CA3AF"/>
<path d="M32.3091 2.8161L37.6678 11.6366L43.0264 2.8161H44.6441V16.9712H42.3187V7.90636L38.4767 14.2211H36.859L33.0169 7.90636V16.9712H30.6914V2.8161H32.3091Z" fill="#9CA3AF"/>
<path d="M60.4368 11.8285L64.3597 7.2649H67.0086L62.9187 11.9184L67.211 16.9712H64.3799L60.4368 12.2118V16.9712H58.2122V2.41162H60.4368V11.8285Z" fill="#9CA3AF"/>
<path d="M0 4.51459H19.6692L19.6692 2.52905C19.6692 1.13229 18.5369 0 17.1401 0H2.52911C1.13232 0 0 1.1323 0 2.52905V4.51459Z" fill="#9CA3AF"/>
<path d="M0 17.1414C0 18.5381 1.13232 19.6704 2.52911 19.6704H12.2907C11.5864 18.7694 10.4815 18.1845 9.22849 18.1831L7.57197 18.1813L7.57196 13.2707L9.22849 13.2689C11.3801 13.2665 13.0949 11.5436 13.0949 9.45391V7.79559H18.0256V9.45391C18.0256 10.737 18.6721 11.8818 19.6692 12.575L19.6692 6.20055L0 6.20062V17.1414Z" fill="#9CA3AF"/>
<path opacity="0.8" d="M14.7534 9.45581C14.7534 12.4766 12.2813 14.9258 9.23047 14.9291L9.23047 16.5267C12.2813 16.5301 14.7534 18.9793 14.7534 22H16.3674C16.3674 18.9793 18.8395 16.5301 21.8904 16.5267L21.8904 14.9291C18.8395 14.9258 16.3674 12.4766 16.3674 9.45581H14.7534Z" fill="#9CA3AF"/>
</svg>
