<svg width="80" height="22" viewBox="0 0 80 22" fill="none" xmlns="http://www.w3.org/2000/svg">
<g clip-path="url(#clip0_15398_26535)">
<path d="M68.6133 12.4817C68.6133 12.1682 68.8859 11.9092 69.1994 11.9092C69.5129 11.9092 69.7719 12.1682 69.7719 12.4817C69.7719 12.7952 69.4992 13.0542 69.1994 13.0542C68.8995 13.0542 68.6133 12.7952 68.6133 12.4817Z" fill="#9CA3AF"/>
<path d="M70.576 11.0232H71.3531V11.3094C71.3531 11.882 71.6666 12.3045 72.3209 12.3045C72.9751 12.3045 73.275 11.8956 73.275 11.2821V7.05664H74.0656V11.3094C74.0656 12.3727 73.3567 13.0269 72.3072 13.0269C71.1895 13.0269 70.5625 12.3181 70.5625 11.2958V11.0095L70.576 11.0232Z" fill="#9CA3AF"/>
<path d="M77.0776 6.97461C78.1953 6.97461 78.9178 7.60162 78.986 8.62393H78.1818C78.1409 8.0378 77.7319 7.69703 77.064 7.69703C76.328 7.69703 75.8509 8.06506 75.8509 8.65119C75.8509 9.12827 76.1235 9.40088 76.6687 9.53718L77.6365 9.76891C78.5907 9.987 79.0814 10.505 79.0814 11.3364C79.0814 12.3996 78.2635 13.0675 77.0095 13.0675C75.7554 13.0675 75.0194 12.4405 74.9648 11.4318H75.7827C75.7963 11.9907 76.2734 12.3451 77.0095 12.3451C77.7864 12.3451 78.2908 11.9771 78.2908 11.391C78.2908 10.9275 78.0454 10.6413 77.473 10.505L76.5052 10.2869C75.551 10.0688 75.0467 9.50992 75.0467 8.66481C75.0467 7.65615 75.8645 6.97461 77.0776 6.97461Z" fill="#9CA3AF"/>
<path d="M37.389 1.09961V9.56429L31.7867 1.09961H29.7148V13.0537H31.7731V4.57545L37.389 13.0537H39.4472V1.09961H37.389Z" fill="#9CA3AF"/>
<path d="M48.417 1.09961V3.02155H43.0874V6.10208H47.8582V7.94224H43.0874V11.1182H48.417V13.0537H40.9883V1.09961H48.417Z" fill="#9CA3AF"/>
<path d="M61.8007 1.09961L60.4922 3.02155H64.2815V13.0537H66.3806V3.02155H69.0523L70.3472 1.09961H61.8007Z" fill="#9CA3AF"/>
<path d="M52.8986 8.33813L54.1799 10.2192L52.2443 13.0544H49.6953L52.8986 8.33813Z" fill="#9CA3AF"/>
<path d="M60.4092 13.0538H57.8466L55.0523 8.93728L53.771 7.05624L49.7227 1.09961H52.2717L55.0523 5.1752L57.8193 1.09961H60.3683L57.6694 5.06616L56.32 7.05624L60.4092 13.0538Z" fill="#9CA3AF"/>
<path d="M29.7148 14.6416H33.2861V15.105H31.7459V19.6168H31.2415V15.105H29.7148V14.6416Z" fill="#9CA3AF"/>
<path d="M33.1211 17.9263C33.1211 16.8768 33.7754 16.1543 34.7432 16.1543C35.7109 16.1543 36.2698 16.7949 36.2698 17.7491V17.9808H33.5845C33.6254 18.7987 34.048 19.2758 34.7704 19.2758C35.3156 19.2758 35.67 19.044 35.8063 18.5942H36.2698C36.0926 19.303 35.561 19.6846 34.7704 19.6846C33.7754 19.6846 33.1211 18.9759 33.1211 17.9263ZM33.5982 17.6401H35.7927C35.7927 16.9994 35.3702 16.5633 34.7432 16.5633C34.1162 16.5633 33.6935 16.9858 33.6118 17.6401H33.5982Z" fill="#9CA3AF"/>
<path d="M37.0352 19.6165V16.2498H37.4577L37.5122 16.7268C37.6758 16.3724 38.0574 16.1543 38.5346 16.1543C39.0661 16.1543 39.4614 16.427 39.625 16.8768C39.7749 16.4405 40.1838 16.1543 40.7291 16.1543C41.4651 16.1543 41.9421 16.6314 41.9421 17.4083V19.6165H41.4787V17.5174C41.4787 16.9449 41.1516 16.6041 40.6472 16.6041C40.0884 16.6041 39.7476 17.0267 39.7476 17.5447V19.6165H39.2706V17.5038C39.2706 16.9312 38.9434 16.6041 38.4391 16.6041C37.8803 16.6041 37.5395 17.0267 37.5395 17.5311V19.6165H37.0352Z" fill="#9CA3AF"/>
<path d="M42.8945 16.2498H43.3172L43.3717 16.9312C43.6034 16.4133 44.0804 16.1543 44.653 16.1543C45.6344 16.1543 46.2069 16.9041 46.2069 17.9126C46.2069 18.9213 45.6479 19.6846 44.653 19.6846C44.0804 19.6846 43.6307 19.4393 43.3989 18.9486V21.0614H42.9218V16.2361L42.8945 16.2498ZM44.5575 19.2621C45.2936 19.2621 45.7161 18.7032 45.7161 17.9263C45.7161 17.1494 45.2936 16.5906 44.5575 16.5906C43.8215 16.5906 43.3852 17.1494 43.3852 17.9263C43.3852 18.7032 43.8215 19.2621 44.5575 19.2621Z" fill="#9CA3AF"/>
<path d="M46.9844 19.6166V14.8867L47.4614 14.5459V19.6029H46.9844V19.6166Z" fill="#9CA3AF"/>
<path d="M48.3086 18.7032C48.3086 18.0899 48.7857 17.6947 49.5762 17.6401L50.6939 17.5447V17.4356C50.6939 16.7813 50.2987 16.5633 49.808 16.5633C49.2218 16.5633 48.8811 16.8222 48.8811 17.2857H48.4449C48.4449 16.6041 49.0038 16.168 49.8353 16.168C50.6122 16.168 51.1847 16.5633 51.1847 17.4492V19.6166H50.7758L50.7076 19.0304C50.5032 19.453 50.0397 19.7119 49.4672 19.7119C48.7447 19.7119 48.3222 19.3031 48.3222 18.7169L48.3086 18.7032ZM50.6803 18.0899V17.9127L49.6854 17.9945C49.0447 18.049 48.7993 18.3217 48.7993 18.7032C48.7993 19.1122 49.0992 19.3167 49.5626 19.3167C50.2714 19.3167 50.6803 18.826 50.6803 18.0899Z" fill="#9CA3AF"/>
<path d="M52.3534 19.6173V16.6594H51.6719V16.2505H52.3534V15.5144L52.8305 15.1873V16.2505H53.5121V16.6594H52.8305V19.6173H52.3534Z" fill="#9CA3AF"/>
<path d="M53.8555 17.9263C53.8555 16.8768 54.5098 16.1543 55.4775 16.1543C56.4453 16.1543 57.0041 16.7949 57.0041 17.7491V17.9808H54.3189C54.3598 18.7987 54.7823 19.2758 55.5048 19.2758C56.05 19.2758 56.4044 19.044 56.5407 18.5942H57.0041C56.8269 19.303 56.2954 19.6846 55.5048 19.6846C54.5097 19.6846 53.8555 18.9759 53.8555 17.9263ZM54.3325 17.6401H56.527C56.527 16.9994 56.1045 16.5633 55.4775 16.5633C54.8505 16.5633 54.4279 16.9858 54.3462 17.6401H54.3325Z" fill="#9CA3AF"/>
<path d="M57.944 18.6624C57.944 19.0576 58.2302 19.2894 58.7073 19.2894C59.2253 19.2894 59.5388 19.0712 59.5388 18.7032C59.5388 18.4306 59.4024 18.267 59.0072 18.1717L58.4347 18.0217C57.8485 17.8718 57.5623 17.5718 57.5623 17.1084C57.5623 16.5223 58.053 16.1406 58.7754 16.1406C59.4979 16.1406 59.9477 16.536 59.9613 17.1493H59.4979C59.4979 16.7541 59.2116 16.536 58.7617 16.536C58.312 16.536 58.0257 16.7405 58.0257 17.0948C58.0257 17.3538 58.203 17.531 58.571 17.6264L59.1434 17.7763C59.7295 17.9263 59.9886 18.1989 59.9886 18.676C59.9886 19.2757 59.4706 19.671 58.7073 19.671C57.944 19.671 57.4805 19.2621 57.4805 18.6487H57.944V18.6624Z" fill="#9CA3AF"/>
<path d="M78.4983 18.0047H62.3867L63.0001 17.2959H79.098L78.4983 18.0047Z" fill="#9CA3AF"/>
<path d="M22.0136 10.9864C22.0136 12.4994 21.7138 13.9443 21.1685 15.2392C19.5055 19.2193 15.5936 22 11.0136 22C4.93432 22 0 17.0793 0 11C0 4.9207 4.93432 0 11.0136 0C14.544 0 17.6927 1.66295 19.71 4.25279H10.8092L12.3631 6.58364H14.3531V13.808L12.1313 10.4411L8.02849 4.25279H5.68401V17.6H8.01486V8.17843L14.3531 17.7472H16.6704V6.58364H21.1003C21.6865 7.93309 22.0136 9.41884 22.0136 10.9864Z" fill="#9CA3AF"/>
</g>
<defs>
<clipPath id="clip0_15398_26535">
<rect width="79.2" height="22" fill="white"/>
</clipPath>
</defs>
</svg>
