<svg width="80" height="22" viewBox="0 0 80 22" fill="none" xmlns="http://www.w3.org/2000/svg">
<g clip-path="url(#clip0_13465_9080)">
<path d="M68.6152 12.4817C68.6152 12.1682 68.8878 11.9092 69.2013 11.9092C69.5148 11.9092 69.7739 12.1682 69.7739 12.4817C69.7739 12.7952 69.5012 13.0542 69.2013 13.0542C68.9015 13.0542 68.6152 12.7952 68.6152 12.4817Z" fill="#111827"/>
<path d="M70.576 11.0232H71.3531V11.3094C71.3531 11.882 71.6666 12.3045 72.3209 12.3045C72.9751 12.3045 73.275 11.8956 73.275 11.2821V7.05664H74.0656V11.3094C74.0656 12.3727 73.3567 13.0269 72.3072 13.0269C71.1895 13.0269 70.5625 12.3181 70.5625 11.2958V11.0095L70.576 11.0232Z" fill="#111827"/>
<path d="M77.0776 6.97461C78.1953 6.97461 78.9178 7.60162 78.986 8.62393H78.1818C78.1409 8.0378 77.7319 7.69703 77.064 7.69703C76.328 7.69703 75.8509 8.06506 75.8509 8.65119C75.8509 9.12827 76.1235 9.40088 76.6687 9.53718L77.6365 9.76891C78.5907 9.987 79.0814 10.505 79.0814 11.3364C79.0814 12.3996 78.2635 13.0675 77.0095 13.0675C75.7554 13.0675 75.0194 12.4405 74.9648 11.4318H75.7827C75.7963 11.9907 76.2734 12.3451 77.0095 12.3451C77.7864 12.3451 78.2908 11.9771 78.2908 11.391C78.2908 10.9275 78.0454 10.6413 77.473 10.505L76.5052 10.2869C75.551 10.0688 75.0467 9.50992 75.0467 8.66481C75.0467 7.65615 75.8645 6.97461 77.0776 6.97461Z" fill="#111827"/>
<path d="M37.387 1.09961V9.56429L31.7847 1.09961H29.7129V13.0537H31.7711V4.57545L37.387 13.0537H39.4452V1.09961H37.387Z" fill="#111827"/>
<path d="M48.4151 1.09961V3.02155H43.0855V6.10208H47.8563V7.94224H43.0855V11.1182H48.4151V13.0537H40.9863V1.09961H48.4151Z" fill="#111827"/>
<path d="M61.8007 1.09961L60.4922 3.02155H64.2815V13.0537H66.3806V3.02155H69.0523L70.3472 1.09961H61.8007Z" fill="#111827"/>
<path d="M52.8986 8.33789L54.1799 10.2189L52.2443 13.0541H49.6953L52.8986 8.33789Z" fill="#111827"/>
<path d="M60.4092 13.0538H57.8466L55.0523 8.93728L53.771 7.05624L49.7227 1.09961H52.2717L55.0523 5.1752L57.8193 1.09961H60.3683L57.6694 5.06616L56.32 7.05624L60.4092 13.0538Z" fill="#111827"/>
<path d="M29.7129 14.6416H33.2842V15.105H31.7439V19.6168H31.2396V15.105H29.7129V14.6416Z" fill="#111827"/>
<path d="M33.1211 17.9263C33.1211 16.8768 33.7754 16.1543 34.7432 16.1543C35.7109 16.1543 36.2698 16.7949 36.2698 17.7491V17.9808H33.5845C33.6254 18.7987 34.048 19.2758 34.7704 19.2758C35.3156 19.2758 35.67 19.044 35.8063 18.5942H36.2698C36.0926 19.303 35.561 19.6846 34.7704 19.6846C33.7754 19.6846 33.1211 18.9759 33.1211 17.9263ZM33.5982 17.6401H35.7927C35.7927 16.9994 35.3702 16.5633 34.7432 16.5633C34.1162 16.5633 33.6935 16.9858 33.6118 17.6401H33.5982Z" fill="#111827"/>
<path d="M37.0332 19.6165V16.2498H37.4557L37.5103 16.7268C37.6738 16.3724 38.0554 16.1543 38.5326 16.1543C39.0641 16.1543 39.4595 16.427 39.623 16.8768C39.773 16.4405 40.1818 16.1543 40.7271 16.1543C41.4631 16.1543 41.9402 16.6314 41.9402 17.4083V19.6165H41.4768V17.5174C41.4768 16.9449 41.1496 16.6041 40.6453 16.6041C40.0865 16.6041 39.7457 17.0267 39.7457 17.5447V19.6165H39.2686V17.5038C39.2686 16.9312 38.9415 16.6041 38.4371 16.6041C37.8783 16.6041 37.5376 17.0267 37.5376 17.5311V19.6165H37.0332Z" fill="#111827"/>
<path d="M42.8926 16.2498H43.3152L43.3698 16.9312C43.6014 16.4133 44.0785 16.1543 44.651 16.1543C45.6325 16.1543 46.2049 16.9041 46.2049 17.9126C46.2049 18.9213 45.646 19.6846 44.651 19.6846C44.0785 19.6846 43.6287 19.4393 43.3969 18.9486V21.0614H42.9199V16.2361L42.8926 16.2498ZM44.5556 19.2621C45.2917 19.2621 45.7142 18.7032 45.7142 17.9263C45.7142 17.1494 45.2917 16.5906 44.5556 16.5906C43.8195 16.5906 43.3833 17.1494 43.3833 17.9263C43.3833 18.7032 43.8195 19.2621 44.5556 19.2621Z" fill="#111827"/>
<path d="M46.9844 19.6166V14.8867L47.4614 14.5459V19.6029H46.9844V19.6166Z" fill="#111827"/>
<path d="M48.3066 18.7032C48.3066 18.0899 48.7837 17.6947 49.5743 17.6401L50.692 17.5447V17.4356C50.692 16.7813 50.2968 16.5633 49.8061 16.5633C49.2199 16.5633 48.8792 16.8222 48.8792 17.2857H48.4429C48.4429 16.6041 49.0018 16.168 49.8333 16.168C50.6103 16.168 51.1827 16.5633 51.1827 17.4492V19.6166H50.7738L50.7056 19.0304C50.5013 19.453 50.0377 19.7119 49.4653 19.7119C48.7428 19.7119 48.3203 19.3031 48.3203 18.7169L48.3066 18.7032ZM50.6784 18.0899V17.9127L49.6834 17.9945C49.0428 18.049 48.7974 18.3217 48.7974 18.7032C48.7974 19.1122 49.0972 19.3167 49.5606 19.3167C50.2695 19.3167 50.6784 18.826 50.6784 18.0899Z" fill="#111827"/>
<path d="M52.3534 19.6175V16.6596H51.6719V16.2508H52.3534V15.5146L52.8305 15.1875V16.2508H53.5121V16.6596H52.8305V19.6175H52.3534Z" fill="#111827"/>
<path d="M53.8535 17.9263C53.8535 16.8768 54.5078 16.1543 55.4756 16.1543C56.4434 16.1543 57.0022 16.7949 57.0022 17.7491V17.9808H54.3169C54.3579 18.7987 54.7804 19.2758 55.5029 19.2758C56.048 19.2758 56.4024 19.044 56.5387 18.5942H57.0022C56.8249 19.303 56.2934 19.6846 55.5029 19.6846C54.5078 19.6846 53.8535 18.9759 53.8535 17.9263ZM54.3306 17.6401H56.5251C56.5251 16.9994 56.1026 16.5633 55.4756 16.5633C54.8486 16.5633 54.426 16.9858 54.3442 17.6401H54.3306Z" fill="#111827"/>
<path d="M57.9421 18.6624C57.9421 19.0576 58.2283 19.2894 58.7053 19.2894C59.2233 19.2894 59.5368 19.0712 59.5368 18.7032C59.5368 18.4306 59.4004 18.267 59.0052 18.1717L58.4328 18.0217C57.8466 17.8718 57.5604 17.5718 57.5604 17.1084C57.5604 16.5223 58.0511 16.1406 58.7734 16.1406C59.4959 16.1406 59.9457 16.536 59.9593 17.1493H59.4959C59.4959 16.7541 59.2097 16.536 58.7598 16.536C58.31 16.536 58.0238 16.7405 58.0238 17.0948C58.0238 17.3538 58.201 17.531 58.5691 17.6264L59.1415 17.7763C59.7276 17.9263 59.9866 18.1989 59.9866 18.676C59.9866 19.2757 59.4686 19.671 58.7053 19.671C57.9421 19.671 57.4785 19.2621 57.4785 18.6487H57.9421V18.6624Z" fill="#111827"/>
<path d="M78.4983 18.0047H62.3867L63.0001 17.2959H79.098L78.4983 18.0047Z" fill="#111827"/>
<path d="M22.0136 10.9864C22.0136 12.4994 21.7138 13.9443 21.1685 15.2392C19.5055 19.2193 15.5936 22 11.0136 22C4.93432 22 0 17.0793 0 11C0 4.9207 4.93432 0 11.0136 0C14.544 0 17.6927 1.66295 19.71 4.25279H10.8092L12.3631 6.58364H14.3531V13.808L12.1313 10.4411L8.02849 4.25279H5.68401V17.6H8.01486V8.17843L14.3531 17.7472H16.6704V6.58364H21.1003C21.6865 7.93309 22.0136 9.41884 22.0136 10.9864Z" fill="#111827"/>
</g>
<defs>
<clipPath id="clip0_13465_9080">
<rect width="79.2" height="22" fill="white"/>
</clipPath>
</defs>
</svg>
