<svg width="122" height="22" viewBox="0 0 122 22" fill="none" xmlns="http://www.w3.org/2000/svg">
<g clip-path="url(#clip0_15398_26514)">
<path d="M30.25 6.30838H34.5657V18.6705H37.147V6.30838H41.4627V3.92871H30.25V6.30838Z" fill="#9CA3AF"/>
<path d="M44.3457 18.9323C45.8985 18.9323 47.2497 18.2264 47.6732 17.198L47.8547 18.6701H50.0125V12.6201C50.0125 9.85727 48.3588 8.40527 45.6767 8.40527C42.9744 8.40527 41.1997 9.81692 41.1997 11.9747H43.2971C43.2971 10.9262 44.1037 10.3211 45.5557 10.3211C46.8061 10.3211 47.6127 10.8656 47.6127 12.2167V12.4385L44.6281 12.6604C42.2685 12.842 40.9375 13.9914 40.9375 15.8266C40.9375 17.7021 42.2283 18.9323 44.3457 18.9323ZM45.1524 17.077C44.0433 17.077 43.4383 16.6333 43.4383 15.7257C43.4383 14.9191 44.0231 14.415 45.5557 14.2737L47.6328 14.1124V14.6367C47.6328 16.1694 46.6648 17.077 45.1524 17.077Z" fill="#9CA3AF"/>
<path d="M53.6571 6.71132C54.4638 6.71132 55.1292 6.04582 55.1292 5.21898C55.1292 4.39215 54.4638 3.74683 53.6571 3.74683C52.8101 3.74683 52.1445 4.39215 52.1445 5.21898C52.1445 6.04582 52.8101 6.71132 53.6571 6.71132ZM52.4269 18.6701H54.8872V8.70783H52.4269V18.6701Z" fill="#9CA3AF"/>
<path d="M59.9089 18.67V3.66602H57.4688V18.67H59.9089Z" fill="#9CA3AF"/>
<path d="M64.1274 18.6705L65.3173 15.2624H70.8229L72.0129 18.6705H74.7354L69.4114 3.92871H66.7693L61.4453 18.6705H64.1274ZM67.7574 8.32508C67.8986 7.92172 68.0195 7.47808 68.0801 7.19572C68.1204 7.49822 68.2615 7.94187 68.3825 8.32508L70.0769 13.0844H66.0835L67.7574 8.32508Z" fill="#9CA3AF"/>
<path d="M79.8581 18.9322C81.3707 18.9322 82.6618 18.2666 83.2668 17.1172L83.4277 18.67H85.6868V3.66602H83.2461V9.97819C82.6212 8.99005 81.3913 8.40519 79.9998 8.40519C76.9947 8.40519 75.1797 10.6235 75.1797 13.7292C75.1797 16.8146 76.9748 18.9322 79.8581 18.9322ZM80.4027 16.6735C78.6887 16.6735 77.6403 15.4232 77.6403 13.6485C77.6403 11.8739 78.6887 10.6033 80.4027 10.6033C82.1173 10.6033 83.2262 11.8537 83.2262 13.6485C83.2262 15.4433 82.1173 16.6735 80.4027 16.6735Z" fill="#9CA3AF"/>
<path d="M90.7105 18.6701V13.0234C90.7105 11.4102 91.6579 10.6437 92.8281 10.6437C93.9974 10.6437 94.7435 11.39 94.7435 12.7814V18.6701H97.204V13.0234C97.204 11.39 98.1114 10.6236 99.3015 10.6236C100.471 10.6236 101.238 11.3697 101.238 12.8016V18.6701H103.677V12.1563C103.677 9.85727 102.346 8.40527 99.9264 8.40527C98.414 8.40527 97.2445 9.15142 96.7399 10.3009C96.2161 9.15142 95.1669 8.40527 93.6545 8.40527C92.2231 8.40527 91.2144 9.05063 90.7105 9.87742L90.5085 8.70777H88.25V18.6701H90.7105Z" fill="#9CA3AF"/>
<path d="M107.321 6.71132C108.129 6.71132 108.794 6.04582 108.794 5.21898C108.794 4.39215 108.129 3.74683 107.321 3.74683C106.475 3.74683 105.809 4.39215 105.809 5.21898C105.809 6.04582 106.475 6.71132 107.321 6.71132ZM106.091 18.6701H108.552V8.70783H106.091V18.6701Z" fill="#9CA3AF"/>
<path d="M113.555 18.6701V13.3057C113.555 11.6924 114.482 10.6437 115.995 10.6437C117.265 10.6437 118.092 11.4504 118.092 13.1243V18.6701H120.552V12.5394C120.552 9.95813 119.261 8.40527 116.761 8.40527C115.409 8.40527 114.199 8.99013 113.575 9.99842L113.373 8.70777H111.094V18.6701H113.555Z" fill="#9CA3AF"/>
<path d="M0 5.78947C0 2.59203 2.59203 0 5.78947 0H16.2105C19.408 0 22 2.59203 22 5.78947V16.2105C22 19.408 19.408 22 16.2105 22H5.78947C2.59203 22 0 19.408 0 16.2105L0 5.78947Z" fill="#9CA3AF"/>
<path d="M5.5 5.78998C5.5 5.15049 6.0184 4.63208 6.65789 4.63208C7.2974 4.63208 7.81578 5.15049 7.81578 5.78998V16.2111C7.81578 16.8505 7.2974 17.3689 6.65789 17.3689C6.0184 17.3689 5.5 16.8505 5.5 16.2111V5.78998Z" fill="white"/>
<g opacity="0.9">
<path d="M9.84375 10.4206C9.84375 9.78107 10.3622 9.2627 11.0017 9.2627C11.6411 9.2627 12.1595 9.78107 12.1595 10.4206V16.2101C12.1595 16.8495 11.6411 17.368 11.0017 17.368C10.3622 17.368 9.84375 16.8495 9.84375 16.2101V10.4206Z" fill="white"/>
</g>
<g opacity="0.7">
<path d="M14.1836 7.52606C14.1836 6.88655 14.7021 6.36816 15.3415 6.36816C15.981 6.36816 16.4995 6.88655 16.4995 7.52606V16.2103C16.4995 16.8497 15.981 17.3682 15.3415 17.3682C14.7021 17.3682 14.1836 16.8497 14.1836 16.2103V7.52606Z" fill="white"/>
</g>
</g>
<defs>
<clipPath id="clip0_15398_26514">
<rect width="121.524" height="22" fill="white"/>
</clipPath>
</defs>
</svg>
