<svg width="122" height="22" viewBox="0 0 122 22" fill="none" xmlns="http://www.w3.org/2000/svg">
<g clip-path="url(#clip0_13465_9059)">
<path d="M30.25 6.30838H34.5657V18.6705H37.147V6.30838H41.4627V3.92871H30.25V6.30838Z" fill="#111827"/>
<path d="M44.3438 18.9323C45.8965 18.9323 47.2478 18.2264 47.6712 17.198L47.8528 18.6701H50.0105V12.6201C50.0105 9.85727 48.3569 8.40527 45.6748 8.40527C42.9724 8.40527 41.1978 9.81692 41.1978 11.9747H43.2951C43.2951 10.9262 44.1018 10.3211 45.5538 10.3211C46.8041 10.3211 47.6108 10.8656 47.6108 12.2167V12.4385L44.6261 12.6604C42.2665 12.842 40.9355 13.9914 40.9355 15.8266C40.9355 17.7021 42.2263 18.9323 44.3438 18.9323ZM45.1504 17.077C44.0413 17.077 43.4363 16.6333 43.4363 15.7257C43.4363 14.9191 44.0211 14.415 45.5538 14.2737L47.6309 14.1124V14.6367C47.6309 16.1694 46.6629 17.077 45.1504 17.077Z" fill="#111827"/>
<path d="M53.6571 6.71156C54.4638 6.71156 55.1292 6.04606 55.1292 5.21923C55.1292 4.39239 54.4638 3.74707 53.6571 3.74707C52.8101 3.74707 52.1445 4.39239 52.1445 5.21923C52.1445 6.04606 52.8101 6.71156 53.6571 6.71156ZM52.4269 18.6703H54.8872V8.70807H52.4269V18.6703Z" fill="#111827"/>
<path d="M59.9108 18.67V3.66602H57.4707V18.67H59.9108Z" fill="#111827"/>
<path d="M64.1255 18.6705L65.3154 15.2624H70.8209L72.0109 18.6705H74.7335L69.4095 3.92871H66.7674L61.4434 18.6705H64.1255ZM67.7555 8.32508C67.8967 7.92172 68.0176 7.47808 68.0781 7.19572C68.1185 7.49822 68.2596 7.94187 68.3806 8.32508L70.0749 13.0844H66.0816L67.7555 8.32508Z" fill="#111827"/>
<path d="M79.8581 18.9322C81.3707 18.9322 82.6618 18.2666 83.2668 17.1172L83.4277 18.67H85.6868V3.66602H83.2461V9.97819C82.6212 8.99005 81.3913 8.40519 79.9998 8.40519C76.9947 8.40519 75.1797 10.6235 75.1797 13.7292C75.1797 16.8146 76.9748 18.9322 79.8581 18.9322ZM80.4027 16.6735C78.6887 16.6735 77.6403 15.4232 77.6403 13.6485C77.6403 11.8739 78.6887 10.6033 80.4027 10.6033C82.1173 10.6033 83.2262 11.8537 83.2262 13.6485C83.2262 15.4433 82.1173 16.6735 80.4027 16.6735Z" fill="#111827"/>
<path d="M90.7125 18.6701V13.0234C90.7125 11.4102 91.6599 10.6437 92.83 10.6437C93.9994 10.6437 94.7454 11.39 94.7454 12.7814V18.6701H97.206V13.0234C97.206 11.39 98.1134 10.6236 99.3035 10.6236C100.473 10.6236 101.239 11.3697 101.239 12.8016V18.6701H103.679V12.1563C103.679 9.85727 102.348 8.40527 99.9284 8.40527C98.416 8.40527 97.2465 9.15142 96.7419 10.3009C96.218 9.15142 95.1689 8.40527 93.6564 8.40527C92.225 8.40527 91.2164 9.05063 90.7125 9.87742L90.5104 8.70777H88.252V18.6701H90.7125Z" fill="#111827"/>
<path d="M107.323 6.71156C108.131 6.71156 108.796 6.04606 108.796 5.21923C108.796 4.39239 108.131 3.74707 107.323 3.74707C106.477 3.74707 105.811 4.39239 105.811 5.21923C105.811 6.04606 106.477 6.71156 107.323 6.71156ZM106.093 18.6703H108.554V8.70807H106.093V18.6703Z" fill="#111827"/>
<path d="M113.557 18.6701V13.3057C113.557 11.6924 114.484 10.6437 115.996 10.6437C117.267 10.6437 118.094 11.4504 118.094 13.1243V18.6701H120.554V12.5394C120.554 9.95813 119.263 8.40527 116.763 8.40527C115.411 8.40527 114.201 8.99013 113.576 9.99842L113.375 8.70777H111.096V18.6701H113.557Z" fill="#111827"/>
<path d="M0 5.78947C0 2.59203 2.59203 0 5.78947 0H16.2105C19.408 0 22 2.59203 22 5.78947V16.2105C22 19.408 19.408 22 16.2105 22H5.78947C2.59203 22 0 19.408 0 16.2105L0 5.78947Z" fill="#111827"/>
<path d="M5.5 5.78974C5.5 5.15025 6.0184 4.63184 6.65789 4.63184C7.2974 4.63184 7.81578 5.15025 7.81578 5.78974V16.2109C7.81578 16.8502 7.2974 17.3687 6.65789 17.3687C6.0184 17.3687 5.5 16.8502 5.5 16.2109V5.78974Z" fill="white"/>
<g opacity="0.9">
<path d="M9.8418 10.4206C9.8418 9.78107 10.3603 9.2627 10.9997 9.2627C11.6392 9.2627 12.1576 9.78107 12.1576 10.4206V16.2101C12.1576 16.8495 11.6392 17.368 10.9997 17.368C10.3603 17.368 9.8418 16.8495 9.8418 16.2101V10.4206Z" fill="white"/>
</g>
<g opacity="0.7">
<path d="M14.1836 7.52606C14.1836 6.88655 14.7021 6.36816 15.3415 6.36816C15.981 6.36816 16.4995 6.88655 16.4995 7.52606V16.2103C16.4995 16.8497 15.981 17.3682 15.3415 17.3682C14.7021 17.3682 14.1836 16.8497 14.1836 16.2103V7.52606Z" fill="white"/>
</g>
</g>
<defs>
<clipPath id="clip0_13465_9059">
<rect width="121.524" height="22" fill="white"/>
</clipPath>
</defs>
</svg>
