<svg width="24" height="24" viewBox="0 0 24 24" fill="none" xmlns="http://www.w3.org/2000/svg">
<path d="M19.7413 7.81869C19.6235 7.90869 17.5433 9.0628 17.5433 11.6291C17.5433 14.5974 20.1903 15.6475 20.2695 15.6735C20.2573 15.7375 19.849 17.1116 18.8739 18.5118C18.0044 19.7439 17.0964 20.974 15.715 20.974C14.3336 20.974 13.9781 20.1839 12.3834 20.1839C10.8293 20.1839 10.2768 21 9.01321 21C7.74964 21 6.86798 19.8599 5.85429 18.4598C4.68013 16.8156 3.73145 14.2613 3.73145 11.8371C3.73145 7.94872 6.2992 5.88648 8.82631 5.88648C10.1691 5.88648 11.2884 6.75458 12.1315 6.75458C12.9339 6.75458 14.1853 5.83449 15.7129 5.83449C16.2919 5.83449 18.3721 5.88648 19.7413 7.81869ZM14.9877 4.18832C15.6195 3.45025 16.0664 2.42614 16.0664 1.40204C16.0664 1.26003 16.0542 1.11601 16.0278 1C14.9999 1.038 13.777 1.67407 13.0395 2.51615C12.4606 3.16422 11.9202 4.18832 11.9202 5.22642C11.9202 5.38247 11.9466 5.53845 11.9588 5.58844C12.0238 5.60047 12.1294 5.61446 12.2351 5.61446C13.1574 5.61446 14.3173 5.00639 14.9877 4.18832Z" fill="#374151"/>
</svg>
