<svg width="24" height="24" viewBox="0 0 24 24" fill="none" xmlns="http://www.w3.org/2000/svg">
<path d="M5.54993 17.7498L5.54993 8.69751M18.4501 17.7498L18.4501 8.69751M16.2002 17.7498L16.2002 8.69751M7.7998 17.7498L7.7998 8.69751M20 19.9998V19.2498C20 18.4213 19.3284 17.7498 18.5 17.7498H5.5C4.67157 17.7498 4 18.4213 4 19.2498V19.9998H20ZM5.05259 6.17082L11.5526 4.13957C11.8439 4.04853 12.1561 4.04853 12.4474 4.13957L18.9474 6.17082C19.5736 6.36651 20 6.94646 20 7.60254V8.69729H4V7.60254C4 6.94646 4.42637 6.36651 5.05259 6.17082Z" stroke="#374151" stroke-width="1.5" stroke-linecap="round" stroke-linejoin="round"/>
<path d="M12.9769 12.0279C12.9769 11.6233 12.6489 11.2953 12.2443 11.2953H11.948C11.4374 11.2953 11.0234 11.7093 11.0234 12.2199C11.0234 12.6053 11.2625 12.9503 11.6234 13.0856L12.377 13.3683C12.7379 13.5036 12.9769 13.8486 12.9769 14.234C12.9769 14.7446 12.563 15.1586 12.0523 15.1586H11.7561C11.3514 15.1586 11.0234 14.8306 11.0234 14.426M12.0002 15.1586L12.0002 15.8083M12.0002 10.6455L12.0002 11.2953" stroke="#374151" stroke-linecap="round" stroke-linejoin="round"/>
</svg>
