<svg width="24" height="24" viewBox="0 0 24 24" fill="none" xmlns="http://www.w3.org/2000/svg">
<path d="M5.50177 20H5.8351C6.66353 20 7.3351 19.3284 7.3351 18.5V11.3516C7.3351 10.5231 6.66353 9.85156 5.8351 9.85156H5.50177C4.67334 9.85156 4.00177 10.5231 4.00177 11.3516V18.5C4.00177 19.3284 4.67334 20 5.50177 20Z" stroke="#323544" stroke-width="1.5" stroke-linecap="round" stroke-linejoin="round"/>
<path d="M11.8348 19.9991H12.1681C12.9965 19.9991 13.6681 19.3275 13.6681 18.4991V5.5C13.6681 4.67157 12.9965 4 12.1681 4H11.8348C11.0064 4 10.3348 4.67157 10.3348 5.5V18.4991C10.3348 19.3275 11.0063 19.9991 11.8348 19.9991Z" stroke="#323544" stroke-width="1.5" stroke-linecap="round" stroke-linejoin="round"/>
<path d="M18.1678 20H18.5011C19.3295 20 20.0011 19.3284 20.0011 18.5V14.9218C20.0011 14.0934 19.3295 13.4218 18.5011 13.4218H18.1678C17.3394 13.4218 16.6678 14.0934 16.6678 14.9218V18.5C16.6678 19.3284 17.3394 20 18.1678 20Z" stroke="#323544" stroke-width="1.5" stroke-linecap="round" stroke-linejoin="round"/>
</svg>
