<svg width="24" height="24" viewBox="0 0 24 24" fill="none" xmlns="http://www.w3.org/2000/svg">
<g clip-path="url(#clip0_1_810)">
<path d="M7.09091 10.6363C8.29589 10.6363 9.27273 9.65954 9.27273 8.45452C9.27273 7.24953 8.29589 6.2727 7.09091 6.2727H2.18182V10.6363H7.09091ZM8.18182 12.8182H2.18182V17.1818H8.18182C9.3868 17.1818 10.3636 16.205 10.3636 15C10.3636 13.795 9.3868 12.8182 8.18182 12.8182ZM10.4326 11.2609C11.6988 12.0246 12.5455 13.4135 12.5455 15C12.5455 17.4099 10.5917 19.3636 8.18182 19.3636H0V4.09088H7.09091C9.50088 4.09088 11.4545 6.04455 11.4545 8.45452C11.4545 9.52322 11.0703 10.5022 10.4326 11.2609ZM15.8182 5.18179H21.8182V6.81815H15.8182V5.18179ZM24 14.4545H15.8182V14.7272C15.8182 16.3841 17.1613 17.7272 18.8182 17.7272C19.984 17.7272 20.9945 17.0622 21.491 16.0909H23.8187C23.2201 18.2911 21.208 19.9091 18.8182 19.9091C15.9563 19.9091 13.6364 17.5891 13.6364 14.7272V13.0909C13.6364 10.229 15.9563 7.90906 18.8182 7.90906C21.6801 7.90906 24 10.229 24 13.0909V14.4545ZM21.7053 12.2727C21.3491 11.0135 20.1914 10.0909 18.8182 10.0909C17.4449 10.0909 16.2873 11.0135 15.9311 12.2727H21.7053Z" fill="#374151"/>
</g>
<defs>
<clipPath id="clip0_1_810">
<rect width="24" height="24" fill="white"/>
</clipPath>
</defs>
</svg>
