<svg width="24" height="24" viewBox="0 0 24 24" fill="none" xmlns="http://www.w3.org/2000/svg">
<path d="M11.9995 4.25049C15.7274 4.25049 18.7495 7.27257 18.7495 11.0005V14.1163C18.7495 14.1163 18.7465 14.1708 18.7495 14.1978M11.9995 4.25049V2.75049M11.9995 4.25049C11.0579 4.25049 10.1614 4.44328 9.34719 4.79153M9.68408 18.2505H5.91401C4.8667 18.2505 4.14178 17.2044 4.50952 16.2238L5.2024 14.3761C5.23355 14.293 5.24951 14.205 5.24951 14.1163V11.0005C5.24951 9.39098 5.81284 7.91304 6.75308 6.75308M9.68408 18.2505V18.9365C9.68408 20.2137 10.7199 21.249 11.9977 21.249C13.2755 21.249 14.3114 20.2137 14.3114 18.9365V18.2505M9.68408 18.2505H14.3114M14.3114 18.2505H18.085C18.1384 18.2505 18.1909 18.2478 18.2425 18.2425M2.75 2.75L6.75308 6.75308M21.249 21.249L18.2425 18.2425M18.2425 18.2425L6.75308 6.75308" stroke="#374151" stroke-width="1.5" stroke-linecap="round" stroke-linejoin="round"/>
</svg>
