<svg width="24" height="24" viewBox="0 0 24 24" fill="none" xmlns="http://www.w3.org/2000/svg">
<path d="M11.9999 2.75098V4.25098M11.9999 4.25098C15.7279 4.25098 18.7499 7.27305 18.7499 11.001V14.1168C18.7499 14.2055 18.7659 14.2935 18.7971 14.3766L19.4899 16.2243C19.8577 17.2049 19.1328 18.251 18.0854 18.251H14.3118M11.9999 4.25098C8.27202 4.25098 5.24994 7.27305 5.24994 11.001V14.1168C5.24994 14.2055 5.23398 14.2935 5.20283 14.3766L4.50995 16.2243C4.14221 17.2049 4.86713 18.251 5.91444 18.251H9.68451M9.68451 18.251V18.937C9.68451 20.2142 10.7204 21.2495 11.9981 21.2495C13.2759 21.2495 14.3118 20.2142 14.3118 18.937V18.251M9.68451 18.251H14.3118" stroke="#323544" stroke-width="1.5" stroke-linecap="round" stroke-linejoin="round"/>
</svg>
