<svg width="24" height="24" viewBox="0 0 24 24" fill="none" xmlns="http://www.w3.org/2000/svg">
<path d="M10.5691 14.5436C10.5691 16.7028 8.81874 18.4532 6.65955 18.4532C4.50037 18.4532 2.75 16.7028 2.75 14.5436C2.75 12.3844 4.50037 10.6341 6.65955 10.6341C8.81874 10.6341 10.5691 12.3844 10.5691 14.5436ZM10.5691 14.5436V7.04688C10.5691 6.21845 9.89753 5.54688 9.0691 5.54688H8.39849C7.86679 5.54688 7.37481 5.82836 7.10537 6.28673L3.84952 11.8255M13.4309 14.5436C13.4309 16.7028 15.1813 18.4532 17.3404 18.4532C19.4996 18.4532 21.25 16.7028 21.25 14.5436C21.25 12.3844 19.4996 10.6341 17.3404 10.6341C15.1813 10.6341 13.4309 12.3844 13.4309 14.5436ZM13.4309 14.5436V7.04688C13.4309 6.21845 14.1025 5.54688 14.9309 5.54688H15.6015C16.1332 5.54688 16.6252 5.82836 16.8946 6.28673L20.1505 11.8255M10.5693 14.293L13.4307 14.293M10.5693 8.06725C10.5693 8.06725 10.6192 7.31725 12 7.31725C13.3808 7.31725 13.4307 8.06725 13.4307 8.06725" stroke="#374151" stroke-width="1.5" stroke-linecap="round" stroke-linejoin="round"/>
</svg>
