<svg width="24" height="24" viewBox="0 0 24 24" fill="none" xmlns="http://www.w3.org/2000/svg">
<path d="M12 2.00049V4.88888M7.4336 20.7502H16.5686C18.2255 20.7502 19.5686 19.4071 19.5686 17.7502C19.5686 16.0933 18.2255 14.7502 16.5686 14.7502H7.43359C5.77674 14.7502 4.43359 16.0933 4.43359 17.7502C4.43359 19.4071 5.77674 20.7502 7.4336 20.7502ZM9.34766 11.7505H14.6535C15.4819 11.7505 16.1535 11.0789 16.1535 10.2505V6.38888C16.1535 5.56045 15.4819 4.88888 14.6535 4.88888H9.34766C8.51923 4.88888 7.84766 5.56045 7.84766 6.38887V10.2505C7.84766 11.0789 8.51923 11.7505 9.34766 11.7505ZM16.1523 7.81954H17.1523C17.4285 7.81954 17.6523 8.0434 17.6523 8.31954C17.6523 8.59568 17.4285 8.81954 17.1523 8.81954H16.1523V7.81954ZM10.75 11.7507V10.2507H13.25V11.7507H10.75ZM7.84766 7.81968H6.84766C6.57151 7.81968 6.34766 8.04354 6.34766 8.31968C6.34766 8.59582 6.57151 8.81968 6.84766 8.81968H7.84766V7.81968Z" stroke="#323544" stroke-width="1.5" stroke-linecap="round" stroke-linejoin="round"/>
<path d="M10.75 7.56934H10.76M13.25 7.56934H13.26" stroke="#323544" stroke-width="1.6" stroke-linecap="round" stroke-linejoin="round"/>
<path d="M12 2L12.0001 2" stroke="#323544" stroke-width="2.5" stroke-linecap="round" stroke-linejoin="round"/>
</svg>
