<svg width="24" height="24" viewBox="0 0 24 24" fill="none" xmlns="http://www.w3.org/2000/svg">
<path d="M12.0005 5C12.0005 3.75736 13.0078 2.75 14.2505 2.75C15.4931 2.75 16.5005 3.75736 16.5005 5C16.5005 6.24264 15.4931 7.25 14.2505 7.25H12.0005M12.0005 5V7.25M12.0005 5C12.0005 3.75736 10.9931 2.75 9.75049 2.75C8.50785 2.75 7.50049 3.75736 7.50049 5C7.50049 6.24264 8.50785 7.25 9.75049 7.25H12.0005M12.0005 7.25V20.5M20.0005 11H4.00049M5.49219 20.5H18.5088C19.3372 20.5 20.0088 19.8284 20.0088 19V8.75C20.0088 7.92157 19.3372 7.25 18.5088 7.25H5.49219C4.66376 7.25 3.99219 7.92157 3.99219 8.75V19C3.99219 19.8284 4.66376 20.5 5.49219 20.5Z" stroke="#374151" stroke-width="1.5" stroke-linecap="round" stroke-linejoin="round"/>
</svg>
