<svg width="24" height="24" viewBox="0 0 24 24" fill="none" xmlns="http://www.w3.org/2000/svg">
<path d="M12 4.00098H7.87725C7.33535 4.00098 6.83558 4.29326 6.5699 4.76555L4.19265 8.99152C4.13168 9.09992 4.08467 9.21502 4.05236 9.33408M12 4.00098H16.1228C16.6647 4.00098 17.1644 4.29326 17.4301 4.76555L19.8073 8.99152C19.8683 9.09992 19.9153 9.21502 19.9476 9.33408L12 9.33408M12 4.00098V9.33408M12 9.33408L4.05236 9.33408M4.05236 9.33408C4.01775 9.46162 4 9.5937 4 9.72695V18.5001C4 19.3286 4.67157 20.0001 5.5 20.0001H9.63069M18.125 13.8349C18.125 14.6633 17.4534 15.3349 16.625 15.3349C15.7966 15.3349 15.125 14.6633 15.125 13.8349C15.125 13.0065 15.7966 12.3349 16.625 12.3349C17.4534 12.3349 18.125 13.0065 18.125 13.8349ZM20.2566 21.5798H12.9935V20.4052C12.9935 19.0245 14.1128 17.9052 15.4935 17.9052H17.7566C19.1373 17.9052 20.2566 19.0245 20.2566 20.4052V21.5798Z" stroke="#374151" stroke-width="1.5" stroke-linecap="round" stroke-linejoin="round"/>
</svg>
