<svg width="24" height="24" viewBox="0 0 24 24" fill="none" xmlns="http://www.w3.org/2000/svg">
<path d="M12.0009 5.40779C12.0009 4.15031 13.0203 3.13092 14.2778 3.13092C15.3281 3.13092 16.2122 3.842 16.4751 4.80898H16.6699C18.3268 4.80898 19.6699 6.15212 19.6699 7.80898V8.20534C20.6234 8.85183 21.25 9.94428 21.25 11.1831C21.25 12.4219 20.6234 13.5143 19.6699 14.1608V15.3731C19.6699 17.0299 18.3268 18.3731 16.6699 18.3731H16.5547V18.5897C16.5547 19.8472 15.5353 20.8666 14.2778 20.8666C13.0203 20.8666 12.0009 19.8472 12.0009 18.5897M4.33008 15.3743L4.33008 14.1617C3.37657 13.5153 2.75 12.4228 2.75 11.184C2.75 9.94522 3.37657 8.85276 4.33008 8.20628V7.8102C4.33008 6.15335 5.67322 4.81021 7.33008 4.81021H7.52507C7.78822 3.8436 8.6722 3.13287 9.72219 3.13287C10.9797 3.13287 11.9991 4.15226 11.9991 5.40974V18.5916C11.9991 19.8491 10.9797 20.8685 9.72219 20.8685C8.4647 20.8685 7.44531 19.8491 7.44531 18.5916V18.3743H7.33008C5.67322 18.3743 4.33008 17.0311 4.33008 15.3743Z" stroke="#323544" stroke-width="1.5" stroke-linecap="round" stroke-linejoin="round"/>
</svg>
