<svg width="24" height="24" viewBox="0 0 24 24" fill="none" xmlns="http://www.w3.org/2000/svg">
<path d="M3.25002 9.75L11.4092 13.2468C11.7866 13.4085 12.2137 13.4085 12.591 13.2468L20.7502 9.75M4.74982 18.75H19.25C20.0784 18.75 20.75 18.0784 20.75 17.25V8.25C20.75 7.42157 20.0784 6.75 19.25 6.75H4.74982C3.92139 6.75 3.24982 7.42157 3.24982 8.25V17.25C3.24982 18.0784 3.92139 18.75 4.74982 18.75ZM15.5 6.75V5.25C15.5 4.42157 14.8284 3.75 14 3.75H10C9.17159 3.75 8.50002 4.42157 8.50002 5.25V6.75H15.5Z" stroke="#323544" stroke-width="1.5" stroke-linecap="round" stroke-linejoin="round"/>
</svg>
