<svg width="24" height="24" viewBox="0 0 24 24" fill="none" xmlns="http://www.w3.org/2000/svg">
<path d="M11.6376 16.2677C11.6088 15.55 11.3426 14.8724 10.8295 14.3593C10.3387 13.8685 9.6716 13.517 8.96846 13.402M11.6376 16.2677C11.6766 17.2413 11.2787 18.2888 10.4676 19.0999C9.78186 19.7857 8.96696 20.0714 8.12784 20.1124C5.55295 20.2382 2.74994 18.059 2.74994 18.059C2.74994 18.059 4.57365 17.625 6.08894 14.7212C6.83323 13.572 7.93948 13.2338 8.96846 13.402M11.6376 16.2677L20.9014 6.11974C21.383 5.59217 21.3645 4.77911 20.8594 4.274C20.3543 3.76889 19.5413 3.75038 19.0137 4.23199L8.96846 13.402" stroke="#374151" stroke-width="1.5" stroke-linecap="round" stroke-linejoin="round"/>
</svg>
