<svg width="24" height="24" viewBox="0 0 24 24" fill="none" xmlns="http://www.w3.org/2000/svg">
<path d="M6.07459 20.0454L3.95327 17.9241M6.07459 20.0454L20.0436 6.0764L17.9223 3.95508L3.95327 17.9241M6.07459 20.0454L5.01417 21.1061L2.89285 18.9847L3.95327 17.9241M20.1162 3.88295L21.2484 2.75073M2.75098 21.2492L3.8832 20.1169M5.67995 5.67908L6.38706 6.38618M10.1624 3.09094L10.4212 4.05687M3.09206 10.162L4.05799 10.4208M17.6157 17.6139L18.3228 18.321M13.5805 19.944L13.8394 20.9099M19.9438 13.58L20.9098 13.8388M18.9855 2.8936L21.1068 5.01492L20.0453 6.07642L17.924 3.9551L18.9855 2.8936Z" stroke="#374151" stroke-width="1.5" stroke-linecap="round" stroke-linejoin="round"/>
</svg>
