<svg width="24" height="24" viewBox="0 0 24 24" fill="none" xmlns="http://www.w3.org/2000/svg">
<path d="M12 21.25V2.75M12 21.25C9.45677 21.25 7.15326 20.2236 5.4811 18.5625M12 21.25C14.5432 21.25 16.8467 20.2236 18.5189 18.5625M21.25 12L2.75098 11.9998M21.25 12C21.25 14.5654 20.2057 16.8869 18.5189 18.5625M21.25 12C21.25 9.43459 20.2057 7.11311 18.5189 5.4375M12 2.75C14.5432 2.75 16.8467 3.77637 18.5189 5.4375M12 2.75C9.45677 2.75 7.15326 3.77637 5.4811 5.4375M5.4811 18.5625C7.15326 16.9014 9.45677 15.875 12 15.875C14.5432 15.875 16.8467 16.9014 18.5189 18.5625M5.4811 18.5625C3.79435 16.8869 2.75 14.5654 2.75 12C2.75 9.43459 3.79435 7.11311 5.4811 5.4375M18.5189 5.4375C16.8467 7.09863 14.5432 8.125 12 8.125C9.45677 8.125 7.15326 7.09863 5.4811 5.4375" stroke="#374151" stroke-width="1.5" stroke-linecap="round" stroke-linejoin="round"/>
</svg>
