<svg width="24" height="24" viewBox="0 0 24 24" fill="none" xmlns="http://www.w3.org/2000/svg">
<path d="M16.625 15.0029V16.9874H18.249M8 2.75V4.5M8 4.5H5.5C4.67157 4.5 4 5.17157 4 6V9M8 4.5H16M16 2.75V4.5M16 4.5H18.5C19.3284 4.5 20 5.17157 20 6V9H4M9 20.5H5.5C4.67157 20.5 4 19.8284 4 19V9M21.25 16.625C21.25 19.1793 19.1793 21.25 16.625 21.25C14.0707 21.25 12 19.1793 12 16.625C12 14.0707 14.0707 12 16.625 12C19.1793 12 21.25 14.0707 21.25 16.625Z" stroke="#323544" stroke-width="1.5" stroke-linecap="round" stroke-linejoin="round"/>
</svg>
