<svg width="24" height="24" viewBox="0 0 24 24" fill="none" xmlns="http://www.w3.org/2000/svg">
<path d="M15.2079 4.10246C14.9247 3.7233 14.4793 3.5 14.006 3.5H9.9939C9.52069 3.5 9.07522 3.7233 8.79206 4.10246L8.19827 4.89757C7.91511 5.27673 7.46964 5.50003 6.99643 5.50003H4.25C3.42157 5.50003 2.75 6.17161 2.75 7.00003V17.25C2.75 18.0785 3.42157 18.75 4.25 18.75H19.75C20.5784 18.75 21.25 18.0785 21.25 17.25V7.00003C21.25 6.17161 20.5784 5.50003 19.75 5.50003H17.0035C16.5303 5.50003 16.0848 5.27673 15.8017 4.89758L15.2079 4.10246Z" stroke="#374151" stroke-width="1.5" stroke-linecap="round" stroke-linejoin="round"/>
<path d="M16 11.752C16 13.9611 14.2091 15.752 12 15.752C9.79086 15.752 8 13.9611 8 11.752C8 9.54281 9.79086 7.75195 12 7.75195C14.2091 7.75195 16 9.54281 16 11.752Z" stroke="#374151" stroke-width="1.5" stroke-linecap="round" stroke-linejoin="round"/>
</svg>
