<svg width="24" height="24" viewBox="0 0 24 24" fill="none" xmlns="http://www.w3.org/2000/svg">
<path d="M8 2.75L8.00001 5.25M2.75 16L5.25 16M8 18.75L8.00001 21.25M18.75 16L21.25 16M12 2.75L12 5.25M2.75 12L5.25 12M12 18.75L12 21.25M18.75 12L21.25 12M16 2.75L16 5.25M2.75 8L5.25 7.99999M16 18.75L16 21.25M18.75 8L21.25 7.99999M6.75003 18.75H17.25C18.0785 18.75 18.75 18.0784 18.75 17.25V6.75C18.75 5.92157 18.0785 5.25 17.25 5.25H6.75003C5.9216 5.25 5.25003 5.92157 5.25003 6.75V17.25C5.25003 18.0784 5.9216 18.75 6.75003 18.75Z" stroke="#323544" stroke-width="1.5" stroke-linecap="round" stroke-linejoin="round"/>
</svg>
