<svg width="24" height="24" viewBox="0 0 24 24" fill="none" xmlns="http://www.w3.org/2000/svg">
<path d="M11.0142 4.75129C11.7518 4.27587 12.6302 4 13.573 4C16.1172 4 18.1921 6.00888 18.2982 8.52696C19.9581 8.70549 21.2505 10.1109 21.2505 11.8182C21.2505 12.4746 21.0594 13.0864 20.7299 13.601M4.84315 12.3467V12.356C3.61718 12.8409 2.75 14.0369 2.75 15.4353C2.75 17.2636 4.23209 18.7457 6.06033 18.7457H14.6899C16.5182 18.7457 18.0002 17.2636 18.0002 15.4353C18.0002 13.6071 16.5182 12.125 14.6899 12.125H14.2971C14.1813 9.6159 12.1104 7.61719 9.57265 7.61719C6.96062 7.61719 4.84315 9.73466 4.84315 12.3467Z" stroke="#323544" stroke-width="1.5" stroke-linecap="round" stroke-linejoin="round"/>
</svg>
