<svg width="24" height="24" viewBox="0 0 24 24" fill="none" xmlns="http://www.w3.org/2000/svg">
<path d="M20.7117 12.5234C21.0056 12.5234 21.25 12.2938 21.25 12C21.25 6.89137 17.1086 2.75 12 2.75C6.89137 2.75 2.75 6.89137 2.75 12C2.75 17.1086 6.89137 21.25 12 21.25C12.6315 21.25 13.2483 21.1867 13.8442 21.0661C14.8434 20.864 15.075 19.6499 14.3553 18.9279C13.6537 18.2243 13.2598 17.2711 13.2598 16.2775C13.2598 14.2042 14.9405 12.5234 17.0138 12.5234H20.7117Z" stroke="#323544" stroke-width="1.5" stroke-linecap="round" stroke-linejoin="round"/>
<path d="M8.11523 15.396C8.39138 15.396 8.61523 15.6199 8.61523 15.896C8.61502 16.172 8.39125 16.396 8.11523 16.396C7.83922 16.396 7.61545 16.172 7.61523 15.896C7.61523 15.6199 7.83909 15.396 8.11523 15.396ZM6.68555 10.0981C6.96169 10.0981 7.18555 10.322 7.18555 10.5981C7.18555 10.8743 6.96169 11.0981 6.68555 11.0981C6.4094 11.0981 6.18555 10.8743 6.18555 10.5981C6.18555 10.322 6.4094 10.0981 6.68555 10.0981ZM15.8965 7.59814C16.1726 7.59814 16.3965 7.822 16.3965 8.09814C16.3965 8.37429 16.1726 8.59814 15.8965 8.59814C15.6203 8.59814 15.3965 8.37429 15.3965 8.09814C15.3965 7.822 15.6203 7.59814 15.8965 7.59814ZM10.5723 6.18701C10.8484 6.18701 11.0723 6.41087 11.0723 6.68701C11.0723 6.96315 10.8484 7.18701 10.5723 7.18701C10.2961 7.18701 10.0723 6.96315 10.0723 6.68701C10.0723 6.41087 10.2961 6.18701 10.5723 6.18701Z" fill="#323544" stroke="#323544" stroke-width="1.5" stroke-linejoin="round"/>
</svg>
