<svg width="24" height="24" viewBox="0 0 24 24" fill="none" xmlns="http://www.w3.org/2000/svg">
<path d="M8.5 8.5V6.25C8.5 5.00736 7.49264 4 6.25 4C5.00736 4 4 5.00736 4 6.25C4 7.49264 5.00736 8.5 6.25 8.5H8.5ZM8.5 8.5H15.5M8.5 8.5V15.5M8.5 15.5H6.25C5.00736 15.5 4 16.5074 4 17.75C4 18.9926 5.00736 20 6.25 20C7.49264 20 8.5 18.9926 8.5 17.75V15.5ZM8.5 15.5H15.5M15.5 8.5H17.75C18.9926 8.5 20 7.49264 20 6.25C20 5.00736 18.9926 4 17.75 4C16.5074 4 15.5 5.00736 15.5 6.25V8.5ZM15.5 8.5V15.5M15.5 15.5H17.75C18.9926 15.5 20 16.5074 20 17.75C20 18.9926 18.9926 20 17.75 20C16.5074 20 15.5 18.9926 15.5 17.75V15.5Z" stroke="#374151" stroke-width="1.5" stroke-linecap="round" stroke-linejoin="round"/>
</svg>
