<svg width="24" height="24" viewBox="0 0 24 24" fill="none" xmlns="http://www.w3.org/2000/svg">
<path d="M21.2254 11.3204C21.0809 11.3485 20.9315 11.3633 20.7787 11.3633C19.6234 11.3633 18.6651 10.5197 18.4863 9.41482C18.0691 9.65722 17.5843 9.79603 17.067 9.79603C15.5045 9.79603 14.2378 8.52937 14.2378 6.96686C14.2378 6.6134 14.3027 6.27509 14.4211 5.96314C13.5815 5.61331 12.9913 4.78482 12.9913 3.81848C12.9913 3.46447 13.0705 3.12896 13.2121 2.82871C12.8154 2.77679 12.4108 2.75 12 2.75C6.89137 2.75 2.75 6.89137 2.75 12C2.75 17.1086 6.89137 21.25 12 21.25C17.1086 21.25 21.25 17.1086 21.25 12C21.25 11.7714 21.2417 11.5448 21.2254 11.3204Z" stroke="#323544" stroke-width="1.5" stroke-linecap="round" stroke-linejoin="round"/>
<path d="M10.3184 16.1758H10.3185" stroke="#323544" stroke-width="1.8" stroke-linecap="round" stroke-linejoin="round"/>
<path d="M9.00684 10.79H9.00694" stroke="#323544" stroke-width="3.5" stroke-linecap="round" stroke-linejoin="round"/>
<path d="M15.2344 14.085H15.2345" stroke="#323544" stroke-width="2.5" stroke-linecap="round" stroke-linejoin="round"/>
</svg>
