<svg width="24" height="24" viewBox="0 0 24 24" fill="none" xmlns="http://www.w3.org/2000/svg">
<path d="M15.4988 18.25H9.25467C8.42624 18.25 7.75467 17.5784 7.75467 16.75V5.74854M15.4988 18.25H17.7512C18.5796 18.25 19.2512 17.5784 19.2512 16.75V6.72268C19.2512 6.32485 19.0931 5.94332 18.8118 5.66201L16.3391 3.18934C16.0578 2.90803 15.6763 2.75 15.2785 2.75H9.25467C8.42624 2.75 7.75467 3.42157 7.75467 4.25V5.74854M15.4988 18.25L15.4988 19.75C15.4988 20.5784 14.8272 21.25 13.9988 21.25H6.24881C5.42038 21.25 4.74881 20.5784 4.74881 19.75V7.24854C4.74881 6.42011 5.42038 5.74854 6.24881 5.74854H7.75467" stroke="#323544" stroke-width="1.5" stroke-linecap="round" stroke-linejoin="round"/>
</svg>
