<svg width="24" height="24" viewBox="0 0 24 24" fill="none" xmlns="http://www.w3.org/2000/svg">
<path d="M16.9879 16.9966H8.50546C7.67703 16.9966 7.00546 16.325 7.00546 15.4966V7.01416M16.9879 16.9966L16.9879 18.5005C16.9879 19.3289 16.3163 20.0005 15.4879 20.0005H5.50156C4.67313 20.0005 4.00156 19.3289 4.00156 18.5005V8.51416C4.00156 7.68573 4.67313 7.01416 5.50156 7.01416H7.00546M16.9879 16.9966H18.4981C19.3265 16.9966 19.9981 16.325 19.9981 15.4966L19.9981 5.50195C19.9981 4.67353 19.3265 4.00195 18.4981 4.00195H8.50546C7.67704 4.00195 7.00546 4.67353 7.00546 5.50195V7.01416" stroke="#323544" stroke-width="1.5" stroke-linecap="round" stroke-linejoin="round"/>
</svg>
