<svg width="24" height="24" viewBox="0 0 24 24" fill="none" xmlns="http://www.w3.org/2000/svg">
<path d="M4 7.24999C4 5.45507 5.45508 4 7.25 4C9.04492 4 10.5 5.45507 10.5 7.24999C10.5 9.04491 9.04492 10.5 7.25 10.5C5.45508 10.5 4 9.04491 4 7.24999Z" stroke="#323544" stroke-width="1.5" stroke-linecap="round" stroke-linejoin="round"/>
<path d="M4 16.75C4 14.9551 5.45508 13.5 7.25 13.5C9.04492 13.5 10.5 14.9551 10.5 16.75C10.5 18.5449 9.04492 20 7.25 20C5.45508 20 4 18.5449 4 16.75Z" stroke="#323544" stroke-width="1.5" stroke-linecap="round" stroke-linejoin="round"/>
<path d="M13.5 16.75C13.5 14.9551 14.9551 13.5 16.75 13.5C18.5449 13.5 20 14.9551 20 16.75C20 18.5449 18.5449 20 16.75 20C14.9551 20 13.5 18.5449 13.5 16.75Z" stroke="#323544" stroke-width="1.5" stroke-linecap="round" stroke-linejoin="round"/>
<path d="M13.5 7.24999C13.5 5.45507 14.9551 4 16.75 4C18.5449 4 20 5.45507 20 7.24999C20 9.04491 18.5449 10.5 16.75 10.5C14.9551 10.5 13.5 9.04491 13.5 7.24999Z" stroke="#323544" stroke-width="1.5" stroke-linecap="round" stroke-linejoin="round"/>
</svg>
