<svg width="24" height="24" viewBox="0 0 24 24" fill="none" xmlns="http://www.w3.org/2000/svg">
<path d="M4 5.5C4 4.67157 4.67157 4 5.5 4H9C9.82843 4 10.5 4.67157 10.5 5.5V8.99998C10.5 9.82841 9.82843 10.5 9 10.5H5.5C4.67157 10.5 4 9.82841 4 8.99998V5.5Z" stroke="#323544" stroke-width="1.5" stroke-linecap="round" stroke-linejoin="round"/>
<path d="M4 15C4 14.1716 4.67157 13.5 5.5 13.5H9C9.82843 13.5 10.5 14.1716 10.5 15V18.5C10.5 19.3284 9.82843 20 9 20H5.5C4.67157 20 4 19.3284 4 18.5V15Z" stroke="#323544" stroke-width="1.5" stroke-linecap="round" stroke-linejoin="round"/>
<path d="M13.5 5.5C13.5 4.67157 14.1716 4 15 4H18.5C19.3284 4 20 4.67157 20 5.5V8.99998C20 9.82841 19.3284 10.5 18.5 10.5H15C14.1716 10.5 13.5 9.82841 13.5 8.99998V5.5Z" stroke="#323544" stroke-width="1.5" stroke-linecap="round" stroke-linejoin="round"/>
<path d="M13.5 15C13.5 14.1716 14.1716 13.5 15 13.5H18.5C19.3284 13.5 20 14.1716 20 15V18.5C20 19.3284 19.3284 20 18.5 20H15C14.1716 20 13.5 19.3284 13.5 18.5V15Z" stroke="#323544" stroke-width="1.5" stroke-linecap="round" stroke-linejoin="round"/>
</svg>
