<svg width="24" height="24" viewBox="0 0 24 24" fill="none" xmlns="http://www.w3.org/2000/svg">
<path d="M12 4H7.15929C6.68293 4 6.24024 4.22573 5.95983 4.59922M12 4H16.8407C17.3171 4 17.7598 4.22573 18.0402 4.59922M12 4L9.03314 9.71311M12 4L14.9669 9.71311M3.71836 8.85233L5.82941 4.80615C5.86757 4.73301 5.91126 4.6639 5.95983 4.59922M3.71836 8.85233C3.43535 9.39477 3.51015 10.0547 3.90739 10.5201L12 20M3.71836 8.85233C3.4843 9.30094 3.94017 9.71311 4.44617 9.71311H9.03119M12 20L20.0926 10.5201C20.3161 10.2583 20.4375 9.93499 20.4506 9.60563M12 20L9.03224 9.71484M12 20L14.9678 9.71484M9.03224 9.71484L9.03314 9.71311M9.03224 9.71484L9.03119 9.71311M9.03314 9.71311H9.03119M9.03314 9.71311H14.9669M14.9669 9.71311L14.9678 9.71484M14.9669 9.71311H14.9688M14.9678 9.71484L14.9688 9.71311M18.0402 4.59922C18.0888 4.6639 18.1325 4.73301 18.1706 4.80615L20.2817 8.85233C20.4055 9.08965 20.4608 9.34946 20.4506 9.60563M18.0402 4.59922L14.9688 9.71311M14.9688 9.71311H20.3347C20.396 9.71311 20.4482 9.66697 20.4506 9.60563M9.03119 9.71311L5.95983 4.59922" stroke="#323544" stroke-width="1.5" stroke-linecap="round" stroke-linejoin="round"/>
</svg>
