<svg width="24" height="24" viewBox="0 0 24 24" fill="none" xmlns="http://www.w3.org/2000/svg">
<g clip-path="url(#clip0_1_808)">
<path d="M21.5864 11.4859C21.4835 9.53416 20.7976 7.73694 19.6996 6.26516C19.4099 6.58088 19.0542 6.92376 18.5948 7.30991C17.5057 8.2255 16.1864 9.05168 14.6201 9.7212C14.8198 10.1407 15.0035 10.5479 15.1651 10.9318L15.1666 10.935C15.1982 11.009 15.2255 11.0767 15.2785 11.2102C15.2855 11.2274 15.292 11.2436 15.2982 11.259C17.1145 11.0546 19.0291 11.1299 20.8859 11.3814C21.1327 11.4148 21.366 11.4498 21.5864 11.4859ZM10.3253 2.54556C10.534 2.83945 10.7522 3.15431 11.0164 3.54454C11.7515 4.63068 12.4752 5.77669 13.1525 6.95408C13.2899 7.19299 13.4244 7.43147 13.5557 7.66934C15.0232 7.09192 16.2355 6.36337 17.2126 5.54983C17.6077 5.22076 17.926 4.9116 18.1684 4.64366C16.5001 3.24332 14.3485 2.4 12 2.4C11.4288 2.4 10.8691 2.4499 10.3253 2.54556ZM2.70319 9.59706C3.39774 9.58142 4.1816 9.53929 5.15164 9.45022C7.08029 9.2731 9.04969 8.95499 10.9859 8.46329C10.2863 7.24465 9.52666 6.02797 8.75342 4.86454C8.38175 4.3053 8.02028 3.7799 7.74581 3.3917C5.27449 4.61536 3.40553 6.8719 2.70319 9.59706ZM4.54039 18.0432C5.00533 17.3632 5.61673 16.5977 6.42956 15.7649C8.17439 13.9774 10.2343 12.5854 12.6167 11.8168C12.65 11.8069 12.6725 11.8003 12.6912 11.7948C12.4932 11.3581 12.3074 10.9686 12.1204 10.601C9.91716 11.2424 7.59636 11.6436 5.28335 11.8514C4.15583 11.9527 3.14406 11.9977 2.4 12.0053C2.40122 14.2934 3.20298 16.3944 4.54039 18.0432ZM15.6054 20.8999C15.4801 20.2494 15.3203 19.5247 15.1079 18.6888C14.7227 17.1734 14.2402 15.6144 13.6476 14.0494C11.2454 14.9212 9.33089 16.1969 7.85171 17.7179C7.13885 18.4508 6.61493 19.1444 6.2717 19.7044C7.8707 20.8952 9.85308 21.6 12 21.6C13.2751 21.6 14.4923 21.3514 15.6054 20.8999ZM17.8534 19.6097C19.6888 18.1958 20.9982 16.1328 21.4382 13.7644C21.0304 13.6638 20.5128 13.5606 19.9435 13.4815C18.6907 13.3076 17.4017 13.2786 16.1291 13.4422C16.672 14.9717 17.117 16.4798 17.473 17.9233C17.6284 18.5537 17.755 19.123 17.8534 19.6097ZM12 24C5.37258 24 0 18.6274 0 12C0 5.37258 5.37258 0 12 0C18.6274 0 24 5.37258 24 12C24 18.6274 18.6274 24 12 24Z" fill="#374151"/>
</g>
<defs>
<clipPath id="clip0_1_808">
<rect width="24" height="24" fill="white"/>
</clipPath>
</defs>
</svg>
