<svg width="24" height="24" viewBox="0 0 24 24" fill="none" xmlns="http://www.w3.org/2000/svg">
<path d="M12.0003 12.7803V8.56073M8.1432 4.18953L4.18931 8.14364C3.90801 8.42496 3.74999 8.80649 3.75 9.20432L3.75016 14.7961C3.75017 15.1939 3.90822 15.5755 4.18953 15.8568L8.14364 19.8107C8.42496 20.092 8.80649 20.25 9.20432 20.25L14.7961 20.2498C15.1939 20.2498 15.5755 20.0917 15.8568 19.8104L19.8107 15.8563C20.092 15.575 20.25 15.1935 20.25 14.7956L20.2498 9.20384C20.2498 8.80602 20.0917 8.42449 19.8104 8.1432L15.8563 4.18931C15.575 3.90801 15.1935 3.74999 14.7956 3.75L9.20385 3.75016C8.80602 3.75017 8.42449 3.90822 8.1432 4.18953Z" stroke="#323544" stroke-width="1.5" stroke-linecap="round" stroke-linejoin="round"/>
<path d="M11.999 15.3301H11.9998" stroke="#323544" stroke-width="1.8" stroke-linecap="round" stroke-linejoin="round"/>
</svg>
