<svg width="24" height="24" viewBox="0 0 24 24" fill="none" xmlns="http://www.w3.org/2000/svg">
<path d="M20.0008 5.49609H19.2508H20.0008ZM20.0008 18.497H20.7508H20.0008ZM4.00082 11.245C3.58661 11.245 3.25082 11.5808 3.25082 11.995C3.25082 12.4092 3.58661 12.745 4.00082 12.745V11.995V11.245ZM16.0008 12.745C16.415 12.745 16.7508 12.4092 16.7508 11.995C16.7508 11.5808 16.415 11.245 16.0008 11.245V11.995V12.745ZM8.09458 17.1519C8.38738 17.4449 8.86225 17.4451 9.15524 17.1523C9.44823 16.8595 9.44838 16.3846 9.15558 16.0916L8.62508 16.6218L8.09458 17.1519ZM4.00317 11.9969L3.47272 11.4667C3.18 11.7596 3.17998 12.2342 3.47267 12.5271L4.00317 11.9969ZM9.15559 7.90191C9.44839 7.60891 9.44822 7.13404 9.15522 6.84125C8.86223 6.54846 8.38735 6.54863 8.09456 6.84162L8.62508 7.37177L9.15559 7.90191ZM15.1008 3.99609V4.74609H18.5008V3.99609V3.24609H15.1008V3.99609ZM20.0008 5.49609H19.2508L19.2508 18.497H20.0008H20.7508V5.49609H20.0008ZM18.5008 19.997V19.247H15.1008V19.997V20.747H18.5008V19.997ZM20.0008 18.497H19.2508C19.2508 18.9112 18.915 19.247 18.5008 19.247V19.997V20.747C19.7434 20.747 20.7508 19.7396 20.7508 18.497H20.0008ZM18.5008 3.99609V4.74609C18.915 4.74609 19.2508 5.08188 19.2508 5.49609H20.0008H20.7508C20.7508 4.25345 19.7434 3.24609 18.5008 3.24609V3.99609ZM15.1008 3.99609V3.24609C13.8582 3.24609 12.8508 4.25346 12.8508 5.49609H13.6008H14.3508C14.3508 5.08188 14.6866 4.74609 15.1008 4.74609V3.99609ZM15.1008 19.997V19.247C14.6866 19.247 14.3508 18.9112 14.3508 18.497H13.6008H12.8508C12.8508 19.7396 13.8582 20.747 15.1008 20.747V19.997ZM13.6008 18.497H14.3508V14.2467H13.6008H12.8508V18.497H13.6008ZM13.6008 9.74631H14.3508V5.49609H13.6008H12.8508V9.74631H13.6008ZM4.00082 11.995V12.745H4.00507V11.995V11.245H4.00082V11.995ZM4.00507 11.995L4.00507 12.745L16.0008 12.745V11.995V11.245L4.00507 11.245L4.00507 11.995ZM8.62508 16.6218L9.15558 16.0916L4.53367 11.4668L4.00317 11.9969L3.47267 12.5271L8.09458 17.1519L8.62508 16.6218ZM4.00317 11.9969L4.53362 12.5271L4.53552 12.5252L4.00507 11.995L3.47462 11.4648L3.47272 11.4667L4.00317 11.9969ZM4.00507 11.995L4.53559 12.5252L9.15559 7.90191L8.62508 7.37177L8.09456 6.84162L3.47456 11.4649L4.00507 11.995Z" fill="#343C54"/>
</svg>
