<svg width="24" height="24" viewBox="0 0 24 24" fill="none" xmlns="http://www.w3.org/2000/svg">
<path d="M21.0413 11.0492L20.3602 11.3633V11.3633L21.0413 11.0492ZM2.95862 12.951L3.63968 12.6369H3.63968L2.95862 12.951ZM21.0413 12.951L20.3602 12.6369L21.0413 12.951ZM2.95862 11.0492L3.63968 11.3633H3.63968L2.95862 11.0492ZM9.54371 4.78409C9.14053 4.87905 8.89066 5.28286 8.98561 5.68605C9.08056 6.08923 9.48438 6.3391 9.88756 6.24415L9.71564 5.51412L9.54371 4.78409ZM18.9479 14.8234C18.6765 15.1364 18.7101 15.61 19.0231 15.8814C19.336 16.1528 19.8097 16.1191 20.0811 15.8062L19.5145 15.3148L18.9479 14.8234ZM12.7644 7.69168C12.3565 7.61971 11.9675 7.89205 11.8955 8.29997C11.8235 8.70788 12.0959 9.0969 12.5038 9.16886L12.6341 8.43027L12.7644 7.69168ZM14.831 11.4953C14.9031 11.9032 15.2922 12.1754 15.7001 12.1033C16.108 12.0312 16.3802 11.6421 16.3081 11.2342L15.5695 11.3648L14.831 11.4953ZM14.5633 14.5633L15.0936 14.0329L14.5633 14.5633ZM3.28033 2.21967C2.98744 1.92678 2.51256 1.92678 2.21967 2.21967C1.92678 2.51256 1.92678 2.98744 2.21967 3.28033L2.75 2.75L3.28033 2.21967ZM20.7187 21.7794C21.0116 22.0722 21.4865 22.0722 21.7794 21.7794C22.0722 21.4865 22.0722 21.0116 21.7794 20.7187L21.249 21.249L20.7187 21.7794ZM11.9999 5.25V6C15.7032 6 18.8986 8.19429 20.3602 11.3633L21.0413 11.0492L21.7223 10.7351C20.0256 7.05633 16.3119 4.5 11.9999 4.5V5.25ZM11.9999 18.7502V18.0002C8.29674 18.0002 5.10129 15.8059 3.63968 12.6369L2.95862 12.951L2.27757 13.2652C3.97428 16.9439 7.68801 19.5002 11.9999 19.5002V18.7502ZM21.0413 11.0492L20.3602 11.3633C20.5464 11.7671 20.5464 12.2331 20.3602 12.6369L21.0413 12.951L21.7223 13.2652C22.0924 12.4627 22.0924 11.5375 21.7223 10.7351L21.0413 11.0492ZM2.95862 11.0492L2.27757 10.7351C1.90748 11.5375 1.90748 12.4627 2.27757 13.2652L2.95862 12.951L3.63968 12.6369C3.45344 12.2331 3.45344 11.7671 3.63968 11.3633L2.95862 11.0492ZM12 15.625V14.875C10.4122 14.875 9.125 13.5878 9.125 12H8.375H7.625C7.625 14.4162 9.58375 16.375 12 16.375V15.625ZM9.71564 5.51412L9.88756 6.24415C10.5651 6.08458 11.2722 6 11.9999 6V5.25V4.5C11.1556 4.5 10.3332 4.59818 9.54371 4.78409L9.71564 5.51412ZM21.0413 12.951L20.3602 12.6369C19.9929 13.4334 19.5156 14.1688 18.9479 14.8234L19.5145 15.3148L20.0811 15.8062C20.7405 15.0459 21.2951 14.1914 21.7223 13.2652L21.0413 12.951ZM12.6341 8.43027L12.5038 9.16886C13.6868 9.37758 14.6219 10.3124 14.831 11.4953L15.5695 11.3648L16.3081 11.2342C15.9893 9.43062 14.5682 8.00991 12.7644 7.69168L12.6341 8.43027ZM6.74986 6.74986L6.21953 7.28019L8.90641 9.96707L9.43674 9.43674L9.96707 8.90641L7.28019 6.21953L6.74986 6.74986ZM14.5633 14.5633L14.0329 15.0936L16.7199 17.7806L17.2502 17.2502L17.7806 16.7199L15.0936 14.0329L14.5633 14.5633ZM17.2502 17.2502L16.8533 16.6139C15.4445 17.4927 13.7824 18.0002 11.9999 18.0002V18.7502V19.5002C14.0714 19.5002 16.0074 18.9095 17.6472 17.8866L17.2502 17.2502ZM14.5633 14.5633L14.0329 14.0329C13.5118 14.554 12.7941 14.875 12 14.875V15.625V16.375C13.2079 16.375 14.3027 15.8845 15.0936 15.0936L14.5633 14.5633ZM8.375 12H9.125C9.125 11.2059 9.44597 10.4882 9.96707 9.96707L9.43674 9.43674L8.90641 8.90641C8.11551 9.69731 7.625 10.7921 7.625 12H8.375ZM2.75 2.75L2.21967 3.28033L6.21953 7.28019L6.74986 6.74986L7.28019 6.21953L3.28033 2.21967L2.75 2.75ZM9.43674 9.43674L8.90641 9.96707L14.0329 15.0936L14.5633 14.5633L15.0936 14.0329L9.96707 8.90641L9.43674 9.43674ZM17.2502 17.2502L16.7199 17.7806L20.7187 21.7794L21.249 21.249L21.7794 20.7187L17.7806 16.7199L17.2502 17.2502ZM2.95862 11.0492L3.63968 11.3633C4.39798 9.71917 5.62432 8.33588 7.14679 7.38621L6.74986 6.74986L6.35292 6.11351C4.58359 7.21716 3.15905 8.82387 2.27757 10.7351L2.95862 11.0492Z" fill="#323544"/>
</svg>
