<svg width="24" height="24" viewBox="0 0 24 24" fill="none" xmlns="http://www.w3.org/2000/svg">
<path d="M2.95862 12.951C2.68046 12.3479 2.68046 11.6523 2.95862 11.0492C4.53779 7.6253 7.99237 5.25 11.9999 5.25C16.0075 5.25 19.4621 7.62531 21.0413 11.0492C21.3194 11.6523 21.3194 12.3479 21.0413 12.951C19.4621 16.3749 16.0075 18.7502 11.9999 18.7502C7.99237 18.7502 4.53779 16.3749 2.95862 12.951Z" stroke="#323544" stroke-width="1.5" stroke-linecap="round" stroke-linejoin="round"/>
<path d="M15.625 12C15.625 14.002 14.002 15.625 12 15.625C9.99797 15.625 8.375 14.002 8.375 12C8.375 9.99797 9.99797 8.375 12 8.375C14.002 8.375 15.625 9.99797 15.625 12Z" stroke="#323544" stroke-width="1.5" stroke-linecap="round" stroke-linejoin="round"/>
</svg>
