<svg width="24" height="24" viewBox="0 0 24 24" fill="none" xmlns="http://www.w3.org/2000/svg">
<path d="M5.38427 9.00073C5.45795 8.8385 5.56064 8.68917 5.68901 8.56072L11.0567 3.18967C11.1854 3.06093 11.335 2.95799 11.4976 2.88417M5.38427 9.00073H10.0009C10.8297 9.00073 11.5015 8.32851 11.5009 7.49966L11.4976 2.88417M5.38427 9.00073C5.29661 9.19374 5.25 9.40499 5.25 9.62105V19.75C5.25 20.5784 5.92157 21.25 6.75 21.25H17.25C18.0784 21.25 18.75 20.5784 18.75 19.75V18.9854M11.4976 2.88417C11.6905 2.79658 11.9017 2.75 12.1177 2.75H17.25C18.0784 2.75 18.75 3.42157 18.75 4.25V11.7656" stroke="#323544" stroke-width="1.5" stroke-linecap="round" stroke-linejoin="round"/>
<path d="M15.1445 16.4896C15.1445 16.5097 15.1545 16.5198 15.1747 16.5198H15.6947C15.8318 16.5198 15.9446 16.4674 16.0333 16.3626C16.122 16.2538 16.1683 16.1127 16.1724 15.9393V14.8147C16.1724 14.6414 16.128 14.5023 16.0393 14.3975C15.9507 14.2886 15.8338 14.2342 15.6887 14.2342H15.1747C15.1545 14.2342 15.1445 14.2443 15.1445 14.2645V16.4896Z" fill="#323544"/>
<path d="M12.3949 14.99C12.3062 15.0666 12.1873 15.1049 12.0382 15.1049H11.5303C11.5101 15.1049 11.5 15.0949 11.5 15.0747V14.2645C11.5 14.2443 11.5101 14.2342 11.5303 14.2342H12.0382C12.1873 14.2342 12.3062 14.2745 12.3949 14.3552C12.4876 14.4358 12.534 14.5426 12.534 14.6756C12.534 14.8046 12.4876 14.9094 12.3949 14.99Z" fill="#323544"/>
<path fill-rule="evenodd" clip-rule="evenodd" d="M10.5 11.75C9.67157 11.75 9 12.4216 9 13.25V17.5058C9 18.3342 9.67157 19.0058 10.5 19.0058H20.5C21.3284 19.0058 22 18.3342 22 17.5058V13.25C22 12.4216 21.3284 11.75 20.5 11.75H10.5ZM20.7796 14.21C20.7957 14.1939 20.8038 14.1718 20.8038 14.1435V13.3514C20.8038 13.3232 20.7957 13.3011 20.7796 13.2849C20.7635 13.2688 20.7413 13.2607 20.7131 13.2607H17.835C17.8068 13.2607 17.7846 13.2688 17.7685 13.2849C17.7523 13.3011 17.7443 13.3232 17.7443 13.3514V17.4026C17.7443 17.4308 17.7523 17.453 17.7685 17.4691C17.7846 17.4852 17.8068 17.4933 17.835 17.4933H18.7903C18.8185 17.4933 18.8407 17.4852 18.8568 17.4691C18.873 17.453 18.881 17.4308 18.881 17.4026V15.8607C18.881 15.8406 18.8911 15.8305 18.9113 15.8305H20.0299C20.0581 15.8305 20.0802 15.8224 20.0964 15.8063C20.1125 15.7902 20.1206 15.768 20.1206 15.7398V14.9538C20.1206 14.9255 20.1125 14.9034 20.0964 14.8873C20.0802 14.8711 20.0581 14.8631 20.0299 14.8631H18.9113C18.8911 14.8631 18.881 14.853 18.881 14.8328V14.2645C18.881 14.2443 18.8911 14.2342 18.9113 14.2342H20.7131C20.7413 14.2342 20.7635 14.2262 20.7796 14.21ZM14.0984 17.4933C14.0702 17.4933 14.048 17.4852 14.0319 17.4691C14.0158 17.453 14.0077 17.4308 14.0077 17.4026V13.3514C14.0077 13.3232 14.0158 13.3011 14.0319 13.2849C14.048 13.2688 14.0702 13.2607 14.0984 13.2607H15.6524C15.9789 13.2607 16.2671 13.3172 16.517 13.43C16.771 13.5429 16.9665 13.7021 17.1035 13.9077C17.2406 14.1133 17.3091 14.3511 17.3091 14.6212V16.1328C17.3091 16.4029 17.2406 16.6407 17.1035 16.8463C16.9665 17.0519 16.771 17.2111 16.517 17.324C16.2671 17.4369 15.9789 17.4933 15.6524 17.4933H14.0984ZM12.9814 13.4361C12.7637 13.3192 12.5118 13.2607 12.2256 13.2607H10.454C10.4258 13.2607 10.4036 13.2688 10.3875 13.2849C10.3713 13.3011 10.3633 13.3232 10.3633 13.3514V17.4026C10.3633 17.4308 10.3713 17.453 10.3875 17.4691C10.4036 17.4852 10.4258 17.4933 10.454 17.4933H11.4093C11.4375 17.4933 11.4597 17.4852 11.4758 17.4691C11.492 17.453 11.5 17.4308 11.5 17.4026V16.0421C11.5 16.022 11.5101 16.0119 11.5303 16.0119H12.1712C12.4655 16.0119 12.7255 15.9555 12.9512 15.8426C13.1769 15.7297 13.3523 15.5705 13.4772 15.3649C13.6022 15.1593 13.6647 14.9215 13.6647 14.6514C13.6647 14.3773 13.6042 14.1355 13.4833 13.9259C13.3664 13.7122 13.1991 13.549 12.9814 13.4361Z" fill="#323544"/>
</svg>
