<svg width="24" height="24" viewBox="0 0 24 24" fill="none" xmlns="http://www.w3.org/2000/svg">
<path d="M15.293 15.2949H15.2983" stroke="#323544" stroke-width="1.6" stroke-linecap="round" stroke-linejoin="round"/>
<path d="M19.0763 20.5763H14.1737C13.4488 20.5763 12.844 20.0622 12.7041 19.3786C12.6964 19.3409 12.6901 19.3027 12.6853 19.264L14.2792 18.3378C14.7444 18.0798 15.3114 18.0875 15.7694 18.358L16.5632 18.8269C17.5145 19.3887 18.7217 19.2595 19.5326 18.5091L20.5763 17.5432V19.0763C20.5763 19.9048 19.9048 20.5763 19.0763 20.5763Z" fill="#323544"/>
<path d="M9 21.25H6.75C5.92157 21.25 5.25 20.5784 5.25 19.75V9.62105C5.25 9.40499 5.29661 9.19374 5.38427 9.00073M18.75 9V4.25C18.75 3.42157 18.0784 2.75 17.25 2.75H12.1177C11.9017 2.75 11.6905 2.79658 11.4976 2.88417M5.38427 9.00073C5.45795 8.8385 5.56064 8.68917 5.68901 8.56072L11.0567 3.18967C11.1854 3.06093 11.335 2.95799 11.4976 2.88417M5.38427 9.00073H10.0009C10.8297 9.00073 11.5015 8.32851 11.5009 7.49966L11.4976 2.88417M14.1737 20.5763H19.0763C19.9048 20.5763 20.5763 19.9048 20.5763 19.0763V17.5432M14.1737 20.5763C13.3452 20.5763 12.6737 19.9048 12.6737 19.0763V14.1737C12.6737 13.3452 13.3452 12.6737 14.1737 12.6737H19.0763C19.9048 12.6737 20.5763 13.3452 20.5763 14.1737V17.5432M14.1737 20.5763C13.4488 20.5763 12.844 20.0622 12.7041 19.3786C12.6964 19.3409 12.6901 19.3027 12.6853 19.264L14.2792 18.3378C14.7444 18.0798 15.3114 18.0875 15.7694 18.358L16.5632 18.8269C17.5145 19.3887 18.7217 19.2595 19.5326 18.5091L20.5763 17.5432" stroke="#323544" stroke-width="1.5" stroke-linecap="round" stroke-linejoin="round"/>
</svg>
