<svg width="24" height="24" viewBox="0 0 24 24" fill="none" xmlns="http://www.w3.org/2000/svg">
<path d="M15.0016 14.5H9.00156M12.0016 17.5H9.00156M5.38583 9.00073C5.45951 8.8385 5.56219 8.68917 5.69057 8.56072L11.0583 3.18967C11.1869 3.06093 11.3366 2.95799 11.4992 2.88417M5.38583 9.00073H10.0024C10.8313 9.00073 11.503 8.32851 11.5024 7.49966L11.4992 2.88417M5.38583 9.00073C5.29817 9.19374 5.25156 9.40499 5.25156 9.62105V19.75C5.25156 20.5784 5.92313 21.25 6.75156 21.25H17.2516C18.08 21.25 18.7516 20.5784 18.7516 19.75V4.25C18.7516 3.42157 18.08 2.75 17.2516 2.75H12.1192C11.9033 2.75 11.6921 2.79658 11.4992 2.88417" stroke="#323544" stroke-width="1.5" stroke-linecap="round" stroke-linejoin="round"/>
</svg>
