<svg width="24" height="24" viewBox="0 0 24 24" fill="none" xmlns="http://www.w3.org/2000/svg">
<path d="M7.79565 21.25H15.1545C17.3636 21.25 19.1545 19.4592 19.1545 17.25V5.68311M13.0053 12.5867H7.98281M10.4941 15.098H7.98281M4.97808 7.98336C5.05175 7.82118 5.15442 7.67189 5.28276 7.54346L9.63285 3.19065C9.76145 3.06197 9.91102 2.95906 10.0735 2.88525M4.97808 7.98336H8.57609C9.40493 7.98336 10.0767 7.31114 10.0761 6.48229L10.0735 2.88525M4.97808 7.98336C4.89038 8.1764 4.84375 8.38769 4.84375 8.60379V16.737C4.84375 17.5654 5.51532 18.237 6.34375 18.237H14.6444C15.4728 18.237 16.1444 17.5654 16.1444 16.737V4.25098C16.1444 3.42255 15.4728 2.75098 14.6444 2.75098H10.6938C10.4778 2.75098 10.2665 2.79759 10.0735 2.88525" stroke="#323544" stroke-width="1.5" stroke-linecap="round" stroke-linejoin="round"/>
</svg>
