<svg width="24" height="24" viewBox="0 0 24 24" fill="none" xmlns="http://www.w3.org/2000/svg">
<path d="M18.899 16.375V16.875L21.1978 18.375V14.875L18.899 16.375Z" fill="#323544"/>
<path d="M9 21.25H6.75C5.92157 21.25 5.25 20.5784 5.25 19.75V9.62105C5.25 9.40499 5.29661 9.19374 5.38427 9.00073M18.75 9V4.25C18.75 3.42157 18.0784 2.75 17.25 2.75H12.1177C11.9017 2.75 11.6905 2.79658 11.4976 2.88417M5.38427 9.00073C5.45795 8.8385 5.56064 8.68917 5.68901 8.56072L11.0567 3.18967C11.1854 3.06093 11.335 2.95799 11.4976 2.88417M5.38427 9.00073H10.0009C10.8297 9.00073 11.5015 8.32851 11.5009 7.49966L11.4976 2.88417M13.5518 19.905H17.399C18.2275 19.905 18.899 19.2335 18.899 18.405V14.845C18.899 14.0165 18.2275 13.345 17.399 13.345H13.5518C12.7233 13.345 12.0518 14.0165 12.0518 14.845V18.405C12.0518 19.2335 12.7233 19.905 13.5518 19.905ZM18.899 16.375L21.1978 14.875V18.375L18.899 16.875V16.375Z" stroke="#323544" stroke-width="1.5" stroke-linecap="round" stroke-linejoin="round"/>
</svg>
