<svg width="24" height="24" viewBox="0 0 24 24" fill="none" xmlns="http://www.w3.org/2000/svg">
<path d="M9.5625 19.5H4.25C3.42157 19.5 2.75 18.8284 2.75 18V6C2.75 5.17157 3.42157 4.5 4.25 4.5H8.5C8.97214 4.5 9.41672 4.72229 9.7 5.1L11.05 6.9C11.3333 7.27771 11.7779 7.5 12.25 7.5H19.75C20.5784 7.5 21.25 8.17157 21.25 9V10.5664M15 16.6249H18.2502M16.6251 14.9999V18.2501M21.25 16.625C21.25 19.1793 19.1793 21.25 16.625 21.25C14.0707 21.25 12 19.1793 12 16.625C12 14.0707 14.0707 12 16.625 12C19.1793 12 21.25 14.0707 21.25 16.625Z" stroke="#374151" stroke-width="1.5" stroke-linecap="round" stroke-linejoin="round"/>
</svg>
