<svg width="24" height="24" viewBox="0 0 24 24" fill="none" xmlns="http://www.w3.org/2000/svg">
<path d="M4.5 4.25C4.5 3.42157 5.17157 2.75 6 2.75H17.25C18.0784 2.75 18.75 3.42157 18.75 4.25V5.61053C18.75 6.26854 18.5337 6.9083 18.1343 7.43127L13.8078 13.0969C13.6082 13.3583 13.5 13.6782 13.5 14.0072V20.2455C13.5 21.0228 12.652 21.5029 11.9855 21.103L10.4783 20.1987C10.0264 19.9276 9.75 19.4393 9.75 18.9124V14.0072C9.75 13.6782 9.64183 13.3583 9.44215 13.0969L5.1157 7.43127C4.71634 6.9083 4.5 6.26854 4.5 5.61053V4.25Z" stroke="#374151" stroke-width="1.5" stroke-linecap="round" stroke-linejoin="round"/>
</svg>
