<svg width="24" height="24" viewBox="0 0 24 24" fill="none" xmlns="http://www.w3.org/2000/svg">
<path d="M20 16.1492L15.6656 11.4736C15.4812 11.2723 15.2206 11.1577 14.9476 11.1577C14.6893 11.1577 14.4415 11.2604 14.2589 11.443L10.3917 15.3102C10.3878 15.3141 10.3814 15.3141 10.3775 15.3102L8.58708 13.5198C8.40635 13.339 8.16125 13.2375 7.90567 13.2375C7.6304 13.2375 7.36828 13.3552 7.18541 13.561L4 16.9811M20 16.1492V5.5C20 4.67157 19.3284 4 18.5 4H5.5C4.67157 4 4 4.67157 4 5.5V16.9811M20 16.1492V18.5C20 19.3284 19.3284 20 18.5 20H5.5C4.67157 20 4 19.3284 4 18.5V16.9811M10.3846 9.07793C10.3846 9.76711 9.8259 10.3258 9.13672 10.3258C8.44754 10.3258 7.88885 9.76711 7.88885 9.07793C7.88885 8.38875 8.44754 7.83006 9.13672 7.83006C9.8259 7.83006 10.3846 8.38875 10.3846 9.07793Z" stroke="#374151" stroke-width="1.5"/>
</svg>
