<svg width="24" height="24" viewBox="0 0 24 24" fill="none" xmlns="http://www.w3.org/2000/svg">
<path d="M6.77623 5.51906C6.06635 5.10922 5.15854 5.35238 4.7487 6.06225L3.2327 8.68803C2.82295 9.39774 3.06612 10.3052 3.77583 10.715C4.76504 11.2861 4.76506 12.7139 3.77584 13.285C3.06614 13.6948 2.82298 14.6023 3.23272 15.312L4.74873 17.9378C5.15857 18.6476 6.06638 18.8908 6.77625 18.481C7.76557 17.9098 9.00239 18.6237 9.00239 19.766C9.00239 20.5856 9.66679 21.25 10.4864 21.25H13.5188C14.3382 21.25 15.0024 20.5856 15.0024 19.7663C15.0024 18.6243 16.2386 17.9104 17.2276 18.4813C17.9371 18.891 18.8443 18.6479 19.254 17.9384L20.7704 15.3119C21.1801 14.6022 20.9369 13.6948 20.2273 13.285C19.2381 12.7139 19.2381 11.2861 20.2273 10.715C20.937 10.3053 21.1801 9.39779 20.7704 8.6881L19.254 6.06167C18.8444 5.35214 17.9371 5.10904 17.2276 5.51869C16.2386 6.08967 15.0024 5.37573 15.0024 4.23377C15.0024 3.41437 14.3381 2.75 13.5187 2.75L10.4864 2.75C9.6668 2.75 9.00239 3.41441 9.00239 4.23399C9.00239 5.37637 7.76555 6.09025 6.77623 5.51906Z" stroke="#323544" stroke-width="1.5" stroke-linecap="round" stroke-linejoin="round"/>
<path d="M15.0865 11.9999C15.0865 13.7037 13.7053 15.0849 12.0015 15.0849C10.2977 15.0849 8.91647 13.7037 8.91647 11.9999C8.91647 10.2961 10.2977 8.91493 12.0015 8.91493C13.7053 8.91493 15.0865 10.2961 15.0865 11.9999Z" stroke="#323544" stroke-width="1.5" stroke-linecap="round" stroke-linejoin="round"/>
</svg>
