<svg width="24" height="24" viewBox="0 0 24 24" fill="none" xmlns="http://www.w3.org/2000/svg">
<path d="M20.2657 11.9977H21.25M2.75 11.9977H3.73431M10.3604 11.9986C10.3604 11.0929 11.0945 10.3587 12.0002 10.3587C12.8856 10.3587 13.6071 11.0604 13.639 11.9379M13.6401 11.9986C13.6401 11.9783 13.6397 11.9581 13.639 11.9379M13.639 11.9379C13.6386 11.9581 13.6385 11.9783 13.6385 11.9986C13.6385 13.8282 15.1231 15.3128 16.9527 15.3128C18.7823 15.3128 20.2655 13.8296 20.2655 12C20.2655 10.1704 18.7823 8.68719 16.9527 8.68719C15.1433 8.68719 13.6714 10.1363 13.639 11.9379ZM10.3604 12C10.3604 13.8296 8.87683 15.3128 7.0472 15.3128C5.21758 15.3128 3.73438 13.8296 3.73438 12C3.73438 10.1704 5.21758 8.68719 7.0472 8.68719C8.87683 8.68719 10.3604 10.1704 10.3604 12Z" stroke="#323544" stroke-width="1.5" stroke-linecap="round" stroke-linejoin="round"/>
</svg>
