<svg width="24" height="24" viewBox="0 0 24 24" fill="none" xmlns="http://www.w3.org/2000/svg">
<path d="M12.001 2.75024C17.1091 2.75024 21.2501 6.89202 21.2501 12.0001C21.2501 17.1082 17.1091 21.25 12.001 21.25M12.001 2.75024C6.89289 2.75024 2.75195 6.89203 2.75195 12.0001C2.75195 17.1082 6.8929 21.25 12.001 21.25M12.001 2.75024C14.2097 2.75024 16.0005 6.89165 16.0005 11.9996C16.0005 17.1075 14.2098 21.25 12.001 21.25M12.001 2.75024C9.79226 2.75024 8.00195 6.89165 8.00195 11.9996C8.00195 17.1076 9.79226 21.25 12.001 21.25M3.24561 9H20.7544M3.24561 15H20.7544" stroke="#323544" stroke-width="1.5" stroke-linecap="round" stroke-linejoin="round"/>
</svg>
