<svg width="24" height="24" viewBox="0 0 24 24" fill="none" xmlns="http://www.w3.org/2000/svg">
<path d="M16.8314 7.21109C16.8171 5.66188 16.0365 4.4786 15.1666 3.81083C12.8978 2.06911 9.07688 2.8375 7.84737 3.5438C4.10826 5.69175 4.61035 10.8032 6.54808 15.5643C6.77094 16.1119 7.31057 16.4578 7.90175 16.4578H13.7854C13.9712 16.4578 14.1569 16.4268 14.3221 16.3418C16.9442 14.9927 21.7158 7.99136 16.8314 7.21109ZM16.8314 7.21109C16.8424 8.40257 16.33 9.78164 14.8243 11.2137M14.44 16.2781V19.7495C14.44 20.578 13.7685 21.2495 12.94 21.2495H8.44004C7.61161 21.2495 6.94004 20.578 6.94004 19.7495V16.1064" stroke="#374151" stroke-width="1.5" stroke-linecap="round" stroke-linejoin="round"/>
</svg>
