<svg width="24" height="24" viewBox="0 0 24 24" fill="none" xmlns="http://www.w3.org/2000/svg">
<path d="M19 3.5C19 3.77614 18.7761 4 18.5 4C18.2239 4 18 3.77614 18 3.5C18 3.22386 18.2239 3 18.5 3C18.7761 3 19 3.22386 19 3.5Z" fill="#323544"/>
<path d="M5.82812 14.7692L7.85582 13.1483C8.30319 12.7907 8.8433 12.5641 9.41604 12.5615C10.2167 12.5579 11.4338 12.6332 12.489 13.0354C12.5216 13.0478 12.5561 13.0544 12.591 13.0544H15.273C15.8461 13.0544 16.3107 13.519 16.3107 14.0921C16.3107 14.3729 16.1991 14.6277 16.0178 14.8145M12.5382 15.1297H15.273C15.5653 15.1297 15.8293 15.0089 16.0178 14.8145M8.14084 19.3378L9.06194 18.5043C9.33773 18.2548 9.69641 18.1166 10.0683 18.1166H16.2415C16.6145 18.1166 16.9672 17.9472 17.2003 17.6561L21.0669 12.8275C21.3184 12.5134 21.3077 12.064 21.0417 11.7622C20.748 11.4292 20.2438 11.387 19.899 11.6668L16.0178 14.8145M15.8992 14.9108L16.0178 14.8145M17.2499 7.5C17.2499 8.32843 16.5783 9 15.7499 9C14.9214 9 14.2499 8.32843 14.2499 7.5C14.2499 6.67157 14.9214 6 15.7499 6C16.5783 6 17.2499 6.67157 17.2499 7.5ZM2.75 16.056L5.3266 14.5684L8.32527 19.7623L5.74867 21.2499L2.75 16.056ZM19 3.5C19 3.77614 18.7761 4 18.5 4C18.2239 4 18 3.77614 18 3.5C18 3.22386 18.2239 3 18.5 3C18.7761 3 19 3.22386 19 3.5Z" stroke="#323544" stroke-width="1.5" stroke-linecap="round" stroke-linejoin="round"/>
</svg>
