<svg width="24" height="24" viewBox="0 0 24 24" fill="none" xmlns="http://www.w3.org/2000/svg">
<path d="M11.3977 7.07126L10.6044 6.53796C9.76531 5.97394 8.65308 6.03882 7.88529 6.69659L5.93735 8.36541C5.66552 8.59829 5.31938 8.72628 4.96145 8.72628H2.75018V14.7558H4.83784C5.26901 14.7558 5.67933 14.9413 5.96411 15.2651L8.30335 17.9244C8.8058 18.4956 9.65629 18.6002 10.2822 18.1678L11.2766 17.4808L12.3675 17.8509C12.9879 18.0614 13.6731 17.8449 14.06 17.3162L14.7934 16.314L15.5615 16.4175C16.1776 16.5006 16.7811 16.195 17.0788 15.6492L17.3409 15.1688M13.9679 10.305L11.376 12.3407C10.7899 12.801 9.95469 12.7612 9.41501 12.2472L9.34692 12.1824C8.73781 11.6023 8.72465 10.6349 9.31775 10.0385L12.2822 7.05744C13.3932 5.94023 15.1791 5.87283 16.3712 6.90312L18.0581 8.36114C18.3306 8.59667 18.6787 8.72628 19.0389 8.72628H21.2502V15.1688H17.3409M13.9679 10.305L14.5045 9.88356M13.9679 10.305L17.095 13.3121C17.5824 13.7809 17.6959 14.5178 17.3721 15.1115L17.3409 15.1688" stroke="#374151" stroke-width="1.5" stroke-linecap="round" stroke-linejoin="round"/>
</svg>
