<svg width="24" height="24" viewBox="0 0 24 24" fill="none" xmlns="http://www.w3.org/2000/svg">
<path d="M7.50015 12.0004H10.5001M10.5001 12.0004V15.2801M10.5001 12.0004L10.5001 8.72009M7.50009 8.72009V15.2804M13.5001 8.72009V15.2804L15.0002 15.2802C15.8286 15.2802 16.5001 14.6086 16.5001 13.7802V10.2201C16.5001 9.39167 15.8285 8.72009 15.0001 8.72009H13.5001ZM4.25 5.25H19.75C20.5784 5.25 21.25 5.92157 21.25 6.75V17.25C21.25 18.0784 20.5784 18.75 19.75 18.75H4.25C3.42157 18.75 2.75 18.0784 2.75 17.25V6.75C2.75 5.92157 3.42157 5.25 4.25 5.25Z" stroke="#374151" stroke-width="1.5" stroke-linecap="round" stroke-linejoin="round"/>
</svg>
