<svg width="24" height="24" viewBox="0 0 24 24" fill="none" xmlns="http://www.w3.org/2000/svg">
<path d="M10.6504 3.70337C11.4503 3.10369 12.5497 3.10369 13.3496 3.70337L19.8496 8.57837C20.4161 9.00322 20.7499 9.6701 20.75 10.3782V18.4993C20.75 19.7419 19.7426 20.7493 18.5 20.7493H12.0195C12.013 20.7494 12.0065 20.7502 12 20.7502C11.9935 20.7502 11.987 20.7494 11.9805 20.7493H5.5C4.25736 20.7493 3.25 19.7419 3.25 18.4993V10.3782C3.25011 9.6701 3.58392 9.00322 4.15039 8.57837L10.6504 3.70337ZM12.4502 4.90356C12.1836 4.70373 11.8164 4.70373 11.5498 4.90356L5.0498 9.77856C4.86123 9.92015 4.75011 10.1424 4.75 10.3782V18.4993C4.75 18.9135 5.08579 19.2493 5.5 19.2493H11.25V16.2502C11.25 15.836 11.5858 15.5002 12 15.5002C12.4142 15.5002 12.75 15.836 12.75 16.2502V19.2493H18.5C18.9142 19.2493 19.25 18.9135 19.25 18.4993V10.3782C19.2499 10.1424 19.1388 9.92015 18.9502 9.77856L12.4502 4.90356Z" fill="#374151"/>
</svg>
