<svg width="24" height="24" viewBox="0 0 24 24" fill="none" xmlns="http://www.w3.org/2000/svg">
<path d="M8.4585 8.98486C8.94175 8.98486 9.3335 9.37661 9.3335 9.85986C9.3335 10.3431 8.94175 10.7349 8.4585 10.7349C7.97525 10.7349 7.5835 10.3431 7.5835 9.85986C7.5835 9.37661 7.97525 8.98486 8.4585 8.98486Z" fill="#323544" stroke="#323544" stroke-width="1.5" stroke-linejoin="round"/>
<path d="M18.25 10.5H14.15M16.1504 13.5H14.1504M2.75 17.25V6.75C2.75 5.92157 3.42157 5.25 4.25 5.25H19.75C20.5784 5.25 21.25 5.92157 21.25 6.75V17.25C21.25 18.0784 20.5784 18.75 19.75 18.75H4.25C3.42157 18.75 2.75 18.0784 2.75 17.25ZM11.156 15.2555H5.75098V14.3253C5.75098 13.5033 6.41734 12.8369 7.23935 12.8369H9.66766C10.4897 12.8369 11.156 13.5033 11.156 14.3253V15.2555Z" stroke="#323544" stroke-width="1.5" stroke-linecap="round" stroke-linejoin="round"/>
</svg>
