<svg width="24" height="24" viewBox="0 0 24 24" fill="none" xmlns="http://www.w3.org/2000/svg">
<g clip-path="url(#clip0_1_806)">
<path d="M13.233 0C14.5835 0.00223208 15.2679 0.00938437 15.8593 0.026989L16.0922 0.0345973C16.3613 0.0441617 16.6267 0.056162 16.9468 0.0711625C18.2237 0.130169 19.0949 0.332172 19.8599 0.629183C20.6508 0.934198 21.3189 1.34621 21.9859 2.01324C22.6519 2.68026 23.064 3.35028 23.37 4.13931C23.6659 4.90334 23.868 5.77538 23.928 7.05242C23.9423 7.37243 23.9538 7.63788 23.9633 7.90698L23.9709 8.1399C23.9884 8.73121 23.9964 9.4157 23.9989 10.7663L23.9999 11.661C24 11.7704 24 11.8832 24 11.9996L23.9999 12.3381L23.9992 13.233C23.9969 14.5835 23.9898 15.268 23.9722 15.8593L23.9645 16.0922C23.955 16.3614 23.943 16.6268 23.928 16.9467C23.869 18.2238 23.6659 19.0948 23.37 19.8598C23.065 20.6509 22.6519 21.319 21.9859 21.986C21.3189 22.652 20.6478 23.064 19.8599 23.37C19.0949 23.666 18.2237 23.868 16.9468 23.928C16.6267 23.9423 16.3613 23.9539 16.0922 23.9633L15.8593 23.9708C15.2679 23.9885 14.5835 23.9964 13.233 23.999L12.3381 24C12.2288 24 12.116 24 11.9996 24H11.6611L10.7662 23.9992C9.41566 23.997 8.73118 23.9898 8.13985 23.9722L7.90695 23.9646C7.63784 23.955 7.37239 23.943 7.05239 23.928C5.77534 23.8691 4.9053 23.666 4.13928 23.37C3.34924 23.065 2.68022 22.652 2.0132 21.986C1.34618 21.319 0.935164 20.6479 0.629153 19.8598C0.332142 19.0948 0.131134 18.2238 0.0711323 16.9467C0.0568758 16.6268 0.0452472 16.3614 0.0358268 16.0922L0.0282786 15.8593C0.010722 15.268 0.00271779 14.5835 0.0001257 13.233L-3.05176e-05 10.7663C0.00220156 9.4157 0.00934184 8.73121 0.0269465 8.1399L0.0345668 7.90698C0.0441312 7.63788 0.0561318 7.37243 0.0711323 7.05242C0.130126 5.77437 0.332142 4.90434 0.629153 4.13931C0.934156 3.34929 1.34618 2.68026 2.0132 2.01324C2.68022 1.34621 3.35025 0.935194 4.13928 0.629183C4.90431 0.332172 5.77434 0.131165 7.05239 0.0711625C7.37239 0.056918 7.63784 0.0452897 7.90695 0.0358694L8.13985 0.0283209C8.73118 0.0107522 9.41566 0.00274803 10.7662 0.000155931L13.233 0ZM11.9996 5.99938C8.68397 5.99938 5.99935 8.68691 5.99935 11.9996C5.99935 15.3152 8.68688 17.9998 11.9996 17.9998C15.3152 17.9998 17.9998 15.3123 17.9998 11.9996C17.9998 8.684 15.3122 5.99938 11.9996 5.99938ZM11.9996 8.39947C13.9879 8.39947 15.5997 10.0107 15.5997 11.9996C15.5997 13.9879 13.9884 15.5997 11.9996 15.5997C10.0112 15.5997 8.39944 13.9885 8.39944 11.9996C8.39944 10.0112 10.0106 8.39947 11.9996 8.39947ZM18.2998 4.19931C17.4726 4.19931 16.7998 4.87123 16.7998 5.69835C16.7998 6.52548 17.4717 7.19843 18.2998 7.19843C19.1269 7.19843 19.7999 6.52652 19.7999 5.69835C19.7999 4.87123 19.1258 4.19828 18.2998 4.19931Z" fill="#374151"/>
</g>
<defs>
<clipPath id="clip0_1_806">
<rect width="24" height="24" fill="white"/>
</clipPath>
</defs>
</svg>
