<svg width="24" height="24" viewBox="0 0 24 24" fill="none" xmlns="http://www.w3.org/2000/svg">
<path d="M16.6152 18.25H16.6252" stroke="#323544" stroke-width="1.6" stroke-linecap="round" stroke-linejoin="round"/>
<path d="M4.75013 13.9468V5.5C4.75013 4.67157 5.4217 4 6.25013 4H17.7501C18.5785 4 19.2501 4.67157 19.2501 5.5V9M4.75013 13.9468C5.02602 13.6671 5.40763 13.5 5.81822 13.5H9M4.75013 13.9468C4.59644 14.1025 4.47556 14.2932 4.40074 14.5093L3.1892 18.0093C2.85192 18.9837 3.57558 20 4.60668 20H9M14.8447 21.25H18.4048C19.2332 21.25 19.9048 20.5784 19.9048 19.75V13.5C19.9048 12.6716 19.2332 12 18.4048 12H14.8447C14.0163 12 13.3447 12.6716 13.3447 13.5V19.75C13.3447 20.5784 14.0163 21.25 14.8447 21.25Z" stroke="#323544" stroke-width="1.5" stroke-linecap="round" stroke-linejoin="round"/>
</svg>
