<svg width="24" height="24" viewBox="0 0 24 24" fill="none" xmlns="http://www.w3.org/2000/svg">
<path d="M5.36506 11.1582L4.33128 11.5287C3.88957 11.6871 3.88957 12.3117 4.33128 12.4701L11.4942 15.0378C11.8214 15.1551 12.1793 15.1551 12.5065 15.0378L19.6695 12.4701C20.1112 12.3117 20.1112 11.6871 19.6695 11.5287L18.6357 11.1582M5.36506 16.0324L4.33128 16.403C3.88957 16.5613 3.88957 17.186 4.33128 17.3443L11.4942 19.912C11.8214 20.0293 12.1793 20.0293 12.5065 19.912L19.6695 17.3443C20.1112 17.186 20.1112 16.5613 19.6695 16.403L18.6357 16.0324M11.4942 4.08798L4.33128 6.65567C3.88957 6.81401 3.88957 7.43868 4.33128 7.59702L11.4942 10.1647C11.8214 10.282 12.1793 10.282 12.5065 10.1647L19.6695 7.59702C20.1112 7.43868 20.1112 6.81401 19.6695 6.65567L12.5065 4.08798C12.1793 3.97067 11.8214 3.97067 11.4942 4.08798Z" stroke="#323544" stroke-width="1.5" stroke-linecap="round" stroke-linejoin="round"/>
</svg>
