<svg width="24" height="24" viewBox="0 0 24 24" fill="none" xmlns="http://www.w3.org/2000/svg">
<path d="M7.375 8.24756H16.75C19.2353 8.24756 21.25 10.2623 21.25 12.7476V18.7476C21.25 19.576 20.5784 20.2476 19.75 20.2476H7.375M7.375 8.24756C9.92932 8.24756 12 10.3182 12 12.8726V20.2476H4.25C3.42157 20.2476 2.75 19.576 2.75 18.7476V12.8726C2.75 10.3182 4.82068 8.24756 7.375 8.24756ZM13.8594 8.24756V5.24957M13.8594 5.24957L13.8595 4.50232C13.8596 4.08815 14.1953 3.75244 14.6095 3.75244H16.5012C16.9147 3.75244 17.2498 4.08766 17.2498 4.50113C17.2497 4.9145 16.9146 5.24957 16.5012 5.24957H13.8594Z" stroke="#323544" stroke-width="1.5" stroke-linecap="round" stroke-linejoin="round"/>
</svg>
