<svg width="24" height="24" viewBox="0 0 24 24" fill="none" xmlns="http://www.w3.org/2000/svg">
<path d="M11.8714 6.81602C11.9105 6.83555 11.9417 6.88242 11.9886 6.88242C12.0316 6.88242 12.098 6.86679 12.1019 6.82383C12.1097 6.76915 12.0277 6.73399 11.9769 6.71056C11.9105 6.68322 11.8246 6.6715 11.7621 6.70665C11.7464 6.71446 11.7308 6.73399 11.7386 6.74962C11.7504 6.80039 11.8285 6.79258 11.8714 6.81602ZM11.016 6.88242C11.0629 6.88242 11.0942 6.83555 11.1332 6.81602C11.1762 6.79258 11.2543 6.80039 11.2699 6.75352C11.2777 6.7379 11.2621 6.71837 11.2465 6.71056C11.184 6.6754 11.0981 6.68712 11.0317 6.71446C10.9809 6.7379 10.8989 6.77305 10.9067 6.82773C10.9106 6.86679 10.977 6.88632 11.016 6.88242ZM19.652 17.7721C19.5114 17.6159 19.445 17.319 19.3708 17.0027C19.3005 16.6863 19.2185 16.3465 18.9607 16.1277C18.9099 16.0848 18.8591 16.0457 18.8045 16.0145C18.7537 15.9832 18.699 15.9559 18.6443 15.9364C19.0037 14.87 18.863 13.8076 18.4998 12.8468C18.0545 11.6711 17.2772 10.6438 16.6835 9.94076C16.0156 9.10098 15.3672 8.30417 15.379 7.12849C15.3985 5.33567 15.5782 2.00392 12.4183 2.00001C8.4186 1.9922 9.41852 6.03874 9.37555 7.28082C9.30915 8.19481 9.12557 8.9135 8.49672 9.80796C7.7585 10.6868 6.71952 12.1046 6.22738 13.585C5.99302 14.2841 5.88366 14.995 5.98521 15.6668C5.73132 15.8934 5.53993 16.241 5.33683 16.4558C5.17278 16.6238 4.93452 16.6863 4.67282 16.78C4.41112 16.8738 4.12599 17.0144 3.95022 17.3464C3.8682 17.4987 3.84086 17.6628 3.84086 17.8307C3.84086 17.9831 3.86429 18.1393 3.88773 18.2916C3.9346 18.608 3.98538 18.9049 3.91898 19.1041C3.71587 19.6665 3.68853 20.0571 3.83304 20.3422C3.98147 20.6274 4.27832 20.7524 4.61814 20.8227C5.29386 20.9633 6.21175 20.9281 6.93435 21.3109C7.70772 21.7171 8.49281 21.8616 9.11776 21.7171C9.57085 21.6156 9.94191 21.3422 10.1294 20.9281C10.6176 20.9242 11.1567 20.7172 12.016 20.6703C12.5979 20.6235 13.3283 20.8773 14.1681 20.8305C14.1916 20.9203 14.2228 21.0101 14.2658 21.0922V21.0961C14.59 21.7484 15.1954 22.0452 15.8399 21.9944C16.4882 21.9437 17.1718 21.5648 17.7264 20.9047C18.2576 20.2641 19.1326 19.9985 19.7145 19.647C20.0036 19.4712 20.2379 19.2525 20.2575 18.9322C20.2731 18.6119 20.0856 18.2565 19.652 17.7721ZM11.9847 5.40988C12.3675 4.54277 13.3205 4.55839 13.7033 5.39426C13.9572 5.9489 13.8439 6.60119 13.5354 6.97225C13.4729 6.94101 13.3049 6.8707 13.0432 6.78086C13.0862 6.73399 13.1643 6.6754 13.1955 6.60119C13.383 6.14029 13.1877 5.54659 12.8401 5.53487C12.555 5.51534 12.2972 5.95671 12.3792 6.43324C12.2191 6.35512 12.0121 6.29653 11.8714 6.26138C11.8324 5.99187 11.8597 5.69111 11.9847 5.40988ZM10.395 4.9607C10.7895 4.9607 11.2074 5.51534 11.141 6.26919C11.0043 6.30825 10.8637 6.36684 10.7426 6.44886C10.7895 6.10123 10.6137 5.66377 10.3677 5.6833C10.0396 5.71064 9.98488 6.51135 10.2974 6.78086C10.3364 6.81211 10.3716 6.77305 10.0669 6.99569C9.45758 6.42542 9.65678 4.9607 10.395 4.9607ZM9.86379 7.3316C10.106 7.15193 10.395 6.94101 10.4145 6.92148C10.5981 6.74962 10.9418 6.36684 11.5043 6.36684C11.7816 6.36684 12.1136 6.45667 12.5159 6.71446C12.762 6.87461 12.9573 6.88632 13.3987 7.07771C13.7268 7.21442 13.9338 7.45659 13.8088 7.78859C13.7072 8.06591 13.3791 8.35105 12.9221 8.49556C12.4886 8.63618 12.1488 9.12051 11.4301 9.07755C11.2777 9.06974 11.1567 9.03849 11.0551 8.99552C10.7426 8.85882 10.5786 8.58931 10.2739 8.40963C9.938 8.22215 9.75833 8.00342 9.69974 7.81203C9.64506 7.62064 9.69974 7.46049 9.86379 7.3316ZM9.99269 20.3774C9.88723 21.7484 8.27799 21.721 7.05153 21.0805C5.88366 20.4633 4.37206 20.8266 4.06349 20.2251C3.96975 20.0415 3.96975 19.729 4.16505 19.1939V19.1861C4.25879 18.8892 4.18848 18.5611 4.14161 18.2526C4.09474 17.9479 4.07131 17.6667 4.17677 17.4714C4.31347 17.2097 4.50877 17.1159 4.75484 17.03C5.15715 16.8855 5.21574 16.8972 5.5204 16.6433C5.73523 16.4207 5.89147 16.1395 6.07895 15.9403C6.27815 15.7254 6.46954 15.6239 6.7703 15.6707C7.08668 15.7176 7.36009 15.9364 7.6257 16.2957L8.39126 17.6862C8.76232 18.4635 10.0747 19.5767 9.99269 20.3774ZM9.93801 19.3658C9.77786 19.108 9.56304 18.8345 9.37555 18.6002C9.65287 18.6002 9.93019 18.5143 10.0278 18.2526C10.1177 18.0104 10.0278 17.6706 9.7388 17.28C9.2115 16.5691 8.24283 16.0106 8.24283 16.0106C7.71553 15.6825 7.41868 15.2802 7.28198 14.8427C7.14527 14.4052 7.1648 13.9326 7.27026 13.4678C7.47337 12.5733 7.99676 11.7023 8.33267 11.1555C8.42251 11.0891 8.36392 11.2805 7.99285 11.9679C7.66085 12.5968 7.03981 14.0498 7.8913 15.1864C7.91474 14.3779 8.10613 13.5537 8.43032 12.7843C8.89903 11.714 9.88723 9.85873 9.96535 8.38229C10.0083 8.41354 10.145 8.50728 10.2075 8.54244C10.3872 8.6479 10.5239 8.80413 10.6997 8.94475C11.184 9.33534 11.8128 9.30409 12.3558 8.99162C12.5979 8.85491 12.7932 8.69867 12.9768 8.64008C13.3635 8.519 13.6721 8.30417 13.8478 8.0542C14.1486 9.2416 14.8517 10.9563 15.3008 11.7922C15.5391 12.2374 16.0156 13.1788 16.2226 14.3154C16.3515 14.3115 16.4961 14.331 16.6484 14.3701C17.1874 12.9757 16.1914 11.4719 15.7383 11.0539C15.5547 10.8743 15.5469 10.7962 15.6368 10.8001C16.1289 11.2375 16.7773 12.1164 17.0116 13.1046C17.121 13.5576 17.1405 14.0303 17.0273 14.499C17.6678 14.7646 18.4295 15.1981 18.2264 15.8582C18.1404 15.8543 18.1014 15.8582 18.0623 15.8582C18.1873 15.4637 17.91 15.1708 17.1718 14.8388C16.4062 14.5029 15.7656 14.5029 15.6758 15.327C15.2032 15.4911 14.961 15.9012 14.8399 16.3933C14.7306 16.8308 14.6993 17.3581 14.6681 17.9518C14.6486 18.2526 14.5275 18.6549 14.4025 19.0845C13.1487 19.979 11.4066 20.3696 9.93801 19.3658ZM19.9919 18.9166C19.9567 19.5728 18.3826 19.6939 17.5233 20.7328C17.0077 21.3461 16.375 21.6859 15.8203 21.7288C15.2657 21.7718 14.7853 21.5414 14.504 20.975C14.3205 20.5414 14.4103 20.0727 14.547 19.5571C14.6915 19.0025 14.9063 18.4322 14.9337 17.9713C14.9649 17.3776 15.0001 16.8582 15.0977 16.4597C15.1993 16.0574 15.3555 15.7879 15.6328 15.6356C15.6446 15.6278 15.6602 15.6239 15.6719 15.6161C15.7032 16.1316 15.957 16.655 16.4062 16.7683C16.8984 16.8972 17.6053 16.4754 17.9061 16.1316C18.2576 16.1199 18.5193 16.0965 18.7888 16.3308C19.1755 16.6629 19.0662 17.5143 19.4567 17.9557C19.8708 18.4088 20.0036 18.7174 19.9919 18.9166ZM10.0161 7.80812C10.0942 7.88233 10.1997 7.98389 10.3286 8.08544C10.5864 8.28855 10.9457 8.49947 11.3949 8.49947C11.848 8.49947 12.2737 8.26902 12.637 8.07763C12.8284 7.97608 13.0627 7.80422 13.2151 7.67141C13.3674 7.53861 13.4455 7.42534 13.3362 7.41362C13.2268 7.40191 13.2346 7.51518 13.1018 7.61283C12.9299 7.73782 12.7229 7.90186 12.5589 7.99561C12.2698 8.15966 11.7972 8.39401 11.391 8.39401C10.9848 8.39401 10.6606 8.20653 10.4184 8.01514C10.2974 7.91749 10.1958 7.81984 10.1177 7.74563C10.0591 7.69094 10.0435 7.56595 9.94972 7.55424C9.89504 7.55033 9.87942 7.69876 10.0161 7.80812Z" fill="#323544"/>
</svg>
