<svg width="24" height="24" viewBox="0 0 24 24" fill="none" xmlns="http://www.w3.org/2000/svg">
<path d="M9.75 14.5V9.5C9.75 8.67157 10.4216 8 11.25 8C12.0784 8 12.75 8.67157 12.75 9.5V16L9.75 14.5ZM9.75 14.5L14.3704 16.8102C14.7981 17.024 15.0982 17.4289 15.1783 17.9003L15.8008 21.5601M7.80375 21.3882L10.2136 19.5301C10.3663 19.4123 10.4948 19.2663 10.5922 19.0999L11.0155 18.3768M10.6004 8.14759L7.78115 9.43432C7.45803 9.58238 7.19799 9.84035 7.04736 10.1623L6.06348 12.265M12.4899 8.64784L14.2788 10.8539C14.5059 11.134 14.8264 11.3229 15.1814 11.386L17.4587 11.7906M13.5 4.25C13.5 5.07843 12.8284 5.75 12 5.75C11.1716 5.75 10.5 5.07843 10.5 4.25C10.5 3.42157 11.1716 2.75 12 2.75C12.8284 2.75 13.5 3.42157 13.5 4.25Z" stroke="#374151" stroke-width="1.5" stroke-linecap="round" stroke-linejoin="round"/>
</svg>
