<svg width="24" height="24" viewBox="0 0 24 24" fill="none" xmlns="http://www.w3.org/2000/svg">
<path d="M15.085 9.47001C15.085 11.1738 13.7038 12.555 12 12.555C10.2962 12.555 8.91504 11.1738 8.91504 9.47001C8.91504 7.76621 10.2962 6.38501 12 6.38501C13.7038 6.38501 15.085 7.76621 15.085 9.47001Z" stroke="#323544" stroke-width="1.5" stroke-linecap="round" stroke-linejoin="round"/>
<path d="M18.7219 9.47206C18.7219 14.6995 14.7426 19.1274 12.9155 20.885C12.4055 21.3756 11.629 21.3766 11.1176 20.8874C9.28193 19.1315 5.27783 14.7019 5.27783 9.47206C5.27783 5.75957 8.2874 2.75 11.9999 2.75C15.7124 2.75 18.7219 5.75957 18.7219 9.47206Z" stroke="#323544" stroke-width="1.5" stroke-linecap="round" stroke-linejoin="round"/>
</svg>
