<svg width="24" height="24" viewBox="0 0 24 24" fill="none" xmlns="http://www.w3.org/2000/svg">
<path d="M12 18.25C7.58172 18.25 4 14.6683 4 10.25M12 18.25C16.4183 18.25 20 14.6683 20 10.25M12 18.25V21.25M10 21.25H14M12 7.5V10.5M14.5 8.25V9.75M9.5 8.25V9.75M12 15.25C9.23858 15.25 7 13.0114 7 10.25V7.75C7 4.98858 9.23858 2.75 12 2.75C14.7614 2.75 17 4.98858 17 7.75V10.25C17 13.0114 14.7614 15.25 12 15.25Z" stroke="#323544" stroke-width="1.5" stroke-linecap="round" stroke-linejoin="round"/>
</svg>
