<svg width="24" height="24" viewBox="0 0 24 24" fill="none" xmlns="http://www.w3.org/2000/svg">
<path d="M9.49842 8.37949C9.23646 8.70768 9.07439 9.0366 8.98225 9.36518M7.97002 15.34C8.80515 14.7821 9.16179 14.1962 9.27451 13.5904M15.2563 13.8182C15.0187 13.6113 14.6799 13.3162 14.2543 13.0455M14.2543 13.0455C13.6799 12.6801 12.9475 12.3591 12.0929 12.3591C10.6053 12.3591 9.84941 13.0661 9.31495 13.5525L9.27451 13.5904M14.2543 13.0455L14.3702 12.8097C14.8282 11.8953 16.2784 10.0785 18.415 10.1259C20.2519 10.1259 20.75 11.1562 20.75 11.9852V17.1358C20.4753 19.2016 18.8571 20.0472 13.4508 20.0472C8.04453 20.0472 4.39765 18.1063 3.24999 17.1358C2.77664 16.5571 3.67111 15.8918 3.65411 15.1607C3.63286 14.2469 3.4416 14.3866 3.4416 13.3544C3.4416 9.88372 7.02856 3.95276 11.008 3.95276C12.2088 3.95276 13.8566 4.84436 13.7001 6.81641C13.5435 8.78846 11.5402 9.52407 9.20816 9.38321L8.98225 9.36518M8.98225 9.36518C8.57707 10.8102 9.52418 12.2488 9.27451 13.5904" stroke="#374151" stroke-width="1.5" stroke-linecap="round" stroke-linejoin="round"/>
</svg>
