<svg width="24" height="24" viewBox="0 0 24 24" fill="none" xmlns="http://www.w3.org/2000/svg">
<path d="M10.3301 5.66498H20M10.3301 11.995H20M10.3301 18.325H20M5 7.33H6.33C6.88228 7.33 7.33 6.88229 7.33 6.33V5C7.33 4.44772 6.88229 4 6.33 4H5C4.44772 4 4 4.44771 4 5V6.33C4 6.88228 4.44771 7.33 5 7.33ZM5 13.66H6.33C6.88228 13.66 7.33 13.2123 7.33 12.66V11.33C7.33 10.7777 6.88229 10.33 6.33 10.33H5C4.44772 10.33 4 10.7777 4 11.33V12.66C4 13.2123 4.44771 13.66 5 13.66ZM5 19.99H6.33C6.88228 19.99 7.33 19.5423 7.33 18.99V17.66C7.33 17.1077 6.88229 16.66 6.33 16.66H5C4.44772 16.66 4 17.1077 4 17.66V18.99C4 19.5423 4.44771 19.99 5 19.99Z" stroke="#323544" stroke-width="1.5" stroke-linecap="round" stroke-linejoin="round"/>
</svg>
