<svg width="24" height="24" viewBox="0 0 24 24" fill="none" xmlns="http://www.w3.org/2000/svg">
<path d="M8 16.7712V6.25L20 4V14.5212M8 10L19.75 7.75M8 16.75C8 17.8546 6.82475 18.75 5.375 18.75C3.92525 18.75 2.75 17.8546 2.75 16.75C2.75 15.6454 3.92525 14.75 5.375 14.75C6.82475 14.75 8 15.6454 8 16.75ZM20 14.5C20 15.6046 18.8247 16.5 17.375 16.5C15.9253 16.5 14.75 15.6046 14.75 14.5C14.75 13.3954 15.9253 12.5 17.375 12.5C18.8247 12.5 20 13.3954 20 14.5Z" stroke="#323544" stroke-width="1.5" stroke-linecap="round" stroke-linejoin="round"/>
</svg>
