<svg width="24" height="24" viewBox="0 0 24 24" fill="none" xmlns="http://www.w3.org/2000/svg">
<path d="M4.25 18.75H19.75C20.5784 18.75 21.25 18.0784 21.25 17.25V6.75C21.25 5.92157 20.5784 5.25 19.75 5.25H7.25C6.42157 5.25 5.75 5.92157 5.75 6.75V12M4.25 18.75C3.42157 18.75 2.75 18.0784 2.75 17.25V6.75M4.25 18.75C5.07843 18.75 5.75 18.0784 5.75 17.25V8.25M18.25 15.3926H8.75M18.25 9L15.75 9M18.25 12H15.75M8.75 8.25H12.75V12.25H8.75V8.25Z" stroke="#323544" stroke-width="1.5" stroke-linecap="round" stroke-linejoin="round"/>
</svg>
