<svg width="24" height="24" viewBox="0 0 24 24" fill="none" xmlns="http://www.w3.org/2000/svg">
<path d="M12 6.03717C10.4558 4.67727 7.57613 3.49082 3.92456 3.2411C3.13938 3.1874 2.49999 3.8304 2.5 4.61742C2.50001 5.35755 2.50002 6.24137 2.50002 6.89523V15.6919C2.50002 16.0751 2.50003 16.4747 2.50004 16.8388C2.50007 17.5943 3.08726 18.2229 3.83698 18.3156C5.7573 18.5533 9.35604 19.186 12 20.7622M12 6.03717V20.7622M12 6.03717C13.5442 4.67727 16.4239 3.49071 20.0754 3.24099C20.8606 3.18729 21.5 3.8303 21.5 4.61731C21.5 5.35744 21.5 6.24126 21.5 6.89512V15.6918C21.5 16.075 21.5 16.4746 21.5 16.8387C21.4999 17.5942 20.9127 18.2227 20.163 18.3155C18.2427 18.5532 14.644 19.186 12 20.7622" stroke="#374151" stroke-width="1.5" stroke-linecap="round" stroke-linejoin="round"/>
</svg>
