<svg width="24" height="24" viewBox="0 0 24 24" fill="none" xmlns="http://www.w3.org/2000/svg">
<path d="M7 13.5357C6.58579 13.5357 6.25 13.8715 6.25 14.2857C6.25 14.6999 6.58579 15.0357 7 15.0357V14.2857V13.5357ZM7 8.9643C6.58579 8.9643 6.25 9.30008 6.25 9.7143C6.25 10.1285 6.58579 10.4643 7 10.4643V9.7143V8.9643ZM7 14.2857V15.0357L17 15.0357V14.2857V13.5357L7 13.5357V14.2857ZM7 9.7143V10.4643L17 10.4643V9.71429V8.96429L7 8.9643V9.7143ZM5.49995 4V4.75H18.5V4V3.25H5.49995V4ZM20 5.5H19.25V18.5H20H20.75V5.5H20ZM18.5 20V19.25H5.49995V20V20.75H18.5V20ZM3.99995 18.5H4.74995V5.5H3.99995H3.24995V18.5H3.99995ZM5.49995 20V19.25C5.08574 19.25 4.74995 18.9142 4.74995 18.5H3.99995H3.24995C3.24995 19.7426 4.25731 20.75 5.49995 20.75V20ZM20 18.5H19.25C19.25 18.9142 18.9142 19.25 18.5 19.25V20V20.75C19.7426 20.75 20.75 19.7426 20.75 18.5H20ZM18.5 4V4.75C18.9142 4.75 19.25 5.08579 19.25 5.5H20H20.75C20.75 4.25736 19.7426 3.25 18.5 3.25V4ZM5.49995 4V3.25C4.25731 3.25 3.24995 4.25736 3.24995 5.5H3.99995H4.74995C4.74995 5.08579 5.08574 4.75 5.49995 4.75V4Z" fill="#374151"/>
</svg>
