<svg width="24" height="24" viewBox="0 0 24 24" fill="none" xmlns="http://www.w3.org/2000/svg">
<path d="M18.8755 13.6249V19.6249C18.8755 20.4533 18.2039 21.1249 17.3755 21.1249H4.37488C3.54639 21.1249 2.87479 20.4532 2.87488 19.6247L2.8756 13.1249L2.94432 6.60903C2.95299 5.78682 3.62185 5.12485 4.44411 5.12485H10.3756M16.4799 5.16165L19.044 7.72574M19.6744 3.31449L20.6858 4.32585C21.2716 4.91163 21.2716 5.86138 20.6858 6.44717L12.2618 14.8711C12.0562 15.0767 11.7953 15.2181 11.5108 15.2781L7.9766 16.0237L8.72213 12.4895C8.78214 12.205 8.92356 11.944 9.12917 11.7384L17.5531 3.31449C18.1389 2.72871 19.0886 2.72871 19.6744 3.31449Z" stroke="#374151" stroke-width="1.5" stroke-linecap="round" stroke-linejoin="round"/>
</svg>
