<svg width="24" height="24" viewBox="0 0 24 24" fill="none" xmlns="http://www.w3.org/2000/svg">
<g stroke="currentColor" stroke-width="1.5" stroke-linecap="round" stroke-linejoin="round">
<path d="M14 2a8 8 0 0 1 8 8M14 6a4 4 0 0 1 4 4"/><path d="M22 16.9v3a2 2 0 0 1-2.2 2 19.8 19.8 0 0 1-8.6-3.1 19.5 19.5 0 0 1-6-6A19.8 19.8 0 0 1 2 4.2 2 2 0 0 1 4 2h3a2 2 0 0 1 2 1.7c.1.9.4 1.8.7 2.6a2 2 0 0 1-.4 2.1L8 9.9a16 16 0 0 0 6 6l1.5-1.3a2 2 0 0 1 2.1-.4c.8.3 1.7.6 2.6.7A2 2 0 0 1 22 16.9Z"/>
</g>
</svg>
