<svg width="24" height="24" viewBox="0 0 24 24" fill="none" xmlns="http://www.w3.org/2000/svg">
<path d="M6.59473 13.9453V13.1953C6.18051 13.1953 5.84473 13.5311 5.84473 13.9453H6.59473ZM17.4049 13.9453H18.1549C18.1549 13.5311 17.8191 13.1953 17.4049 13.1953V13.9453ZM15.7919 4.42294L15.2699 4.96147L15.2699 4.96147L15.7919 4.42294ZM16.9491 5.54455L16.4271 6.08309V6.08309L16.9491 5.54455ZM6.59473 13.9453V14.6953H17.4049V13.9453V13.1953H6.59473V13.9453ZM15.9049 19.999V19.249H8.09473V19.999V20.749H15.9049V19.999ZM8.09473 19.999V19.249C7.68051 19.249 7.34473 18.9132 7.34473 18.499H6.59473H5.84473C5.84473 19.7416 6.85209 20.749 8.09473 20.749V19.999ZM17.4049 18.499H16.6549C16.6549 18.9132 16.3191 19.249 15.9049 19.249V19.999V20.749C17.1475 20.749 18.1549 19.7416 18.1549 18.499H17.4049ZM19.9996 10.0391H19.2496V13.9576H19.9996H20.7496V10.0391H19.9996ZM4.00049 13.9576H4.75049V10.0391H4.00049H3.25049V13.9576H4.00049ZM5.50049 15.4576V14.7076C5.08627 14.7076 4.75049 14.3718 4.75049 13.9576H4.00049H3.25049C3.25049 15.2002 4.25785 16.2076 5.50049 16.2076V15.4576ZM19.9996 13.9576H19.2496C19.2496 14.3718 18.9138 14.7076 18.4996 14.7076V15.4576V16.2076C19.7422 16.2076 20.7496 15.2002 20.7496 13.9576H19.9996ZM18.4996 8.53906V9.28906C18.9138 9.28906 19.2496 9.62485 19.2496 10.0391H19.9996H20.7496C20.7496 8.79642 19.7422 7.78906 18.4996 7.78906V8.53906ZM5.50049 8.53906V7.78906C4.25785 7.78906 3.25049 8.79642 3.25049 10.0391H4.00049H4.75049C4.75049 9.62485 5.08628 9.28906 5.50049 9.28906V8.53906ZM8.09493 4V4.75H14.7479V4V3.25H8.09493V4ZM15.7919 4.42294L15.2699 4.96147L16.4271 6.08309L16.9491 5.54455L17.4711 5.00602L16.3139 3.8844L15.7919 4.42294ZM17.4051 6.62162H18.1551C18.1551 6.01272 17.9083 5.42982 17.4711 5.00602L16.9491 5.54455L16.4271 6.08309C16.5728 6.22435 16.6551 6.41865 16.6551 6.62162H17.4051ZM14.7479 4V4.75C14.9428 4.75 15.13 4.82584 15.2699 4.96147L15.7919 4.42294L16.3139 3.8844C15.8942 3.47753 15.3325 3.25 14.7479 3.25V4ZM6.59493 5.5H7.34493C7.34493 5.08579 7.68072 4.75 8.09493 4.75V4V3.25C6.85229 3.25 5.84493 4.25736 5.84493 5.5H6.59493ZM6.59493 8.53906V9.28906H17.4051V8.53906V7.78906H6.59493V8.53906ZM17.4051 8.53906H18.1551V6.62162H17.4051H16.6551V8.53906H17.4051ZM6.59493 5.5H5.84493V8.53906H6.59493H7.34493V5.5H6.59493ZM5.50049 8.53906V9.28906H6.59493V8.53906V7.78906H5.50049V8.53906ZM17.4051 8.53906V9.28906H18.4996V8.53906V7.78906H17.4051V8.53906ZM6.59473 13.9453H5.84473V15.4576H6.59473H7.34473V13.9453H6.59473ZM17.4049 15.4576H18.1549V13.9453H17.4049H16.6549V15.4576H17.4049ZM17.4049 15.4576H16.6549V18.499H17.4049H18.1549V15.4576H17.4049ZM18.4996 15.4576V14.7076H17.4049V15.4576V16.2076H18.4996V15.4576ZM6.59473 15.4576V14.7076H5.50049V15.4576V16.2076H6.59473V15.4576ZM6.59473 18.499H7.34473V15.4576H6.59473H5.84473V18.499H6.59473Z" fill="#323544"/>
</svg>
