<svg width="24" height="24" viewBox="0 0 24 24" fill="none" xmlns="http://www.w3.org/2000/svg">
<path d="M3.55222 9.73565C4.05071 7.87524 5.14916 6.2313 6.67719 5.0588C8.20522 3.8863 10.0774 3.25076 12.0035 3.25076C13.9295 3.25076 15.8018 3.8863 17.3298 5.0588C18.8578 6.2313 19.9563 7.87524 20.4548 9.73565C20.5564 10.115 20.6212 10.381 20.66 10.5642M20.4575 14.2639C19.959 16.1243 18.8605 17.7683 17.3325 18.9408C15.8045 20.1133 13.9322 20.7488 12.0062 20.7488C10.0802 20.7488 8.20794 20.1133 6.67991 18.9408C5.15187 17.7683 4.05343 16.1243 3.55493 14.2639C3.45124 13.8769 3.38545 13.6079 3.34628 13.4245M17.4853 8.99644L20.566 10.7312L20.66 10.5642M22.3006 7.65012L20.66 10.5642M6.51461 15.0036L3.4339 13.2688L3.34628 13.4245M1.69928 16.3499L3.34628 13.4245" stroke="#323544" stroke-width="1.5" stroke-linecap="round" stroke-linejoin="round"/>
</svg>
