<svg width="24" height="24" viewBox="0 0 24 24" fill="none" xmlns="http://www.w3.org/2000/svg">
<path d="M7.24768 3.77261C8.98498 2.76962 10.9958 2.34229 12.9908 2.55191C14.986 2.76163 16.8633 3.5982 18.3541 4.94058C19.3645 5.85035 20.1608 6.96131 20.6998 8.19351L21.6949 5.26089C21.8279 4.86878 22.254 4.65843 22.6461 4.79117C23.0383 4.92417 23.2486 5.35017 23.1158 5.74234L21.5035 10.4972C21.4397 10.6853 21.3037 10.8408 21.1256 10.9289C20.9473 11.0169 20.7407 11.0298 20.5524 10.966L20.3649 10.9025C20.3267 10.8923 20.2894 10.8803 20.2535 10.8644L15.7985 9.35367C15.4062 9.22062 15.1957 8.79475 15.3287 8.4025C15.4619 8.0105 15.8878 7.80077 16.2799 7.93375L19.4108 8.99527C18.9577 7.8773 18.2565 6.87005 17.3512 6.05484C16.0957 4.92439 14.5138 4.22069 12.8336 4.0441C11.1536 3.86765 9.4606 4.2278 7.99768 5.07242C6.5349 5.91714 5.37614 7.2031 4.68909 8.74625C4.00216 10.2894 3.82133 12.011 4.17249 13.6632C4.52376 15.3156 5.38885 16.8151 6.64417 17.9455C7.89958 19.0758 9.48168 19.7796 11.1617 19.9562C12.8417 20.1327 14.5348 19.7724 15.9977 18.9279C16.3564 18.7209 16.815 18.8446 17.0221 19.2033C17.2289 19.5619 17.1063 20.0207 16.7477 20.2277C15.0104 21.2306 12.9995 21.6581 11.0045 21.4484C9.00947 21.2386 7.13203 20.402 5.64124 19.0597C4.15054 17.7175 3.12291 15.9378 2.70569 13.9757C2.28861 12.0135 2.50315 9.96853 3.31897 8.13589C4.13491 6.30338 5.51053 4.77568 7.24768 3.77261Z" fill="#374151"/>
</svg>
