<svg width="24" height="24" viewBox="0 0 24 24" fill="none" xmlns="http://www.w3.org/2000/svg">
<path d="M12.2946 3.87054C12.0144 3.75457 11.6916 3.81937 11.4772 4.03363L5.85022 9.66058C5.70965 9.80115 5.63059 9.99208 5.63049 10.1909C5.63049 10.3897 5.70967 10.5805 5.85022 10.7211L11.4772 16.3481C11.6917 16.5625 12.0143 16.6272 12.2946 16.5112C12.5747 16.395 12.7574 16.1211 12.7574 15.8178V12.9233C16.4952 13.2504 19.5403 15.9997 20.3121 19.5922C20.3864 19.9379 20.692 20.185 21.0455 20.185C21.399 20.185 21.7047 19.9378 21.7789 19.5922C21.9249 18.9123 22.0016 18.2069 22.0016 17.4848C22.0014 12.2177 17.9265 7.90463 12.7574 7.52094V4.5639C12.7573 4.26072 12.5747 3.98661 12.2946 3.87054ZM8.28577 4.03363C7.99291 3.74094 7.51807 3.74094 7.22522 4.03363L2.65881 8.60004C1.7803 9.47863 1.78043 10.903 2.65881 11.7817L7.22522 16.3481C7.51811 16.641 7.99287 16.641 8.28577 16.3481C8.57847 16.0552 8.5786 15.5804 8.28577 15.2875L3.71936 10.7211C3.42676 10.4282 3.42664 9.95339 3.71936 9.66058L8.28577 5.09418C8.5785 4.80127 8.57861 4.32647 8.28577 4.03363ZM11.2574 8.24066C11.2575 8.65481 11.5933 8.99066 12.0074 8.99066C16.1502 8.99076 19.5982 11.9571 20.3483 15.8813C18.5599 13.1766 15.4932 11.3911 12.0074 11.3911C11.5934 11.3911 11.2577 11.7271 11.2574 12.1411V14.0073L7.44104 10.1909L11.2574 6.37445V8.24066Z" fill="#374151"/>
</svg>
