<svg width="24" height="24" viewBox="0 0 24 24" fill="none" xmlns="http://www.w3.org/2000/svg">
<path d="M5.88087 18.1211L3.19734 20.8046M7.96666 20.2068L6.92383 21.2496M3.79297 16.0351L2.75015 17.078M16.1035 7.89842L13.9822 10.0197M11.8559 19.8535L4.14801 12.1456C3.27992 11.2775 3.76533 9.79111 4.97844 9.60268L8.54725 9.04836C8.86178 8.9995 9.15261 8.85186 9.37769 8.62679L12.8258 5.17868C13.0482 4.95629 13.3349 4.80943 13.6453 4.75886L18.2752 4.00467C19.2865 3.83993 20.1616 4.71505 19.9968 5.72632L19.2426 10.3562C19.1921 10.6666 19.0452 10.9533 18.8228 11.1757L15.3747 14.6238C15.1496 14.8489 15.002 15.1397 14.9531 15.4542L14.3988 19.0231C14.2104 20.2362 12.724 20.7216 11.8559 19.8535Z" stroke="#323544" stroke-width="1.5" stroke-linecap="round" stroke-linejoin="round"/>
</svg>
