<svg width="24" height="24" viewBox="0 0 24 24" fill="none" xmlns="http://www.w3.org/2000/svg">
<path d="M13.3023 11.9014C13.3023 11.3619 12.865 10.9245 12.3255 10.9245H11.9305C11.2496 10.9245 10.6977 11.4765 10.6977 12.1573C10.6977 12.6712 11.0164 13.1312 11.4976 13.3116L12.5024 13.6885C12.9836 13.8689 13.3023 14.3289 13.3023 14.8428C13.3023 15.5236 12.7504 16.0756 12.0695 16.0756H11.6745C11.135 16.0756 10.6977 15.6382 10.6977 15.0987M12 16.0756V16.9418M12 10.0581V10.9245M9.73295 6.33104H14.0919C14.4594 6.33104 14.8102 6.46202 15.0752 6.71672C16.6517 8.23237 22.0975 13.8819 19.9124 17.6655C18.1151 20.7777 5.71086 20.7795 3.91242 17.6655C1.72735 13.8819 7.17311 8.23237 8.74967 6.71672C9.01461 6.46202 9.36544 6.33104 9.73295 6.33104ZM14.3673 6.33104L9.63154 6.33104L7.72641 2.83104C7.72641 2.83104 10.4114 3.92991 11.9994 2.83104C13.5875 1.73217 16.2725 2.83104 16.2725 2.83104L14.3673 6.33104Z" stroke="#323544" stroke-width="1.5" stroke-linecap="round" stroke-linejoin="round"/>
</svg>
