<svg width="24" height="24" viewBox="0 0 24 24" fill="none" xmlns="http://www.w3.org/2000/svg">
<path d="M13.5 4.25C13.5 5.07843 12.8284 5.75 12 5.75C11.1716 5.75 10.5 5.07843 10.5 4.25C10.5 3.42157 11.1716 2.75 12 2.75C12.8284 2.75 13.5 3.42157 13.5 4.25Z" fill="#374151"/>
<path d="M15.7508 17.5817C16.3008 16.8207 16.625 15.8858 16.625 14.8751V10.3751C16.625 9.15662 16.1538 8.04816 15.3836 7.22205M8.25157 17.5849C7.7001 16.8234 7.375 15.8872 7.375 14.8751V10.3751C7.375 9.15662 7.84623 8.04816 8.61639 7.22205M7.5 4.25014H5.5M18.5 4.25014H16.4987M11.25 20.5V17.5C11.25 17.0858 11.5858 16.75 12 16.75C12.4142 16.75 12.75 17.0858 12.75 17.5V20.5C12.75 20.9142 12.4142 21.25 12 21.25C11.5858 21.25 11.25 20.9142 11.25 20.5ZM13.5 4.25C13.5 5.07843 12.8284 5.75 12 5.75C11.1716 5.75 10.5 5.07843 10.5 4.25C10.5 3.42157 11.1716 2.75 12 2.75C12.8284 2.75 13.5 3.42157 13.5 4.25Z" stroke="#374151" stroke-width="1.5" stroke-linecap="round" stroke-linejoin="round"/>
</svg>
