<svg width="24" height="24" viewBox="0 0 24 24" fill="none" xmlns="http://www.w3.org/2000/svg">
<path d="M11.3253 2.92485C15.9645 2.92485 19.7256 6.68564 19.7257 11.3243C19.7256 13.374 18.9897 15.2511 17.7697 16.709L20.8556 19.795C21.1483 20.0878 21.1481 20.5626 20.8556 20.8555C20.5627 21.1484 20.0879 21.1484 19.795 20.8555L16.7091 17.7696C15.2511 18.9882 13.3743 19.7227 11.3253 19.7227C6.68631 19.7225 2.92518 15.9627 2.92493 11.3243C2.92507 6.68575 6.68624 2.92503 11.3253 2.92485ZM11.3253 4.42485C7.51438 4.42503 4.42507 7.51446 4.42493 11.3243C4.42518 15.134 7.51445 18.2225 11.3253 18.2227C15.1363 18.2227 18.2255 15.1341 18.2257 11.3243C18.2256 7.51435 15.1364 4.42485 11.3253 4.42485Z" fill="#374151"/>
</svg>
