<svg width="24" height="24" viewBox="0 0 24 24" fill="none" xmlns="http://www.w3.org/2000/svg">
<path d="M9.05322 10.592L14.9471 6.75438M9.04932 13.4143L14.9432 17.2521M9.47215 12.0056C9.47215 13.4367 8.31198 14.5969 6.88085 14.5969C5.44971 14.5969 4.28955 13.4367 4.28955 12.0056C4.28955 10.5745 5.44971 9.41431 6.88085 9.41431C8.31198 9.41431 9.47215 10.5745 9.47215 12.0056ZM19.7104 5.34057C19.7104 6.7717 18.5503 7.93186 17.1191 7.93186C15.688 7.93186 14.5278 6.7717 14.5278 5.34057C14.5278 3.90943 15.688 2.74927 17.1191 2.74927C18.5503 2.74927 19.7104 3.90943 19.7104 5.34057ZM19.7104 18.6594C19.7104 20.0905 18.5503 21.2507 17.1191 21.2507C15.688 21.2507 14.5278 20.0905 14.5278 18.6594C14.5278 17.2283 15.688 16.0681 17.1191 16.0681C18.5503 16.0681 19.7104 17.2283 19.7104 18.6594Z" stroke="#374151" stroke-width="1.5" stroke-linecap="round" stroke-linejoin="round"/>
</svg>
