<svg width="24" height="24" viewBox="0 0 24 24" fill="none" xmlns="http://www.w3.org/2000/svg">
<path d="M14.9457 9.24418L10.9339 13.256L8.99223 11.3144M11.9689 21.25C13.6435 21.25 17.111 18.4197 18.6932 16.462C19.5766 15.3691 20.0073 13.9946 20.0073 12.5893L20.0072 7.12423C20.0072 6.53726 19.6648 6.00423 19.131 5.76012L12.5926 3.03529C12.1965 2.85412 11.7411 2.85412 11.345 3.03529L4.86894 5.65294C4.33513 5.89705 3.99276 6.4301 3.99277 7.01708L3.99284 12.4822C3.99286 13.8875 4.42356 15.2618 5.30687 16.3548C6.88913 18.3125 10.2944 21.25 11.9689 21.25Z" stroke="#374151" stroke-width="1.5" stroke-linecap="round" stroke-linejoin="round"/>
</svg>
