<svg width="24" height="24" viewBox="0 0 24 24" fill="none" xmlns="http://www.w3.org/2000/svg">
<path d="M19.5 11.9311V18.4999C19.5 19.3283 18.8284 19.9999 18 19.9999H6C5.17157 19.9999 4.5 19.3283 4.5 18.4999V11.9311M6.62912 4H17.3709C17.895 4 18.3812 4.27361 18.6532 4.72169L21.0323 8.6413C21.1747 8.87593 21.25 9.14514 21.25 9.41961V9.6875C21.25 10.9647 20.2147 12 18.9375 12C17.6603 12 16.625 10.9647 16.625 9.6875C16.625 10.9647 15.5897 12 14.3125 12C13.0353 12 12 10.9647 12 9.6875C12 10.9647 10.9647 12 9.6875 12C8.41034 12 7.375 10.9647 7.375 9.6875C7.375 10.9647 6.33966 12 5.0625 12C3.78534 12 2.75 10.9647 2.75 9.6875V9.41961C2.75 9.14514 2.82531 8.87593 2.96773 8.6413L5.34685 4.72169C5.61882 4.27361 6.10496 4 6.62912 4Z" stroke="#374151" stroke-width="1.5" stroke-linecap="round" stroke-linejoin="round"/>
</svg>
