<svg width="24" height="24" viewBox="0 0 24 24" fill="none" xmlns="http://www.w3.org/2000/svg">
<path d="M17.585 7.085C17.585 5.38122 16.2038 4 14.5 4C12.7962 4 11.415 5.38122 11.415 7.085M17.585 7.085C17.585 8.7888 16.2038 10.17 14.5 10.17C12.7962 10.17 11.415 8.7888 11.415 7.085M17.585 7.085L21.2509 7.08496M11.415 7.085L2.75092 7.08496M6.41686 16.915C6.41686 15.2112 7.79806 13.83 9.50185 13.83C11.2057 13.83 12.5869 15.2112 12.5869 16.915M6.41686 16.915C6.41685 18.6188 7.79806 20 9.50185 20C11.2057 20 12.5869 18.6188 12.5869 16.915M6.41686 16.915L2.75092 16.915M12.5869 16.915L21.2509 16.915" stroke="#323544" stroke-width="1.5" stroke-linecap="round" stroke-linejoin="round"/>
</svg>
