<svg width="24" height="24" viewBox="0 0 24 24" fill="none" xmlns="http://www.w3.org/2000/svg">
<path d="M10.6144 6.2254L11.492 8.23559C12.2731 10.0244 13.6789 11.4484 15.4325 12.2268L17.8482 13.2991C18.6162 13.64 18.6162 14.7573 17.8482 15.0982L15.5079 16.1371C13.7092 16.9355 12.2782 18.4122 11.5105 20.2621L10.6215 22.4043C10.2916 23.1992 9.19319 23.1992 8.8633 22.4043L7.97427 20.2621C7.20657 18.4122 5.77553 16.9355 3.97685 16.1371L1.63658 15.0982C0.868537 14.7573 0.868536 13.64 1.63658 13.2991L4.0523 12.2268C5.80589 11.4484 7.21171 10.0244 7.99275 8.23559L8.8704 6.2254C9.20776 5.4528 10.277 5.4528 10.6144 6.2254ZM19.4014 1.3311L19.6482 1.8968C20.0882 2.9054 20.8807 3.7085 21.8695 4.1478L22.6299 4.4857C23.0412 4.6684 23.0412 5.2661 22.6299 5.4488L21.9121 5.7678C20.8978 6.2184 20.0911 7.0512 19.6586 8.0941L19.4052 8.70539C19.2285 9.13139 18.6395 9.13139 18.4628 8.70539L18.2094 8.0941C17.777 7.0512 16.9703 6.2184 15.956 5.7678L15.2381 5.4488C14.8269 5.2661 14.8269 4.6684 15.2381 4.4857L15.9985 4.1478C16.9874 3.7085 17.7798 2.9054 18.2198 1.8968L18.4667 1.3311C18.6473 0.916996 19.2207 0.916996 19.4014 1.3311Z" fill="#374151"/>
</svg>
