<svg width="24" height="24" viewBox="0 0 24 24" fill="none" xmlns="http://www.w3.org/2000/svg">
<path d="M10.8559 7.22099L11.5808 8.88159C12.2261 10.3593 13.3874 11.5356 14.836 12.1787L16.8316 13.0645C17.466 13.3461 17.466 14.2691 16.8316 14.5507L14.8983 15.4089C13.4124 16.0684 12.2303 17.2883 11.5961 18.8165L10.8617 20.5861C10.5892 21.2428 9.68181 21.2428 9.4093 20.5861L8.67488 18.8165C8.0407 17.2883 6.85854 16.0684 5.37267 15.4089L3.43941 14.5507C2.80495 14.2691 2.80494 13.3461 3.43941 13.0645L5.435 12.1787C6.88362 11.5356 8.04494 10.3593 8.69015 8.88159L9.41516 7.22099C9.69385 6.58276 10.5771 6.58276 10.8559 7.22099ZM18.1147 3.17789L18.3185 3.6452C18.682 4.47839 19.3367 5.14182 20.1535 5.50472L20.7817 5.78385C21.1214 5.93478 21.1214 6.42853 20.7817 6.57945L20.1887 6.84298C19.3508 7.21521 18.6844 7.90317 18.3271 8.7647L18.1178 9.26968C17.9718 9.62159 17.4853 9.62159 17.3393 9.26968L17.13 8.7647C16.7728 7.90317 16.1064 7.21521 15.2685 6.84298L14.6754 6.57945C14.3357 6.42853 14.3357 5.93478 14.6754 5.78385L15.3036 5.50472C16.1205 5.14182 16.7751 4.47839 17.1386 3.6452L17.3425 3.17789C17.4917 2.83581 17.9654 2.83581 18.1147 3.17789Z" stroke="#374151" stroke-width="1.5"/>
</svg>
