<svg width="24" height="24" viewBox="0 0 24 24" fill="none" xmlns="http://www.w3.org/2000/svg">
<path d="M15.3016 8.66797L12.0161 11.9535M15.3016 8.66797L17.7656 9.4893L19.956 7.29894L17.4918 6.47756L16.6705 4.01341L14.4801 6.20376L15.3016 8.66797ZM11.4752 6.39916C8.61465 6.66383 6.375 9.07036 6.375 12C6.375 15.1066 8.8934 17.625 12 17.625C14.9409 17.625 17.3547 15.368 17.6038 12.4917M21.1086 10.3797C21.2015 10.9058 21.25 11.4472 21.25 12C21.25 17.1086 17.1086 21.25 12 21.25C6.89137 21.25 2.75 17.1086 2.75 12C2.75 6.89137 6.89137 2.75 12 2.75C12.5351 2.75 13.0595 2.79543 13.5697 2.88264" stroke="#374151" stroke-width="1.5" stroke-linecap="round" stroke-linejoin="round"/>
</svg>
