<svg width="24" height="24" viewBox="0 0 24 24" fill="none" xmlns="http://www.w3.org/2000/svg">
<path d="M12.1445 18.709C13.9099 19.7033 15.8076 20.3757 17.752 20.7262C18.2615 20.8181 18.7781 20.6388 19.1442 20.2727L20.2124 19.2045C21.118 18.2989 20.8403 16.7676 19.6744 16.2377L16.1076 14.6164C15.3921 14.2912 14.3287 14.4486 13.944 15.1989L12.1445 18.709ZM12.1445 18.709C10.7497 17.9235 9.43753 16.9371 8.25019 15.7497C7.06287 14.5624 6.07645 13.2503 5.29093 11.8555M5.29093 11.8555C4.29663 10.0901 3.62422 8.19234 3.2737 6.24794C3.18185 5.73847 3.36119 5.22182 3.72726 4.85577L4.79546 3.78764C5.70104 2.88206 7.23237 3.15974 7.76232 4.32564L9.3836 7.89244C9.70882 8.60794 9.55139 9.67133 8.80105 10.056L5.29093 11.8555Z" stroke="#323544" stroke-width="1.5" stroke-linecap="round" stroke-linejoin="round"/>
</svg>
