<svg width="24" height="24" viewBox="0 0 24 24" fill="none" xmlns="http://www.w3.org/2000/svg">
<path d="M11.9996 21.074V11.0311M20.2209 7.09779L12.6709 10.8727C12.2486 11.0838 11.7515 11.0838 11.3293 10.8727L3.7792 7.09779M20.2209 7.09779C20.0778 6.87406 19.8751 6.68811 19.6283 6.56472L12.6709 3.08609C12.2486 2.87495 11.7515 2.87495 11.3293 3.08609L4.3718 6.56472C4.12501 6.68811 3.92237 6.87406 3.7792 7.09779M20.2209 7.09779C20.3726 7.33476 20.4575 7.61411 20.4575 7.90637V16.0953C20.4575 16.6635 20.1365 17.1829 19.6283 17.437L12.6709 20.9156C12.2486 21.1267 11.7515 21.1267 11.3293 20.9156L4.3718 17.437C3.86361 17.1829 3.5426 16.6635 3.5426 16.0953V7.90637C3.5426 7.61411 3.62754 7.33476 3.7792 7.09779" stroke="#323544" stroke-width="1.5" stroke-linecap="round" stroke-linejoin="round"/>
</svg>
