<svg width="24" height="24" viewBox="0 0 24 24" fill="none" xmlns="http://www.w3.org/2000/svg">
<path d="M8.18822 8.99526C8.18822 8.60848 8.33762 8.23665 8.60524 7.9574L13.0292 3.34114C13.2656 3.09441 13.5925 2.9549 13.9343 2.9549C14.7382 2.9549 15.3344 3.70097 15.157 4.48512L14.2732 8.39255H19.7473C20.7946 8.39255 21.5196 9.43861 21.1518 10.4192L18.3928 17.7767C18.1732 18.3621 17.6136 18.75 16.9883 18.75H9.68822C8.85979 18.75 8.18822 18.0784 8.18822 17.25V8.99526Z" stroke="#323544" stroke-width="1.5" stroke-linecap="round" stroke-linejoin="round"/>
<path d="M2.75049 10.1423C2.75049 9.59001 3.1982 9.1423 3.75049 9.1423H4.85772C5.41 9.1423 5.85772 9.59001 5.85772 10.1423V17.7229C5.85772 18.2752 5.41 18.7229 4.85772 18.7229H3.75049C3.1982 18.7229 2.75049 18.2752 2.75049 17.7229V10.1423Z" stroke="#323544" stroke-width="1.5" stroke-linecap="round" stroke-linejoin="round"/>
</svg>
