<svg width="24" height="24" viewBox="0 0 24 24" fill="none" xmlns="http://www.w3.org/2000/svg">
<path d="M8.18822 15.0096C8.18822 15.3964 8.33762 15.7682 8.60524 16.0475L13.0292 20.6637C13.2656 20.9105 13.5925 21.05 13.9343 21.05C14.7382 21.05 15.3344 20.3039 15.157 19.5197L14.2732 15.6123H19.7473C20.7946 15.6123 21.5196 14.5663 21.1518 13.5856L18.3928 6.2282C18.1732 5.64274 17.6136 5.25488 16.9883 5.25488H9.68822C8.85979 5.25488 8.18822 5.92646 8.18822 6.75488V15.0096Z" stroke="#374151" stroke-width="1.5" stroke-linecap="round" stroke-linejoin="round"/>
<path d="M2.75049 13.8626C2.75049 14.4149 3.1982 14.8626 3.75049 14.8626H4.85772C5.41 14.8626 5.85772 14.4149 5.85772 13.8626V6.28194C5.85772 5.72966 5.41 5.28194 4.85772 5.28194H3.75049C3.1982 5.28194 2.75049 5.72966 2.75049 6.28194V13.8626Z" stroke="#374151" stroke-width="1.5" stroke-linecap="round" stroke-linejoin="round"/>
</svg>
