<svg width="24" height="24" viewBox="0 0 24 24" fill="none" xmlns="http://www.w3.org/2000/svg">
<path d="M21.2183 7.7184C21.1437 7.31119 20.7532 7.04149 20.3459 7.11584L16.1482 7.88218C15.8497 7.93667 15.6135 8.16562 15.5497 8.46223C15.4858 8.75885 15.607 9.0647 15.8567 9.23711L17.6773 10.4945L15.1879 13.987C14.8856 14.4111 14.2555 14.4111 13.9532 13.987L10.4992 9.14127C9.59882 7.87801 7.72205 7.87798 6.82159 9.14123L2.13933 15.7099C1.89891 16.0472 1.97743 16.5156 2.31473 16.756C2.65202 16.9964 3.12036 16.9179 3.36078 16.5806L8.04305 10.0119C8.34536 9.58777 8.97547 9.58778 9.27778 10.0119L12.7317 14.8576C13.6321 16.1209 15.5089 16.1209 16.4094 14.8576L18.9117 11.347L20.8239 12.6676C21.0735 12.84 21.4024 12.845 21.6572 12.6803C21.912 12.5156 22.0425 12.2136 21.9878 11.9152L21.2183 7.7184Z" fill="#374151"/>
</svg>
