<svg width="24" height="24" viewBox="0 0 24 24" fill="none" xmlns="http://www.w3.org/2000/svg">
<path d="M14.75 17.5V5.5C14.75 4.67157 14.0784 4 13.25 4H4.25C3.42157 4 2.75 4.67157 2.75 5.5V16C2.75 16.8284 3.42157 17.5 4.25 17.5H5.00728M14.75 17.5L14.75 7.14003H17.2037C17.7016 7.14003 18.1672 7.38716 18.4461 7.79964L20.9925 11.5643C21.1603 11.8124 21.25 12.1051 21.25 12.4047V17.5M14.75 17.5H14.7573M22 17.5H19.3727M9.62272 17.5C9.52846 16.308 8.53127 15.37 7.315 15.37C6.09873 15.37 5.10154 16.308 5.00728 17.5M9.62272 17.5C9.62754 17.561 9.63 17.6227 9.63 17.685C9.63 18.9635 8.59354 20 7.315 20C6.03646 20 5 18.9635 5 17.685C5 17.6227 5.00246 17.561 5.00728 17.5M9.62272 17.5H14.7573M21.1778 11.945H14.75M14.7573 17.5C14.8515 16.308 15.8487 15.37 17.065 15.37C18.2813 15.37 19.2785 16.308 19.3727 17.5M14.7573 17.5C14.7525 17.561 14.75 17.6227 14.75 17.685C14.75 18.9635 15.7865 20 17.065 20C18.3435 20 19.38 18.9635 19.38 17.685C19.38 17.6227 19.3775 17.561 19.3727 17.5M5.75 7H11.75V10H5.75V7Z" stroke="#323544" stroke-width="1.5" stroke-linecap="round" stroke-linejoin="round"/>
</svg>
