<svg width="24" height="24" viewBox="0 0 24 24" fill="none" xmlns="http://www.w3.org/2000/svg">
<path d="M8.87502 6.42116L6.96735 8.32883L5.87502 7.2365M15 7.13981H17.2037C17.7016 7.13981 18.1672 7.38694 18.4461 7.79942L20.9925 11.5641C21.0724 11.6822 21.1346 11.8105 21.1778 11.9448M15 7.13981V11.9448M15 7.13981V5.49978C15 4.97881 14.7344 4.51987 14.3312 4.25098M21.25 17.4998V12.4044C21.25 12.2475 21.2254 12.0925 21.1778 11.9448M21.25 17.4998H19.3727M21.25 17.4998H22M15 11.9448H21.1778M15 11.9448V16.6373M5.00728 17.4998C5.10154 16.3077 6.09873 15.3698 7.315 15.3698C8.53127 15.3698 9.52846 16.3077 9.62272 17.4998M5.00728 17.4998H4.25C3.42157 17.4998 2.75 16.8282 2.75 15.9998V13.4373M5.00728 17.4998C5.00246 17.5608 5 17.6225 5 17.6848C5 18.9633 6.03646 19.9998 7.315 19.9998C8.59354 19.9998 9.63 18.9633 9.63 17.6848C9.63 17.6225 9.62754 17.5608 9.62272 17.4998M9.62272 17.4998H14.7573M14.7573 17.4998C14.7817 17.1913 14.8665 16.8999 15 16.6373M14.7573 17.4998C14.7525 17.5608 14.75 17.6225 14.75 17.6848C14.75 18.9633 15.7865 19.9998 17.065 19.9998C18.3435 19.9998 19.38 18.9633 19.38 17.6848C19.38 17.6225 19.3775 17.5608 19.3727 17.4998M15 16.6373C15.3823 15.8851 16.1635 15.3698 17.065 15.3698C18.2813 15.3698 19.2785 16.3077 19.3727 17.4998M12 7.375C12 9.92932 9.92932 12 7.375 12C4.82068 12 2.75 9.92932 2.75 7.375C2.75 4.82068 4.82068 2.75 7.375 2.75C9.92932 2.75 12 4.82068 12 7.375Z" stroke="#374151" stroke-width="1.5" stroke-linecap="round" stroke-linejoin="round"/>
</svg>
