<svg width="24" height="24" viewBox="0 0 24 24" fill="none" xmlns="http://www.w3.org/2000/svg">
<path d="M14.0809 5.17697C14.4156 5.04144 14.7814 4.96681 15.1647 4.96681C16.7605 4.96681 18.0541 6.26044 18.0541 7.85621C18.0541 9.45198 16.7605 10.7456 15.1647 10.7456C14.7814 10.7456 14.4156 10.671 14.0809 10.5354M16.4648 13.1563H16.8403C19.2745 13.1563 21.2478 15.1296 21.2478 17.5638C21.2478 18.3752 20.59 19.033 19.7786 19.033H17.6679M11.7243 7.8562C11.7243 9.45197 10.4307 10.7456 8.83491 10.7456C7.23914 10.7456 5.94551 9.45197 5.94551 7.8562C5.94551 6.26043 7.23914 4.9668 8.83491 4.9668C10.4307 4.9668 11.7243 6.26043 11.7243 7.8562ZM4.22136 19.033H13.4488C14.2602 19.033 14.918 18.3752 14.918 17.5638C14.918 15.1296 12.9447 13.1563 10.5104 13.1563H7.15973C4.7255 13.1563 2.75217 15.1296 2.75217 17.5638C2.75217 18.3752 3.40995 19.033 4.22136 19.033Z" stroke="#323544" stroke-width="1.5" stroke-linecap="round" stroke-linejoin="round"/>
</svg>
