<svg width="24" height="24" viewBox="0 0 24 24" fill="none" xmlns="http://www.w3.org/2000/svg">
<path d="M14.8986 19.1485C14.8986 19.1485 15.0018 13.2048 8.74995 13.2048C2.49813 13.2048 2.6013 19.1485 2.6013 19.1485M14.1073 5.10496C14.4733 4.94197 14.8786 4.85138 15.3051 4.85138C16.9326 4.85138 18.252 6.17077 18.252 7.79832C18.252 9.42588 16.9326 10.7453 15.3051 10.7453C14.8804 10.7453 14.4767 10.6554 14.1119 10.4937M15.7929 13.2203C21.4959 13.5541 21.3988 19.1485 21.3988 19.1485M11.7518 7.79837C11.7518 9.42592 10.4324 10.7453 8.80487 10.7453C7.17731 10.7453 5.85792 9.42592 5.85792 7.79837C5.85792 6.17081 7.17731 4.85142 8.80487 4.85142C10.4324 4.85142 11.7518 6.17081 11.7518 7.79837Z" stroke="#374151" stroke-width="1.5" stroke-linecap="round" stroke-linejoin="round"/>
</svg>
