<svg width="24" height="24" viewBox="0 0 24 24" fill="none" xmlns="http://www.w3.org/2000/svg">
<path d="M17.7738 19.1074V18.8455C17.7738 16.3602 15.7591 14.3455 13.2738 14.3455H10.7238C8.23853 14.3455 6.22382 16.3602 6.22382 18.8455V19.1074M21.2492 12C21.2492 17.1086 17.1078 21.25 11.9992 21.25C6.89057 21.25 2.74921 17.1086 2.74921 12C2.74921 6.89137 6.89057 2.75 11.9992 2.75C17.1078 2.75 21.2492 6.89137 21.2492 12ZM14.7662 9.26784C14.7662 10.7965 13.527 12.0357 11.9983 12.0357C10.4697 12.0357 9.23048 10.7965 9.23048 9.26784C9.23048 7.7392 10.4697 6.5 11.9983 6.5C13.527 6.5 14.7662 7.7392 14.7662 9.26784Z" stroke="#323544" stroke-width="1.5" stroke-linecap="round" stroke-linejoin="round"/>
</svg>
