<svg width="24" height="24" viewBox="0 0 24 24" fill="none" xmlns="http://www.w3.org/2000/svg">
<path fill-rule="evenodd" clip-rule="evenodd" d="M9.50518 4.65867C10.9562 3.36887 13.25 4.39892 13.25 6.34034V17.6598C13.25 19.6012 10.9562 20.6313 9.50518 19.3415L6.30862 16.5001H4.25C3.00736 16.5001 2 15.4927 2 14.2501V9.75009C2 8.50745 3.00736 7.50009 4.25 7.50009H6.30858L9.50518 4.65867ZM11.75 6.34034C11.75 5.6932 10.9854 5.34985 10.5017 5.77978L7.092 8.81064C6.95472 8.93268 6.77742 9.00009 6.59373 9.00009H4.25C3.83579 9.00009 3.5 9.33587 3.5 9.75009V14.2501C3.5 14.6643 3.83579 15.0001 4.25 15.0001H6.59377C6.77745 15.0001 6.95475 15.0675 7.09204 15.1895L10.5017 18.2204C10.9854 18.6503 11.75 18.3069 11.75 17.6598V6.34034Z" fill="#323544"/>
<path d="M16.5769 15.1644C18.1384 13.4253 18.1384 10.5756 16.5769 8.83653C16.3001 8.52833 16.3256 8.05414 16.6338 7.7774C16.942 7.50066 17.4162 7.52617 17.693 7.83437C19.7664 10.1435 19.7664 13.8574 17.693 16.1665C17.4162 16.4747 16.942 16.5002 16.6338 16.2235C16.3256 15.9468 16.3001 15.4726 16.5769 15.1644Z" fill="#323544"/>
<path d="M14.4853 10.6534C15.1729 11.4179 15.1729 12.5831 14.4853 13.3476C14.2084 13.6556 14.2335 14.1298 14.5415 14.4068C14.8495 14.6838 15.3237 14.6586 15.6007 14.3506C16.8011 13.0157 16.8011 10.9852 15.6007 9.65036C15.3237 9.34236 14.8495 9.31721 14.5415 9.59418C14.2335 9.87115 14.2084 10.3454 14.4853 10.6534Z" fill="#323544"/>
</svg>
