<svg width="24" height="24" viewBox="0 0 24 24" fill="none" xmlns="http://www.w3.org/2000/svg">
<path d="M19.074 4.89389C17.209 3.02894 14.6688 2 12.0643 2C6.59808 2 2.12863 6.4373 2.12863 11.9035C2.12863 13.672 2.57879 15.3441 3.44696 16.8875L2.03217 22L7.33763 20.6495C8.78458 21.4212 10.4244 21.8714 12.0965 21.8714C17.5306 21.8392 21.9679 17.4019 21.9679 11.9035C21.9679 9.26688 20.9389 6.791 19.074 4.89389ZM12.0322 20.1672C10.5852 20.1672 9.07397 19.7492 7.81995 18.9775L7.4984 18.7846L4.37943 19.5884L5.2476 16.5659L5.05467 16.2444C4.25081 14.926 3.80065 13.3826 3.80065 11.8392C3.80065 7.30547 7.46625 3.63987 12.0322 3.63987C14.2187 3.63987 16.2765 4.50804 17.8199 6.05145C19.3634 7.59486 20.2315 9.68489 20.2315 11.9035C20.2958 16.5016 16.5659 20.1672 12.0322 20.1672ZM16.5659 13.9936C16.3087 13.865 15.119 13.254 14.8296 13.2219C14.6045 13.1254 14.4116 13.0932 14.283 13.3505C14.1544 13.6077 13.6399 14.1222 13.5113 14.3151C13.3826 14.4437 13.254 14.508 12.9646 14.3473C12.7074 14.2187 11.9357 13.9936 10.9711 13.0932C10.2315 12.4502 9.71705 11.6463 9.62059 11.3569C9.49197 11.0997 9.58843 11.0032 9.74921 10.8424C9.87782 10.7138 10.0064 10.5852 10.1029 10.3923C10.2315 10.2637 10.2315 10.135 10.3601 9.97428C10.4888 9.84566 10.3923 9.65274 10.328 9.52412C10.2315 9.3955 9.78136 8.17364 9.55628 7.65917C9.36335 7.1447 9.13827 7.24116 9.00966 7.24116C8.88104 7.24116 8.68811 7.24116 8.5595 7.24116C8.43088 7.24116 8.10933 7.27331 7.91641 7.5627C7.69133 7.81994 7.04824 8.43087 7.04824 9.65273C7.04824 10.8746 7.91641 12 8.07718 12.2251C8.2058 12.3537 9.84567 14.8939 12.2894 15.9871C12.8682 16.2444 13.3183 16.4051 13.7042 16.5338C14.283 16.7267 14.8296 16.6624 15.2476 16.6302C15.7299 16.5981 16.6945 16.0514 16.9196 15.4405C17.1125 14.8939 17.1125 14.3473 17.0482 14.2508C16.9839 14.1865 16.791 14.09 16.5659 13.9936Z" fill="#374151"/>
</svg>
