<svg width="24" height="24" viewBox="0 0 24 24" fill="none" xmlns="http://www.w3.org/2000/svg">
<path d="M21.9676 11.5161C21.9676 8.38707 21.9676 5.16129 21.9676 2.03229C18.3225 2.51615 14.7096 3.03228 11.0322 3.61292C11.0322 6.29032 11.0322 8.96771 11.0322 11.5806C14.7096 11.5483 18.3225 11.5483 21.9676 11.5161Z" fill="#374151"/>
<path d="M2 4.96766V11.6773C4.6774 11.6773 7.45157 11.645 10.129 11.645C10.129 8.99989 10.129 6.48378 10.129 3.83865C7.45157 4.19348 4.6774 4.54832 2 4.96766Z" fill="#374151"/>
<path d="M2 12.4515V19.1611C4.6774 19.516 7.45157 19.8708 10.129 20.2579C10.129 17.6773 10.129 15.0967 10.129 12.516C7.45157 12.4515 4.6774 12.4515 2 12.4515Z" fill="#374151"/>
<path d="M11.1291 12.5806C11.1614 15.2258 11.1614 17.8064 11.1614 20.4193C14.7742 20.9031 18.3871 21.4193 22 21.9677C22 18.8386 22 15.7096 22 12.5806C18.3226 12.5806 14.7097 12.5806 11.1291 12.5806Z" fill="#374151"/>
</svg>
